<?xml version="1.0" standalone="no"?>
<!DOCTYPE svg PUBLIC "-//W3C//DTD SVG 1.1//EN" "http://www.w3.org/Graphics/SVG/1.1/DTD/svg11.dtd" >
<svg xmlns="http://www.w3.org/2000/svg" xmlns:xlink="http://www.w3.org/1999/xlink" version="1.1">
<metadata>
Created by FontForge 20170731 at Fri Jan  1 02:30:17 1904
 By Aleksey,,,
</metadata>
<defs>
<font id="Debussy" horiz-adv-x="290" >
  <font-face 
    font-family="Debussy"
    font-weight="500"
    font-stretch="normal"
    units-per-em="1000"
    panose-1="0 0 0 0 0 0 0 0 0 0"
    ascent="800"
    descent="-200"
    x-height="541"
    cap-height="726"
    bbox="-61 -253 1064 917"
    underline-thickness="50"
    underline-position="-155"
    unicode-range="U+0020-F002"
  />
<missing-glyph 
 />
    <glyph glyph-name=".notdef" 
 />
    <glyph glyph-name="glyph1" horiz-adv-x="0" 
 />
    <glyph glyph-name="glyph2" 
 />
    <glyph glyph-name="space" unicode=" " 
 />
    <glyph glyph-name="space" unicode="&#xa0;" 
 />
    <glyph glyph-name="exclam" unicode="!" horiz-adv-x="320" 
d="M160 -19q-25 0 -46.5 9t-39.5 25q-18 18 -27 39.5t-9 46.5q-1 25 8 46.5t27 39.5t39.5 27t46.5 9v0v0h0.5h1.5v0h1v0v0v0h1v0v0q11 0 22.5 -2t22.5 -7q11 -4 20.5 -11t17.5 -15t14.5 -17t10.5 -19l4 -10t3 -10q1 -6 2 -11l2 -10v-1.5v-0.5v-1.5v-1.5v-1.5v-0.5v-1.5v-1.5
q0 -12 -2 -23.5t-7 -22.5q-4 -11 -11 -21t-16 -19q-8 -8 -18 -14t-21 -10q-11 -5 -23 -7t-24 -2v-1v0zM160 245q-23 -1 -42.5 7.5t-36.5 24.5q-16 17 -24.5 36.5t-8.5 42.5v268q0 10 2 20.5t6 20.5q5 11 11 20t14 17t17.5 14t19.5 10t20.5 6t21.5 2h2h2h1.5h1.5h0.5h1.5
q5 -1 9.5 -2t9.5 -2q4 -1 9 -2.5t9 -3.5q9 -4 17 -9.5t15 -13.5q8 -8 13.5 -17t9.5 -20q5 -10 7 -20.5t2 -21.5v-266q0 -24 -8 -43.5t-24 -35.5t-35.5 -24.5t-42.5 -8.5v1v0z" />
    <glyph glyph-name="quotedbl" unicode="&#x22;" horiz-adv-x="500" 
 />
    <glyph glyph-name="numbersign" unicode="#" horiz-adv-x="600" 
d="M151 202h-115l15 72h116l36 172h-115l15 72h116l42 202h72l-42 -202h86l43 202h72l-43 -202h115l-15 -72h-115l-37 -172h115l-15 -72h-115l-43 -202h-72l43 202h-87l-43 -202h-72l43 202v0v0zM239 274h86l37 172h-87l-36 -172v0v0z" />
    <glyph glyph-name="dollar" unicode="$" horiz-adv-x="618" 
d="M259 199q4 -2 8.5 -2.5t8.5 -0.5q5 -1 9.5 -1h9.5l1 67l-15 3l-11 2q-6 1 -13.5 2.5t-15.5 3.5q-9 2 -21 6l-27 9q-7 2 -14.5 4.5t-15.5 5.5q-7 2 -14 5l-14 6q-28 11 -50.5 29t-37.5 42q-16 24 -23.5 50.5t-7.5 54.5v10.5t1 11.5q1 5 2 11l2 12q3 13 7.5 25.5t11.5 25.5
t16 25.5t20 24.5q15 17 34 31t43 26q23 12 51 20.5t59 13.5h2t2 1h2h2h2t3 1h2h2h2t2 1h2h2h2t3 1h2h2v93v1v2l0.5 1t0.5 2t0.5 2t1.5 2l0.5 1t1.5 2l1.5 1.5l1.5 1.5q1 0 2 0.5t2 1.5h1h2h0.5t1.5 1h0.5h0.5h2t2 -1l1 -0.5t2 -0.5t1.5 -0.5t1.5 -0.5q0 -1 0.5 -1.5
t1.5 -0.5q1 -1 1.5 -2l0.5 -1q1 -1 1.5 -2t0.5 -2q1 -2 1.5 -4.5t0.5 -4.5v-89q7 -1 13.5 -1.5t13.5 -1.5q6 -1 12.5 -1.5t13.5 -1.5q13 -1 25.5 -4t24.5 -7q29 -9 50 -18.5t34 -20.5q14 -10 22.5 -23t12.5 -28q2 -4 2.5 -8.5t1.5 -9.5v-4.5t1 -4.5v-4v-4q0 -7 -1 -14.5
t-3 -14.5t-5 -13t-7 -11q-7 -11 -16 -19.5t-18 -13.5t-20 -7.5t-24 -2.5q-7 0 -13.5 1t-14.5 2q-7 2 -15.5 3.5t-16.5 4.5l-32 10l-6 3l-24 7l-3 1l-3 1l-5 1l-1 -53l3 -1.5t3 -0.5q1 -1 2.5 -1h2.5q2 0 3 -0.5t3 -0.5q1 -1 2.5 -1.5t2.5 -0.5q29 -9 51 -15.5t37 -11.5
q14 -5 26 -9.5t21 -8.5l2 -2t2 -1t1.5 -0.5t1.5 -0.5q0 -1 0.5 -1h1.5q26 -14 46.5 -33t34.5 -43t21.5 -49t7.5 -52v-4.5v-4.5q-1 -3 -1 -5.5v-4.5q-1 -4 -1.5 -8.5t-0.5 -9.5q-3 -14 -8 -28t-11 -28q-7 -13 -15 -26.5t-19 -25.5q-16 -19 -36.5 -35t-44.5 -29t-49.5 -21
t-52.5 -11h-2h-1h-2h-2h-1.5t-1.5 -1h-1.5h-1.5h-3t-3 -1h-3.5h-3.5h-2.5t-3.5 -1h-2.5h-3.5l-1 -91v-0.5v-1.5q-1 -1 -1 -1.5v-1.5q-1 -2 -1.5 -3.5t-1.5 -2.5l-1.5 -1.5l-0.5 -0.5l-1.5 -1.5t-1.5 -0.5t-1.5 -0.5t-0.5 -1.5q-1 0 -1.5 -0.5t-1.5 -0.5h-1.5h-0.5h-1.5h-0.5
q-1 0 -2.5 0.5t-3.5 1.5q-1 1 -2.5 1.5t-2.5 1.5l-1.5 1.5l-0.5 0.5l-1.5 1.5t-0.5 1.5l-1.5 1.5l-0.5 0.5v1.5v1.5q-1 1 -1 1.5v0.5v1.5v0.5l1 87q-3 1 -5.5 1h-4.5h-4.5h-4.5q-2 1 -4.5 1h-4.5h-4.5h-4.5q-34 2 -61.5 5t-49.5 9q-22 5 -39 12t-29 14q-1 1 -2.5 1.5
t-3.5 1.5q-1 1 -2.5 2t-2.5 2q-15 10 -26 20.5t-17 20.5q-7 11 -10 23t-3 25v6.5t1 7.5q0 3 0.5 6.5t1.5 7.5q0 2 1 4.5t1 5.5q1 2 2 4.5t2 4.5q2 5 4 8.5t5 7.5q8 11 15.5 19.5t16.5 13.5q8 5 18 7t22 2h4h4q2 -1 4 -1h4q4 -1 8.5 -1.5t9.5 -1.5l44 -11l39 -10l32 -8l8 -2
v0v0zM331 197l9 3l10 3l2 1q2 0 4.5 1.5t4.5 3.5l2 2l2 2q0 1 1 2.5t2 2.5v0l1 1v0.5v0.5v0.5t1 1.5v2v2v1.5t1 0.5v1.5v0.5q0 2 -0.5 4.5t-1.5 3.5q-1 2 -2 2.5t-2 1.5h-0.5t-0.5 1h-1.5h-0.5h-0.5t-0.5 1h-1v0h-0.5t-0.5 1h-1.5h-0.5h-0.5t-0.5 1h-1v0l-13 5l-5 1l-5 2
l-1 -57v0v0zM297 531q-1 -1 -1.5 -1h-1.5h-0.5t-0.5 1h-1v0h-2h-1h-1.5h-1.5h-1.5h-0.5v0v0h-1.5h-0.5v0v0h-1v0q-5 0 -9.5 -0.5t-8.5 -1.5q-2 -1 -3.5 -1.5t-3.5 -0.5q-1 -1 -2.5 -1.5t-2.5 -1.5l-1.5 -1.5t-1.5 -0.5l-1.5 -1.5t-0.5 -1.5q-1 -1 -1.5 -2t-0.5 -2
q-1 -3 -1.5 -5.5t0.5 -4.5t2.5 -4t3.5 -4l1.5 -1.5l1.5 -1.5t2 -1.5t2 -0.5q0 -1 1 -1.5t2 -0.5h0.5h1.5q0 -1 0.5 -1h0.5l6 -1l10 -3l18 -5l1 51v0v0z" />
    <glyph glyph-name="percent" unicode="%" horiz-adv-x="852" 
d="M568 -3q-26 10 -47 27t-37 40t-23.5 48t-7.5 52t8 52.5t24 48.5t37 39.5t47 26.5q5 2 10.5 4t11.5 3q3 1 6 1.5t6 1.5q3 0 6 0.5t6 1.5h3h3h2.5h2.5h3.5t2.5 1h3.5h2.5q9 0 18 -0.5t18 -2.5q9 -1 17.5 -4t16.5 -7q26 -11 46.5 -28.5t35.5 -40.5q14 -23 21.5 -47.5
t7.5 -50.5v-2.5v-3.5v-2.5v-3.5q-1 -16 -5.5 -31t-10.5 -30t-15.5 -28.5t-21.5 -25.5q-13 -13 -28.5 -23t-32.5 -15q-17 -7 -34.5 -10.5t-35.5 -3.5h-4h-4q-3 1 -5 1h-4q-4 1 -8 1.5t-8 1.5t-8.5 1.5t-9.5 2.5q-4 1 -8 2.5t-8 3.5v-1v0zM606 164q0 -7 2 -12t6 -9q5 -4 10 -6
t12 -2h4t4 1q2 0 4 0.5t4 1.5q4 2 7 4t6 6q2 3 3.5 7.5t1.5 8.5v0.5v1.5q-1 1 -1 1.5v1.5v1.5v1.5q-1 1 -1 1.5v1.5q-2 4 -5 7t-7 6q-4 2 -8.5 3.5t-9.5 1.5h-1.5h-1.5q-1 -1 -1.5 -1h-1.5h-1.5h-1.5q-1 -1 -1.5 -1h-1.5q-4 -2 -8 -5t-7 -6q-3 -4 -4 -8t-1 -9v1v0zM139 59
q0 -1 0 -0.5v1.5q-1 0 -1 0.5v1.5v2.5v2.5v2v2v2v2q0 7 1 14t3 14t5.5 13.5t7.5 12.5l390 563q7 9 16 16.5t19 12.5q11 5 22 8t22 3q7 0 13.5 -1t13.5 -3q3 -1 6 -2.5t7 -2.5q3 -2 6 -3.5t6 -3.5q10 -7 17.5 -15t12.5 -19q5 -10 7.5 -20.5t2.5 -21.5q0 -7 -1 -13.5t-3 -12.5
q-2 -7 -5 -13t-7 -12l-392 -562q-5 -9 -12 -15.5t-15 -11.5q-8 -4 -17 -7.5t-18 -5.5h-2t-2 -1h-3h-2h-2t-2 -1h-3h-2q-16 0 -30.5 5t-27.5 14q-13 11 -20.5 24.5t-10.5 29.5v1v0zM219 372q-39 -2 -72 11.5t-60 40.5t-40.5 59.5t-13.5 69.5q0 27 8 52.5t24 48.5t37 40.5
t48 28.5q8 4 16.5 7t17.5 4q9 2 18 2.5t18 0.5q5 0 9 -0.5t9 -0.5q4 -1 8.5 -1.5t8.5 -1.5q9 -1 17.5 -4t16.5 -6q27 -11 48 -28.5t36 -40.5q15 -24 22.5 -49t7.5 -51v-4.5v-4.5q-1 -2 -1 -4.5v-4.5t-0.5 -4t-0.5 -4q-1 -3 -1 -5v-4q-1 -2 -1.5 -4.5t-0.5 -4.5
q-1 -2 -1.5 -4.5t-1.5 -4.5t-1.5 -4t-1.5 -4q-1 -3 -1.5 -5t-1.5 -4q-4 -8 -8.5 -15.5t-9.5 -15.5q-5 -7 -11 -14.5t-12 -13.5q-13 -13 -28 -22.5t-32 -16.5q-16 -7 -33.5 -11t-35.5 -4v1v0zM186 554q0 -7 2.5 -12t6.5 -10q5 -4 10.5 -6t12.5 -1h3.5h2.5q2 0 3.5 0.5
t2.5 1.5h1.5t1.5 1l0.5 0.5t1.5 0.5t1.5 0.5l1.5 1.5l0.5 0.5l1.5 1.5q2 2 4 4.5t3 5.5q2 3 2.5 6t0.5 6q0 2 -0.5 4.5t-1.5 4.5t-2.5 4.5t-3.5 4.5t-4.5 4t-5.5 3t-6.5 1.5t-7.5 0.5q-7 0 -12.5 -2t-10.5 -7q-4 -4 -6.5 -9.5t-2.5 -10.5v1v0z" />
    <glyph glyph-name="ampersand" unicode="&#x26;" horiz-adv-x="758" 
d="M105 401q5 4 9.5 7.5t8.5 6.5q2 2 4 3.5t5 2.5q2 2 4 3.5t4 2.5l-6 9l-6 8q-6 7 -10.5 16t-7.5 18q-4 9 -6 18l-4 18q-1 3 -1.5 6t-0.5 6v6v6q0 31 12 59.5t34 54.5q23 26 55 44t74 27q5 1 10.5 2t10.5 2t10.5 1.5t11.5 1.5h5.5t5.5 1h4.5h5.5h5.5t5.5 1h5h6h6h6
q3 -1 6 -1h6h6t6 -1q2 0 5 -0.5t6 -0.5q45 -5 80.5 -17.5t60.5 -32.5q26 -20 41.5 -45.5t22.5 -57.5q1 -6 1.5 -12t1.5 -12t1.5 -12t0.5 -11q0 -25 -6.5 -48t-19.5 -43q-13 -19 -31.5 -35t-41.5 -28q-1 -1 -2 -1.5t-2 -0.5q-1 -1 -2 -1h-1q-1 -1 -2 -1.5t-2 -0.5
q-1 -1 -2 -1.5t-2 -0.5l27 -18l12 4l8 3l12 4l9 4q2 0 4.5 0.5t5.5 1.5t6 1.5t6 1.5h2t3 1h2.5h2.5h3t3 1h2.5h2.5h3h3q1 -1 2.5 -1h2.5h3h3q1 -1 2.5 -1h2.5q20 -4 37 -12.5t30 -21.5q14 -13 21.5 -28t10.5 -32v-2.5v-3.5v-1.5t1 -0.5v-1.5v-0.5v-1.5v-0.5v-1.5v-1.5v-1.5
v-0.5v-1.5v-1.5q0 -16 -3.5 -28.5t-10.5 -22.5t-14.5 -15t-15.5 -7v2l9 -161q-5 -11 -12.5 -18t-16.5 -12q-10 -5 -20 -8t-21 -3q-13 0 -26 3t-25 8t-22.5 12.5t-18.5 17.5l-19 25q-2 -2 -4 -3l-4 -2q-1 -1 -2.5 -2t-3.5 -2q-11 -7 -21.5 -12.5t-21.5 -10.5l-20 -8t-19 -7
q-7 -2 -13.5 -3t-12.5 -3q-7 -1 -13.5 -2t-13.5 -2q-13 -2 -27.5 -2.5t-29.5 -0.5t-28.5 1t-27.5 3q-13 2 -26.5 4.5t-26.5 5.5q-43 13 -76.5 35.5t-56.5 54.5t-35 65.5t-13 69.5v1.5v1.5v0.5v1.5q0 17 2.5 34.5t8.5 33.5q6 17 14.5 32.5t20.5 29.5q2 2 4 4.5t4 5.5l4.5 4.5
l4.5 4.5l9.5 9.5t9.5 8.5v1v0zM276 284q0 -1 -0.5 -1h-0.5l-1 -1v0h-0.5h-0.5l-1 -1v0v-0.5v-0.5l-1 -1v0h-1v0q-3 -2 -5 -4.5t-4 -4.5q-2 -3 -3.5 -5.5t-2.5 -4.5q-3 -5 -4 -10.5t-1 -10.5q0 -7 2 -13.5t6 -12.5q5 -7 11 -13t15 -11q4 -3 8.5 -4.5t8.5 -3.5q5 -1 9.5 -2
t10.5 -2h5.5h4.5h4.5t4.5 1l5 2l14 4l12 3l-95 97v0v0zM381 495l3 2l5 6l6 5l4 5q1 0 1.5 1t1.5 2q0 1 0.5 1.5l1.5 1.5l0.5 0.5t0.5 1.5v0.5t1 1.5v0.5v0.5v0.5t1 1.5v0.5v1.5v0l1 1v0.5v1.5v1.5v1.5q0 5 -2 10.5t-6 10.5t-9.5 7.5t-12.5 3.5h-1.5h-0.5h-1v1h-1.5h-0.5
h-1.5h-0.5q-3 -1 -5 -1.5t-4 -1.5t-3.5 -1.5t-3.5 -1.5q-4 -3 -6.5 -6t-4.5 -6q-1 -3 -2 -6.5t-1 -7.5v-1.5v-0.5v0v0q0 -1 0.5 -1h0.5v-1.5v-0.5v0v0v-1v0q0 -1 1 -2.5t1 -2.5q1 -2 2 -3t2 -3q2 -3 5.5 -6t7.5 -6l1.5 -1.5t1.5 -0.5l1.5 -1.5t1.5 -0.5l8 -4l6 -3v0v0z" />
    <glyph glyph-name="quotesingle" unicode="'" horiz-adv-x="500" 
 />
    <glyph glyph-name="parenleft" unicode="(" horiz-adv-x="319" 
d="M58 173q-5 25 -9 49.5t-6 47.5q-3 23 -4 45t-1 43q0 20 1 42t4 45q2 23 6 48t9 51q2 11 4.5 21.5t5.5 21.5q2 11 5 22t7 22q4 12 7 22.5t6 19.5q3 8 5.5 15.5l4.5 13.5q2 5 3.5 9t3.5 8q1 4 3 7.5t3 7.5q3 8 6 14l6 12q6 13 13.5 22t14.5 14q8 5 17 9t20 6h2t3 1h2h2h2
t3 1h2h2q7 0 14 -1.5t14 -3.5q7 -3 13 -6t12 -8l2 -2l2 -2t2 -1.5t2 -1.5q4 -4 7 -7.5t6 -6.5q3 -4 5 -7.5t4 -7.5q3 -7 5 -15.5t2 -17.5q0 -4 -0.5 -9.5t-1.5 -10.5q-1 -3 -1.5 -5.5t-0.5 -5.5q-1 -2 -1.5 -5t-1.5 -6l-1 -1l-20 -58q-5 -16 -9.5 -31t-8.5 -30t-7 -28.5
t-5 -27.5q-4 -21 -7 -41t-5 -38t-3 -36t-1 -35t1 -34.5t3 -35.5t5 -37.5t7 -40.5q2 -13 5 -26.5t7 -27.5q3 -14 7.5 -29.5t10.5 -32.5l16 -46l5 -14q2 -7 3.5 -12t2.5 -10t1.5 -9.5t0.5 -8.5q-1 -10 -3 -19t-7 -18q-4 -8 -11.5 -16.5t-16.5 -15.5q-7 -5 -13.5 -8.5
t-13.5 -5.5q-4 -1 -7.5 -2t-6.5 -2q-4 0 -7.5 -0.5t-7.5 -0.5h-4h-4h-2h-1q-1 1 -2 1h-2q-11 2 -20 6t-17 9q-7 6 -14.5 15t-13.5 21l-6 12t-6 14q-1 2 -1.5 4t-1.5 3l-2 4t-1 4q-2 2 -3.5 6.5t-3.5 8.5l-4.5 13.5l-5.5 16.5q-3 8 -6 18.5t-7 23.5q-1 4 -2 7.5t-2 7.5
q-1 3 -2 6.5t-2 7.5t-2 7.5t-2 7.5q-1 3 -2 6.5t-2 7.5q-1 3 -1.5 6.5t-1.5 7.5t-1.5 7.5t-1.5 7.5v1v0z" />
    <glyph glyph-name="parenright" unicode=")" horiz-adv-x="319" 
d="M55 -77q-6 4 -10.5 9.5t-8.5 10.5q-4 6 -7.5 11.5t-5.5 10.5q-1 3 -2.5 6t-1.5 6q-1 3 -1.5 5.5t-0.5 4.5v1.5v1.5v1.5v1.5v2.5v2.5q0 2 0.5 4t1.5 5q1 5 2.5 11l3.5 14l1 4l19 58q1 1 2 3.5t2 5.5q0 2 1 4.5t2 4.5q2 5 3.5 10t2.5 10q3 11 5.5 20.5t4.5 19.5q1 5 2 9.5
t2 9.5q1 4 2 9t2 9q4 21 7 40.5t5 37.5t3 36t1 36q0 17 -1 34.5t-3 35.5t-5 37.5t-7 40.5q-3 13 -6 26.5t-7 27.5t-8.5 29.5t-9.5 32.5l-15 46l-5 15q-2 4 -3.5 9.5t-2.5 10.5t-1.5 10.5t-0.5 10.5q0 10 2.5 19t6.5 18q5 9 12 17t17 15q5 5 11.5 8t13.5 6q7 2 14.5 3.5
t14.5 1.5h2h2q1 -1 2 -1h2h2h3q1 -1 2 -1h2q11 -2 20.5 -6t16.5 -9q8 -5 14.5 -14t13.5 -22l6 -12t6 -14q3 -7 6 -15t7 -17q2 -7 4.5 -14.5t5.5 -15.5t6 -18.5t7 -22.5q3 -12 6 -23l6 -22q2 -10 4.5 -20.5t4.5 -21.5q5 -21 8 -41.5t6 -40.5l2 -20t2 -19q1 -10 1.5 -20
t0.5 -20v-4t1 -3v-4v-4v-8v-8q0 -37 -3.5 -74t-10.5 -75t-17.5 -79.5t-24.5 -85.5q-1 -2 -1.5 -4t-1.5 -4q-1 -1 -1.5 -2.5t-0.5 -3.5l-2 -4t-1 -4q0 -1 -0.5 -2l-0.5 -1q-1 -1 -1 -2v-2q-3 -7 -6 -13.5t-6 -12.5t-5.5 -12t-4.5 -11q-7 -14 -14.5 -23t-15.5 -15
q-7 -6 -16.5 -10t-20.5 -6h-2t-2 -1h-2h-2h-2h-1h-2h-2q-7 0 -14.5 1.5t-15.5 3.5q-7 2 -13.5 5.5t-12.5 8.5v-1v0z" />
    <glyph glyph-name="asterisk" unicode="*" horiz-adv-x="407" 
d="M136 430l-103 12l41 93l51 8l-54 3l-36 93l99 16l31 -41l-24 45q-1 1 -2 3.5t-2 5.5q0 2 -0.5 3t-0.5 3v2.5v2.5v3.5t1 3.5q0 1 0.5 3t1.5 3q1 2 1.5 3.5t1.5 3.5q1 1 2 3t2 3q5 6 10.5 10.5t12.5 7.5q6 3 13 5.5t14 3.5h2h2h2h2q4 0 8 -0.5t8 -1.5q3 -1 7 -2t8 -3
q8 -3 14 -8t12 -12q1 -1 2 -3t2 -3q1 -2 1.5 -3.5t1.5 -3.5q2 -3 2.5 -6.5t0.5 -7.5q0 -3 -0.5 -5.5t-1.5 -4.5q-1 -3 -1.5 -5.5t-1.5 -4.5l-24 -44l31 41l99 -16l-36 -93l-54 -3l51 -8l41 -93l-103 -12l-26 45l20 -47q0 -2 0.5 -3.5t1.5 -3.5v-1.5t1 -0.5q0 -1 0.5 -1.5
t0.5 -1.5v-2.5v-3.5v-1.5v-0.5v-1.5v-1.5q0 -4 -0.5 -8.5t-2.5 -9.5q-1 -4 -3.5 -8t-4.5 -8q-4 -6 -10 -11t-12 -8q-3 -2 -6 -3.5t-6 -2.5q-4 -1 -7 -2t-6 -1h-2h-2h-2h-2q-8 0 -15.5 2t-14.5 6q-7 3 -13 8t-11 12q-3 4 -4.5 8.5t-3.5 8.5q-1 5 -2 9.5t-1 8.5v4.5t1 5.5v3
t1 3q0 1 0.5 2.5t1.5 2.5l20 48l-26 -45v0v0z" />
    <glyph glyph-name="plus" unicode="+" horiz-adv-x="500" 
 />
    <glyph glyph-name="comma" unicode="," horiz-adv-x="309" 
d="M-24 -116q1 3 0.5 5.5t-1.5 4.5q0 3 -0.5 5t-1.5 4v5.5v4.5v2t-1 2v3v2q0 6 0.5 12t1.5 11q1 6 3 11.5t4 10.5l85 197q7 14 17.5 25.5t23.5 20.5q14 8 28 12.5t30 4.5q5 0 10.5 -0.5t11.5 -2.5q6 -1 11.5 -3t10.5 -4q15 -7 26.5 -17.5t19.5 -24.5q8 -13 12.5 -28t4.5 -30
q0 -6 -0.5 -11.5t-2.5 -10.5q-1 -6 -3 -11.5t-4 -10.5l-94 -194q-4 -9 -10.5 -17t-14.5 -15q-8 -8 -17 -13t-19 -9q-2 -1 -4.5 -1.5t-4.5 -1.5q-3 -1 -5 -1.5t-4 -0.5h-2.5t-2.5 -1h-3h-2h-2t-2 -1h-3h-2q-16 0 -30 4.5t-27 13.5q-12 9 -20.5 21.5t-14.5 27.5l-2 -1v0z" />
    <glyph glyph-name="hyphen" unicode="-" horiz-adv-x="506" 
d="M50 360q7 5 14.5 10t15.5 8t17 5t18 2l281 1q17 -1 32 -7.5t28 -18.5q13 -13 19.5 -28.5t6.5 -34.5v0v0v-1v0v0v0v0v0v-1v0v0v0q0 -19 -6.5 -34.5t-19.5 -28.5t-28.5 -19.5t-32.5 -6.5l-280 1q-9 -1 -18 0.5t-17 4.5t-15.5 8t-14.5 12t-12 14.5t-8 15.5t-4.5 16.5
t-1.5 17.5q0 8 1.5 16.5t4.5 16.5t8 15.5t12 14.5v1v0z" />
    <glyph glyph-name="period" unicode="." horiz-adv-x="305" 
d="M143 -19q-25 1 -47 10t-40 25q-18 18 -27 39.5t-9 46.5t9 46t27 39t40 27t47 9q12 0 23.5 -2.5t22.5 -7.5q11 -4 21 -11t19 -15q9 -9 15.5 -19.5t10.5 -21.5q5 -11 7 -22.5t2 -22.5q0 -12 -2 -23.5t-7 -22.5q-4 -11 -11 -21t-15 -18q-9 -9 -19 -15t-21 -10
q-11 -5 -22.5 -7t-23.5 -2v-1v0z" />
    <glyph glyph-name="slash" unicode="/" horiz-adv-x="451" 
d="M65 -10q-13 6 -24 13.5t-19 19.5q-7 12 -11 25t-4 26v4v4t0.5 4.5t1.5 4.5v4t1 4t2 4.5t2 4.5l251 616q5 13 14 23.5t21 17.5q12 8 25 12t26 4h4.5t5.5 -1q2 0 4.5 -0.5t4.5 -0.5q5 -1 9.5 -2.5t8.5 -3.5q13 -6 23.5 -14.5t17.5 -20.5q8 -12 11.5 -24t3.5 -26
q0 -4 -0.5 -8.5t-1.5 -9.5q-1 -4 -2 -8.5t-3 -8.5l-251 -614q-5 -14 -13.5 -24t-20.5 -16q-12 -8 -24.5 -11.5t-26.5 -3.5q-4 0 -8.5 0.5t-9.5 1.5q-4 1 -8.5 2t-9.5 3v-1v0z" />
    <glyph glyph-name="zero" unicode="0" horiz-adv-x="677" 
d="M25 291q-1 7 -2 15.5t-2 17.5q0 5 -0.5 9t-0.5 9v8.5v8.5v16.5t1 17.5q0 5 0.5 9t1.5 9q0 4 0.5 8.5t1.5 8.5q7 44 20.5 82.5t34.5 70.5q20 32 45.5 57.5t56.5 44.5q10 6 19.5 11t19.5 9q10 5 20 8.5t20 6.5q9 3 19 5t20 3q10 2 19.5 2.5t19.5 0.5q20 0 39.5 -3t38.5 -9
q20 -6 39.5 -14.5t38.5 -19.5q30 -19 55.5 -44.5t46.5 -57.5q20 -32 33.5 -70.5t20.5 -82.5q1 -4 1.5 -8.5t0.5 -8.5q1 -5 1.5 -9t0.5 -9v-8.5t1 -8.5v-9v-8v-8.5t-1 -8.5q0 -5 -0.5 -9t-0.5 -9q-1 -9 -1.5 -17.5t-1.5 -16.5q-7 -44 -20.5 -82t-33.5 -70
q-21 -32 -46.5 -57.5t-55.5 -43.5q-10 -6 -19.5 -11t-19.5 -10l-20 -8t-19 -6l-20 -4t-20 -3q-10 -2 -19.5 -2.5t-19.5 -0.5q-19 0 -38.5 3t-39.5 7q-19 6 -38.5 14.5t-39.5 20.5q-31 18 -56.5 43.5t-45.5 57.5q-21 32 -34.5 70t-20.5 82v1v0zM234 360v-9.5v-9.5
q0 -4 0.5 -8.5t1.5 -9.5q5 -36 13 -62t21 -42q12 -16 27 -25t31 -11q1 0 2 -0.5t2 -0.5h1h2h3.5h2.5q14 0 25.5 4.5t21.5 12.5q11 8 20 21t16 32q2 4 3.5 8t2.5 8q1 2 1.5 4.5t1.5 4.5q0 2 0.5 4.5t1.5 4.5q2 10 3.5 19.5t2.5 19.5q1 9 1.5 18t0.5 18q0 33 -6 60t-17 49
q-11 21 -23 35.5t-26 21.5q-3 1 -5.5 1.5t-4.5 1.5t-4 1.5t-4 1.5h-2t-2 1h-2h-2h-2h-1h-2h-2q-13 0 -24 -4t-21 -12q-10 -7 -19.5 -20.5t-18.5 -32.5q-5 -10 -9 -21.5t-7 -25.5q-3 -13 -4 -28t-1 -31v1v0z" />
    <glyph glyph-name="one" unicode="1" horiz-adv-x="677" 
d="M128 691q7 6 15 11t18 9q9 4 18.5 6t19.5 2l157 1q25 -1 44.5 -8.5t34.5 -22.5q14 -15 21.5 -34.5t7.5 -44.5v-503q0 -25 -8.5 -44.5t-25.5 -36.5q-17 -16 -37.5 -24t-44.5 -8q-24 1 -44.5 9t-37.5 24q-16 17 -24.5 36.5t-8.5 43.5v413h-33q-10 -1 -20 1t-19 6t-17 9.5
t-15 12.5t-13 15t-10 18q-4 9 -5.5 18.5t-1.5 19.5v2v2v1.5v1.5v0.5v1.5q1 8 3 16.5t6 16.5t9 15t11 13v1v0z" />
    <glyph glyph-name="two" unicode="2" horiz-adv-x="679" 
d="M488 266q-8 -10 -16.5 -18.5l-16.5 -16.5t-17 -16l-18 -16l110 1q20 -1 37.5 -8.5t32.5 -21.5q15 -15 22.5 -32.5t7.5 -38.5t-7.5 -38.5t-21.5 -32.5q-15 -15 -32.5 -21.5t-37.5 -6.5h-367q-13 0 -23.5 0.5t-18.5 3.5q-8 2 -15.5 6t-14.5 9q-10 8 -16.5 16t-11.5 18
q-4 9 -6.5 19.5t-2.5 20.5v3.5v3.5q0 1 0.5 3t0.5 3v3.5t1 3.5q0 1 0.5 3t1.5 3q2 7 4.5 13.5t6.5 13.5l4 6t5 7q2 3 5 6l6 6l121 122q8 7 15.5 15.5t16.5 17.5t18.5 19t19.5 21l61 71l19 21l10 13q0 -1 0.5 -0.5l1.5 1.5q0 1 0.5 1.5l1.5 1.5v0l1 1v0.5v0.5q0 1 0.5 1.5
l1.5 1.5q2 3 3 6l2 6q0 2 0.5 3t0.5 3q1 1 1 2.5v2.5q0 5 -2 8.5t-5 7.5q-3 3 -8 6t-11 5h-2t-2 1h-2h-2h-2t-1 1h-2h-2q-7 0 -12 -0.5t-10 -1.5q-4 -1 -8 -2.5t-7 -3.5q-3 -1 -5.5 -3.5l-4.5 -4.5l-2.5 -2.5l-2.5 -2.5l-3 -3l-3 -3l-1 -1l-26 -32q-4 -6 -9 -11l-9 -9
q-5 -5 -9.5 -9t-9.5 -7q-10 -7 -19.5 -11.5t-19.5 -7.5q-4 -1 -8 -2.5t-8 -1.5q-4 -1 -7.5 -1h-7.5q-8 0 -15.5 1t-15.5 4q-7 3 -14.5 7t-14.5 9q-10 8 -17.5 17t-12.5 20t-7.5 23t-2.5 25q0 8 1 16t3 16t5.5 16.5t7.5 17.5l6 10t7 11q3 5 7.5 10t8.5 10q9 11 20 20.5
t24 19.5q22 16 45 28t47 19q24 8 51 11.5t57 3.5q15 0 29.5 -1.5t28.5 -3.5t27.5 -5t26.5 -7q39 -13 69.5 -33t51.5 -47q21 -28 31.5 -58.5t10.5 -64.5q0 -11 -1.5 -22.5t-3.5 -23.5q-3 -12 -6.5 -23.5t-8.5 -22.5q-1 -3 -2.5 -6t-3.5 -5q-1 -3 -2.5 -6t-3.5 -6q-1 -3 -3 -6
t-4 -5q-1 -3 -3 -6l-4 -6q-1 -3 -3 -5.5t-3 -4.5q-2 -2 -3.5 -4.5t-3.5 -4.5q-1 -2 -3 -4.5t-3 -4.5q-2 -2 -3.5 -4.5t-3.5 -4.5q-6 -8 -12.5 -16.5t-13.5 -16.5t-15 -16.5t-16 -17.5v1v0z" />
    <glyph glyph-name="three" unicode="3" horiz-adv-x="677" 
d="M554 441q-4 -8 -7.5 -14t-8.5 -11q-4 -5 -9.5 -9.5t-10.5 -9.5q1 -1 2 -1.5t2 -0.5l1.5 -1.5t1.5 -0.5q1 -1 2 -1.5t2 -0.5l1.5 -1.5t1.5 -0.5q23 -13 40 -29.5t29 -37.5t18 -43.5t6 -46.5v-6t-1 -5q0 -3 -0.5 -6t-0.5 -6q-1 -6 -1.5 -11.5t-2.5 -10.5q-4 -16 -10.5 -32
t-15.5 -31q-10 -15 -22 -29t-27 -28q-16 -15 -34.5 -27t-39.5 -21t-43.5 -14.5t-46.5 -9.5q-7 -1 -13.5 -1.5t-12.5 -1.5h-6t-6 -1h-6h-6q-17 1 -34.5 3t-34.5 5q-17 1 -33.5 6t-32.5 12q-33 14 -57.5 29.5t-41.5 33.5q-16 18 -26.5 36.5t-14.5 37.5q0 2 -0.5 3t-0.5 3
q-1 1 -1 2.5v2.5v6v6v1.5v1.5v1t1 2v0.5v1.5v1.5v1.5q2 20 10.5 36t23.5 28t31.5 18.5t35.5 6.5h3.5h2.5q2 -1 3.5 -1h2.5q3 0 6 -0.5t7 -1.5q3 -1 6 -1.5t6 -2.5q2 -1 3.5 -1.5t2.5 -0.5q2 -1 3.5 -1.5t2.5 -1.5q4 -2 8 -4.5t8 -5.5q5 -3 10.5 -7.5t12.5 -9.5l14 -10l9 -8
q1 -2 2 -2.5t2 -1.5t2 -1.5t2 -1.5q8 -6 15.5 -10t13.5 -6q3 -1 6 -2.5t6 -2.5q2 0 5 -1t6 -1q1 0 2 -0.5t2 -0.5h1h2h3.5h2.5v0v0h0.5h1.5v0h1v0v0v0h1v0v0h1.5h1.5h2t2 1h1h2h0.5t1.5 1h0.5h0.5q9 2 16.5 6t12.5 10t7.5 13t2.5 14q0 2 -0.5 4.5t-1.5 4.5t-1.5 4.5
t-1.5 4.5q-3 5 -7 9t-9 7q-4 3 -11.5 5t-17.5 3l-10 2l-26 1q-1 -1 -2.5 -1h-3.5q-1 0 -2 0.5t-2 1.5h-1.5h-0.5h-1.5h-1.5h-1.5t-0.5 1h-1.5h-1.5q-16 4 -28.5 12t-22.5 21q-10 12 -15 27t-6 32v0v1v0v0v0.5v1.5q0 14 2.5 26t8.5 23t14.5 19.5t19.5 15.5q6 4 12.5 7t13.5 4
q7 2 14.5 3t16.5 1h0.5h1.5h0.5h1.5h0.5h1.5h0.5h1.5q7 0 12 0.5t9 1.5t7 2.5t5 3.5t4 4.5t3 4.5q2 2 2.5 4.5t0.5 5.5v0.5v1.5q-1 0 -1 0.5v0.5v2v2q-1 0 -1.5 1t-0.5 2l-1.5 1.5t-0.5 1.5v0v1h-1v0v0v1q-1 1 -2 1.5t-2 1.5q-1 0 -1.5 0.5t-0.5 1.5q-1 0 -1.5 0.5t-1.5 0.5
h-2h-2t-2 0.5t-2 1.5l-9 3h-6q-1 -1 -1.5 -1h-1.5h-1.5h-1.5q-7 0 -14.5 -2t-15.5 -7q-9 -4 -21 -13t-28 -22q-1 -1 -2 -1.5l-3 -1.5l-6 -3t-9 -4q-4 -1 -7.5 -2t-6.5 -2q-1 -1 -3 -1.5t-3 -0.5q-2 -1 -3.5 -1h-3.5q-3 -1 -5.5 -1.5t-4.5 -0.5h-4.5h-4.5q-20 0 -37.5 7
t-31.5 22q-15 15 -22 33t-7 40v4.5v4.5t0.5 4.5t1.5 4.5q0 2 0.5 4t0.5 5q1 2 1.5 4t1.5 4t1.5 4t1.5 5l2 4l2 4q2 4 5 8l6 8q3 5 7 9.5t8 8.5q3 3 7 6l8 6q5 3 9.5 6.5t10.5 7.5q3 2 5.5 3.5t5.5 3.5q3 1 6.5 3t7.5 3q3 2 7 3.5t7 3.5q4 1 8 3t8 3q14 5 28.5 9t30.5 7
q15 3 31.5 4.5t32.5 1.5h2h2h1h2h3.5h2.5h4h5q2 -1 4 -1h4h4h5q2 -1 4 -1h4q29 -4 52.5 -10.5t42.5 -15.5t34.5 -21t27.5 -26q11 -13 19 -27.5t14 -28.5q3 -7 5 -14.5t3 -14.5q2 -8 2.5 -15t0.5 -15q0 -12 -2 -24t-6 -24t-9 -24t-12 -24v1v0z" />
    <glyph glyph-name="four" unicode="4" horiz-adv-x="676" 
d="M15 275q1 1 1.5 2.5t1.5 3.5q1 1 1.5 3t1.5 3l4 6l4 6l242 343q4 4 7.5 9t7.5 10q3 4 6.5 8t7.5 8q7 8 13.5 14.5t13.5 11.5q5 3 9 6t9 5q4 2 8.5 4.5t8.5 3.5q9 3 19 4.5t20 1.5h2h2h2.5h1.5q40 0 68.5 -11.5t46.5 -34.5q17 -22 26 -56.5t9 -80.5v-213h10
q20 -1 37.5 -8.5t31.5 -21.5q14 -15 21.5 -32.5t7.5 -37.5q0 -21 -7.5 -38.5t-21.5 -31.5q-15 -15 -32.5 -22t-37.5 -7v0v0v0v0h-1v0v0v0l-10 1v-25q0 -26 -8.5 -46t-25.5 -37q-17 -16 -37.5 -24t-44.5 -8t-44 8t-37 24q-17 17 -25.5 37t-8.5 44v29h-202q-4 -1 -7.5 -1h-6.5
h-3t-3 1q-2 0 -3.5 0.5t-3.5 0.5q-21 3 -37.5 11.5t-28.5 23.5q-13 14 -19 30t-5 34v4.5v5.5q0 2 0.5 4.5t1.5 4.5q0 2 1 4.5t1 5.5q1 2 2 4.5t2 4.5v1v0zM225 333h102v158l-102 -158v0v0z" />
    <glyph glyph-name="five" unicode="5" horiz-adv-x="678" 
d="M136 283q-9 5 -16 13t-12 18q-4 9 -6.5 19.5t-1.5 21.5v2v2v2v2v2v2v0.5t1 1.5v0.5v1.5l47 267q2 10 7 21.5t14 21.5q9 11 19.5 18.5t23.5 12.5q5 2 9.5 3t8.5 2q5 1 9.5 1.5t8.5 0.5l275 1q20 -1 37.5 -8.5t32.5 -22.5q14 -15 21 -33t7 -40q-1 -22 -8.5 -40t-21.5 -32
q-15 -15 -31.5 -22t-36.5 -7l-192 1l-13 -61l9 2l13 2q8 1 16.5 1.5t15.5 1.5h7.5t6.5 1h7.5h6.5q46 -1 83.5 -17t67.5 -47q29 -31 44 -67.5t15 -79.5q0 -7 -0.5 -13.5t-1.5 -13.5l-2 -14t-3 -14q-1 -7 -3.5 -13.5t-4.5 -12.5q-3 -7 -5.5 -13.5t-4.5 -12.5
q-17 -37 -42.5 -66t-59.5 -50t-76.5 -30.5t-93.5 -9.5q-8 0 -16.5 0.5t-17.5 1.5q-4 0 -9 0.5t-9 0.5q-5 1 -9.5 1.5t-9.5 0.5q-5 1 -10.5 2t-10.5 1l-10 2t-10 1q-10 2 -19 4.5t-17 5.5q-4 2 -8 3t-8 3q-3 1 -6.5 2.5t-6.5 2.5q-6 2 -11.5 5t-10.5 6q-5 2 -9.5 4.5
t-8.5 5.5q-4 2 -8 5t-7 6q-7 6 -13 13.5t-11 15.5q-4 8 -6.5 17t-4.5 18v1.5v1.5q-1 1 -1 2v2v4v4q0 11 2 20.5t6 19.5q5 9 11 17t14 15q5 3 9.5 6t8.5 6q5 2 10 4.5t10 3.5q2 0 3 0.5l3 1.5q1 0 2.5 0.5t2.5 0.5h3t3 1q1 0 2.5 0.5t2.5 0.5h1.5h1.5h0.5h1.5h3.5h2.5
q6 0 13 -0.5t14 -2.5q8 -1 16 -4t18 -6l12 -3l23 -8q1 -2 1.5 -2.5t1.5 -0.5h2h2q0 -1 1 -1.5t2 -0.5h1.5h1.5q8 -2 15.5 -3.5t14.5 -3.5q7 -1 13 -1.5t11 -0.5h7.5t6.5 1h3.5t3.5 1q1 0 3 0.5t3 1.5q10 4 17.5 9t12.5 11t7.5 13.5t2.5 14.5q0 4 -0.5 7.5t-1.5 7.5
q-1 3 -3 6.5t-4 7.5q-3 4 -6.5 7.5t-8.5 6.5t-12 5.5t-15 3.5h-2h-2h-1.5t-0.5 1h-1.5h-0.5h-1.5t-1.5 1h-1.5h-0.5h-2h-2q-5 -1 -11 -1.5t-12 -2.5q-7 -1 -14.5 -4t-16.5 -7l-21 -7l-4 -2q-5 -3 -10.5 -4.5t-10.5 -3.5q-5 -1 -10.5 -1.5t-10.5 -0.5q-7 0 -14 1t-14 4
q-7 2 -13.5 6t-12.5 8v1v0z" />
    <glyph glyph-name="six" unicode="6" horiz-adv-x="676" 
d="M404 489l-16 -18l22 -2q9 -2 16 -3t13 -2q5 -1 9.5 -1.5t8.5 -1.5q38 -7 68.5 -25.5t53.5 -47.5t35 -63t12 -72q0 -13 -1.5 -25.5t-3.5 -24.5q-3 -13 -7 -25.5t-9 -25.5q-16 -38 -40.5 -68t-58.5 -51q-34 -22 -74 -31.5t-87 -9.5h-6.5h-6.5q-4 1 -7 1h-6h-6t-6 1
q-4 0 -7 0.5t-6 0.5q-58 5 -103 25t-77 54q-33 33 -49 75.5t-16 94.5q0 21 3 43.5t9 46.5t15.5 49t22.5 51l4 8l4 8q2 3 4 7l4 8q4 8 8.5 15.5t8.5 14.5q11 20 22 36.5t21 29.5q10 14 19 25.5t17 20.5q30 32 53.5 55.5t41.5 36.5q17 14 33.5 21t31.5 8v0h1v0v0h0.5h1.5
q5 0 10.5 -0.5t11.5 -2.5q5 -1 11 -3.5t12 -4.5q7 -3 13 -6.5t12 -8.5q5 -4 10.5 -9t9.5 -11q6 -8 11 -16t8 -16t5 -15.5t2 -15.5q0 -5 -1 -10.5t-3 -10.5q-1 -6 -3 -11.5t-5 -10.5q-6 -10 -14.5 -22t-19.5 -24l-4 -3l-30 -31l-6 -7v0v0zM275 242v-2.5v-1.5v-0.5t1 -0.5v-1
v0q2 -6 5 -12t7 -11q5 -5 11.5 -9t13.5 -7q2 -1 3.5 -1.5t2.5 -0.5q2 -1 3.5 -1h2.5q1 -1 2.5 -1h2.5h3.5h2.5q2 0 4.5 0.5t5.5 0.5q2 1 4.5 1.5t4.5 1.5t4.5 2t5.5 2q2 1 4.5 2.5t4.5 3.5q5 4 9 8.5t7 9.5q2 5 3.5 10t1.5 11q0 2 -0.5 4.5t-0.5 5.5q-1 2 -2 4.5t-2 4.5
q-2 5 -5 9t-8 8q-4 4 -9.5 7t-10.5 4q-6 2 -11.5 3t-10.5 1h-2.5h-3.5h-1.5h-0.5q-1 -1 -1.5 -1h-1.5h-1.5h-1.5q-1 -1 -1.5 -1h-1.5t-1.5 -0.5l-0.5 -0.5q-1 -1 -1.5 -1h-1.5q-8 -3 -14.5 -7.5t-11.5 -10.5q-3 -3 -5 -6t-3 -6q-2 -4 -3 -7t-1 -6v-1.5v-1.5v-1.5v-0.5v0v0
v-1v0v0v0v-1v0v-1.5v-0.5v0v0v1v0z" />
    <glyph glyph-name="seven" unicode="7" horiz-adv-x="676" 
d="M62 691q8 6 16 11t18 9q9 4 19 6t20 2l400 1q11 -1 20.5 -2.5t18.5 -4.5t17 -7.5t15 -9.5q9 -8 16.5 -17t11.5 -19q5 -10 7.5 -19.5t2.5 -20.5v-2v-2q-1 -1 -1 -2v-2v-2v-1v-2v-2q-1 -2 -1.5 -4t-0.5 -4q-1 -2 -1.5 -4t-1.5 -4q-1 -4 -2.5 -7.5t-3.5 -6.5l-295 -518
q-8 -16 -19.5 -27t-26.5 -19t-30 -11.5t-31 -3.5q-7 0 -13.5 0.5t-13.5 2.5q-7 1 -13.5 2.5t-12.5 5.5q-15 8 -26 18.5t-19 23.5q-7 14 -11 27.5t-4 28.5v2v2v1v2v2t1 2v1v2q1 5 2.5 10.5t3.5 10.5t4.5 10.5t5.5 10.5l236 360h-235q-10 -1 -20.5 1t-19.5 6q-10 4 -18 9.5
t-16 12.5q-7 7 -12.5 15t-9.5 17t-5.5 18.5t-1.5 19.5v2v2v1.5v1.5v0.5v1.5q1 8 3 16.5t6 16.5t9 15t12 13v1v0z" />
    <glyph glyph-name="eight" unicode="8" horiz-adv-x="677" 
d="M88 94q-8 10 -15 21t-12 23q-6 11 -10 22.5t-6 23.5l-2 12l-2 12q0 3 -0.5 6t-0.5 6v5v6q0 27 6.5 51.5t19.5 46.5q14 22 31.5 37t39.5 23q-1 0 -1.5 0.5t-0.5 1.5q-1 0 -1.5 0.5l-1.5 1.5l-1.5 1.5t-0.5 1.5q-1 0 -1.5 0.5t-0.5 1.5q-12 13 -21.5 27t-15.5 30t-9 32.5
t-2 32.5v3v3v2.5v2.5v3t1 3v2.5v2.5q1 7 2.5 14t3.5 14q2 6 4.5 13t5.5 14q6 14 14.5 26.5t18.5 25.5q13 16 29.5 28.5t35.5 22.5q20 10 44.5 16t52.5 9q7 1 13.5 1.5t13.5 0.5h6t7 1h6.5h6.5q35 0 65.5 -5.5t55.5 -16.5q25 -10 45 -24.5t35 -32.5q10 -13 18 -25.5t14 -25.5
q3 -7 5.5 -13.5t4.5 -12.5q2 -7 3.5 -13.5t2.5 -13.5v-3t1 -3v-3.5v-3.5v-3t1 -3v-3.5v-3.5q0 -16 -3 -32t-9 -32t-15 -30t-21 -27l-1.5 -1.5l-0.5 -0.5l-1.5 -1.5l-1.5 -1.5l-2 -2l-2 -2q22 -8 39.5 -23t30.5 -37q14 -22 20.5 -47t6.5 -52v-8t-1 -7q0 -4 -0.5 -8t-1.5 -8
t-1.5 -8t-1.5 -7q-1 -4 -1.5 -8t-1.5 -8q-3 -10 -7 -19.5t-9 -19.5t-11 -19t-13 -18q-14 -19 -33 -34t-42 -27q-24 -12 -53.5 -20t-65.5 -12q-7 -1 -14 -1.5t-14 -1.5h-7.5t-6.5 -1h-7.5h-6.5h-6.5h-6.5q-4 1 -7.5 1h-6.5q-7 1 -13.5 1.5t-13.5 1.5q-36 4 -66 12t-53 20
q-24 12 -43 27.5t-33 34.5v1v0zM266 261v-2.5v-0.5v0v0q0 -9 3 -18t9 -17t14.5 -14t19.5 -11l6 -2t6 -1q3 -1 6.5 -1h7.5h3.5h2.5h2t2 1h1h2q2 0 4.5 1t5.5 1q2 1 4.5 2t4.5 2q5 2 9.5 4.5t8.5 6.5q5 5 9 10t7 11q3 5 4.5 11t1.5 12q0 3 -0.5 6t-0.5 7l-2 6t-3 6
q-3 6 -8 11.5t-11 10.5q-3 2 -6 3.5t-5 3.5q-3 1 -6 2.5t-6 2.5l-6 2l-6 2q-4 0 -7 0.5t-6 0.5h-2.5h-3.5h-1.5h-1.5q-1 -1 -1.5 -1h-0.5h-1.5h-1.5q-1 -1 -1.5 -1h-1.5q-1 -1 -2.5 -1.5t-3.5 -0.5q-10 -4 -17.5 -9t-13.5 -11q-6 -7 -10 -13.5t-6 -14.5v-1.5v-0.5
q-1 -1 -1 -1.5v-0.5v-2v-2v1v0zM289 502q1 -7 3.5 -12t6.5 -10t9 -9t12 -6q2 -1 4.5 -1.5t4.5 -1.5t4.5 -1t5.5 1h4t5 1q2 0 4 0.5t4 1.5q5 2 8.5 4t7.5 5t7 7t4 8q2 4 3 8.5t1 8.5t-0.5 7.5t-2.5 7.5q-1 2 -2 3.5t-2 3.5q-2 1 -3 3t-3 3q-4 4 -8 7t-9 4q-2 1 -4.5 1.5
t-4.5 1.5q-3 0 -5.5 0.5t-4.5 0.5h-2.5h-2.5q-2 -1 -3 -1h-2q-2 -1 -4.5 -1.5t-4.5 -1.5q-7 -3 -13 -7.5t-10 -9.5q-4 -6 -6 -12t-1 -12v-1.5v-0.5v0v0v-1v0v1v0z" />
    <glyph glyph-name="nine" unicode="9" horiz-adv-x="676" 
d="M271 228l17 18l-23 2q-51 5 -90.5 23t-68.5 46q-28 29 -42.5 64.5t-14.5 78.5v14.5t1 14.5q1 8 2.5 15.5t3.5 15.5q10 47 33 84.5t60 65.5q37 29 82.5 42.5t100.5 13.5h6h6q3 -1 6 -1h6q6 0 12 -0.5t13 -1.5q57 -7 102 -27.5t78 -53.5q33 -34 49.5 -76.5t16.5 -94.5
q0 -22 -3 -44.5t-9 -46.5t-15.5 -48.5t-22.5 -50.5l-4 -8l-4 -8q-3 -4 -5 -7.5t-4 -7.5t-4 -7.5t-4 -7.5q-3 -4 -5 -7.5t-4 -7.5q-12 -20 -22.5 -37t-20.5 -31q-10 -13 -19 -24.5t-17 -19.5q-28 -31 -51 -53.5t-40 -36.5q-17 -13 -33 -20.5t-31 -8.5h-2h-2h-2h-2
q-5 0 -10.5 0.5t-10.5 2.5q-6 1 -12 3.5t-12 4.5q-7 1 -13 4.5t-12 7.5q-6 5 -10.5 9.5t-9.5 10.5q-3 3 -5 6t-4 7q-2 3 -3.5 6t-3.5 6q-1 3 -2.5 6t-2.5 6q-1 2 -2 5t-1 6q-1 2 -1 4v4v4v4q0 10 2.5 20.5t8.5 21.5t14.5 22.5t20.5 24.5l3 4l30 32l6 7v0v0zM280 470
q0 -11 5 -20.5t14 -17.5q9 -7 19.5 -11t22.5 -3h1.5h1.5h0.5h1.5h3.5t2.5 1h1.5h1.5l0.5 0.5t1.5 0.5q2 0 3.5 0.5t2.5 1.5q2 1 4.5 2t5.5 2q2 2 4.5 3.5t4.5 3.5q5 4 8 8.5t5 9.5t3.5 10t1.5 10q0 2 -0.5 4.5t-0.5 5.5q-1 2 -2 4.5t-2 4.5q-2 5 -5 9t-8 8q-4 4 -9.5 7
t-10.5 5q-6 2 -11.5 3t-10.5 1h-2.5h-3.5h-1.5h-0.5q-1 -1 -1.5 -1h-0.5h-1.5h-0.5q-1 -1 -1.5 -1h-1.5h-1.5h-0.5q-1 -1 -1.5 -1h-1.5q-10 -4 -17.5 -9t-12.5 -12t-7.5 -14.5t-2.5 -15.5v1v0z" />
    <glyph glyph-name="colon" unicode=":" horiz-adv-x="324" 
d="M162 -19q-25 1 -47 10t-40 25q-18 18 -27 39.5t-9 46.5t9 46t27 39t40 27t47 9q12 0 23.5 -2.5t22.5 -7.5q11 -4 21 -11t19 -15q9 -9 15.5 -19.5t10.5 -21.5q5 -11 7 -22.5t2 -22.5q0 -12 -2 -23.5t-7 -22.5q-4 -11 -11 -21t-15 -18q-9 -9 -19 -15t-21 -10
q-11 -5 -22.5 -7t-23.5 -2v-1v0zM75 349q-9 7 -16 17t-12 22q-4 11 -6.5 23t-2.5 25q0 6 0.5 12t1.5 12q1 5 3 11l4 12q5 11 11.5 21t15.5 18t19 15t21 11q11 5 22.5 7t23.5 2t23.5 -2t22.5 -7q11 -4 21.5 -11.5t19.5 -16.5q8 -9 15 -19t11 -21q5 -11 6.5 -22.5t1.5 -22.5
q0 -12 -2 -23.5t-7 -22.5q-4 -11 -10.5 -21t-15.5 -18q-9 -9 -19.5 -15.5t-21.5 -11.5q-11 -4 -22.5 -6.5t-23.5 -2.5h-1.5h-0.5h-1.5h-1.5h-2.5h-2.5q-10 1 -20 3.5t-20 6.5q-10 5 -18 11t-16 13v1v0z" />
    <glyph glyph-name="semicolon" unicode=";" horiz-adv-x="344" 
d="M-9 -116q1 3 0.5 5.5t-1.5 4.5q0 3 -0.5 5t-1.5 4v5.5v4.5v2t-1 2v3v2q0 6 0.5 12t1.5 11q1 6 3 11.5t4 10.5l85 197q7 14 17.5 25.5t23.5 20.5q14 8 28 12.5t30 4.5q5 0 10.5 -0.5t11.5 -2.5q6 -1 11.5 -3t10.5 -4q15 -7 26.5 -17.5t19.5 -24.5q8 -13 12.5 -28t4.5 -30
q0 -6 -0.5 -11.5t-2.5 -10.5q-1 -6 -3 -11.5t-4 -10.5l-94 -194q-4 -9 -10.5 -17t-14.5 -15q-8 -8 -17 -13t-19 -9q-2 -1 -4.5 -1.5t-4.5 -1.5q-3 -1 -5 -1.5t-4 -0.5h-2.5t-2.5 -1h-3h-2h-2t-2 -1h-3h-2q-16 0 -30 4.5t-27 13.5t-21.5 21.5t-13.5 27.5l-2 -1v0zM179 312
q-26 -1 -48 8t-40 27t-27 40t-9 47q-1 26 8 47.5t27 39.5t40.5 27t47.5 9q12 0 24 -2.5t23 -7.5q11 -4 21 -11t19 -16q8 -8 14.5 -17t10.5 -19l4 -10t3 -10q1 -6 2 -11l2 -10v-1.5v-0.5v-1.5v-1.5v-1.5v-0.5v-1.5v-1.5q0 -12 -2 -23.5t-7 -22.5q-4 -11 -11 -21t-16 -19
q-9 -8 -19 -14.5t-21 -11.5q-11 -4 -22.5 -7t-23.5 -3v1v0z" />
    <glyph glyph-name="less" unicode="&#x3c;" horiz-adv-x="500" 
 />
    <glyph glyph-name="equal" unicode="=" horiz-adv-x="500" 
 />
    <glyph glyph-name="greater" unicode="&#x3e;" horiz-adv-x="500" 
 />
    <glyph glyph-name="question" unicode="?" horiz-adv-x="549" 
d="M266 -18q-25 1 -46.5 9.5t-39.5 25.5t-27 39t-9 47t8.5 46.5t26.5 39.5t40 27t47 9q12 0 24 -2.5t23 -7.5q11 -4 21 -11t19 -15q9 -9 16 -19.5t11 -21.5q5 -11 7 -22.5t2 -22.5v-2.5v-3.5v-1.5v-0.5q-1 -1 -1 -1.5v-0.5q-1 -10 -3.5 -20.5t-7.5 -20.5q-4 -10 -10.5 -19
t-14.5 -17q-9 -9 -18.5 -14.5t-20.5 -9.5q-11 -5 -23 -7t-24 -2v-1v0zM393 352q-1 -1 -1.5 -1h-0.5q-1 -1 -1.5 -1h-0.5h-1.5h-0.5l-1 -1v0q-1 -1 -2 -1.5t-2 -0.5h-2h-2v7l-111 -110l-1.5 -1.5l-0.5 -0.5q-1 -1 -1.5 -1h-1.5h-2h-2h-2.5h-3.5h-2h-2q-18 0 -33.5 7t-29.5 22
q-14 14 -21 33t-7 43v2v2v1.5v1.5v0.5v1.5l1 16q2 24 8.5 43.5t18.5 32.5q12 14 31 23.5t44 13.5l2 1l18 4q0 -1 0.5 -1h1.5v0l1 1h0.5h1.5h0.5h1.5v0l1 1h0.5h0.5q5 2 8 4t5 5t3.5 6t1.5 7v0.5v1.5q-1 0 -1 0.5v1.5v1.5v1.5q-1 1 -1 1.5v1.5t-0.5 2t-1.5 2q0 1 -0.5 1.5
t-0.5 1.5q-1 0 -1.5 0.5t-0.5 1.5q-2 3 -5.5 6t-8.5 4q-5 2 -12 3t-15 1h-1.5h-0.5h-1.5h-1.5h-1.5h-0.5h-1.5h-1.5q-4 -1 -9 -2t-11 -3q-6 -1 -13 -4t-16 -7q-1 -1 -2.5 -1.5t-3.5 -1.5q-1 -1 -2 -1.5t-2 -1.5l-6 -2l-22 -15q-1 -2 -1.5 -2.5l-0.5 -0.5v0v0h-1v0
q-2 -1 -4.5 -2.5t-5.5 -3.5q-3 -1 -6 -2.5t-8 -3.5q-6 -3 -12 -5t-11 -4q-6 -1 -11.5 -1.5t-10.5 -0.5h-8t-8 1t-8 2.5t-8 2.5q-12 5 -21 13t-16 20q-7 11 -10.5 24t-3.5 27v8t1 8q0 4 1.5 8.5t2.5 8.5t2.5 8t3.5 8t4.5 8t5.5 8q7 11 16.5 20.5t22.5 19.5q6 5 13.5 9.5
t15.5 9.5q9 4 18 9t19 9q15 6 30.5 11t31.5 8t32.5 5t32.5 2h6h6q3 -1 6 -1h6q6 -1 12 -1.5t12 -1.5q48 -7 85 -21.5t62 -34.5q26 -20 43 -46.5t25 -58.5q1 -3 1.5 -6.5t1.5 -6.5q0 -4 0.5 -7t1.5 -6q1 -7 1.5 -13.5t0.5 -12.5q-1 -29 -10 -54.5t-26 -48.5
q-17 -22 -42.5 -39t-58.5 -28v1v0z" />
    <glyph glyph-name="at" unicode="@" horiz-adv-x="500" 
 />
    <glyph glyph-name="A" unicode="A" horiz-adv-x="691" 
d="M54 -1q-17 6 -30 16t-22 23q-7 13 -11.5 28t-4.5 32q0 7 1 14.5t3 14.5q1 8 3.5 16t5.5 16l170 441q12 29 29.5 52.5t40.5 39.5q23 17 49 25t55 8t55.5 -8t48.5 -25q23 -16 40.5 -39.5t29.5 -53.5l172 -439q3 -9 5.5 -17t3.5 -16q2 -7 3 -14.5t1 -14.5q0 -17 -4.5 -32
t-13.5 -28t-22 -23t-30 -15q-2 -1 -4 -1.5t-4 -1.5t-4 -1.5t-4 -1.5q-4 -1 -8 -1.5t-8 -1.5h-4t-4 -1h-4h-4q-18 0 -34 5t-31 15q-15 11 -25.5 26t-17.5 34l-11 34h-243l-12 -33q-7 -20 -18 -35t-26 -26q-15 -10 -31 -15t-33 -5q-6 0 -12 0.5t-12 2.5q-6 1 -12 3l-12 4v-1v0
zM289 303h108l-54 192l-54 -192v0v0z" />
    <glyph glyph-name="B" unicode="B" horiz-adv-x="645" 
d="M145 0q-25 0 -46 8t-38 25q-16 17 -24 40.5t-8 52.5v475q0 24 8.5 45t25.5 38t38 26t46 9l166 1q2 -1 3 -1h3h2.5h2.5h3h3q1 -1 2.5 -1h2.5h2h3q1 -1 2.5 -1h2.5h3.5h2.5q2 -1 3.5 -1h2.5q50 -7 89 -25t67 -48q29 -30 43 -65t14 -74v-2.5v-2.5v-3v-3v-2.5v-3.5
q-1 -1 -1 -2.5v-3.5q-1 -16 -4.5 -30t-8.5 -26t-11 -23t-13 -20l2 -1l14 -9l14 -9l6 -5q15 -14 27 -29.5t20 -33.5q8 -19 12.5 -38.5t4.5 -39.5v-3v-3q-1 -2 -1 -3.5v-3.5v-3v-3q-1 -2 -1 -3.5v-3.5q-1 -13 -4.5 -26t-8.5 -26t-12 -25t-15 -24q-2 -3 -4 -5.5t-4 -4.5
q-3 -3 -5 -5.5t-4 -4.5q-2 -3 -4.5 -5t-4.5 -5q-3 -2 -5.5 -4t-4.5 -4q-16 -13 -33 -23t-37 -17q-19 -7 -41.5 -9.5t-48.5 -2.5h-249v0v0zM260 199h109q6 -1 12 1.5t10 6.5q5 5 7.5 10.5t2.5 12.5v0v1v0v0v0.5v1.5q0 6 -2.5 12t-7.5 10q-4 5 -10 7.5t-12 2.5l-109 1v-67v0v0
zM261 458h53l37 32l-39 32h-51v-64v0v0z" />
    <glyph glyph-name="C" unicode="C" horiz-adv-x="670" 
d="M102 137q-13 16 -23.5 33t-19.5 35t-16 36.5t-12 37.5q-3 11 -4.5 21.5t-3.5 20.5q-1 11 -2 21.5t-1 20.5v15.5t1 14.5q1 8 2.5 15.5t2.5 15.5q5 21 12 42t17 42t22.5 40.5t27.5 38.5q23 27 49.5 49.5t57.5 39.5q32 17 66 28.5t71 16.5q11 2 21 2.5t20 1.5t19.5 1.5
t19.5 0.5q51 0 90.5 -9.5t67.5 -28.5q27 -19 43.5 -39t20.5 -43v-2t1 -2v-3v-2v-2t1 -2v-2v-2q0 -9 -1.5 -16.5t-3.5 -15.5q-3 -7 -6.5 -14t-8.5 -13l-1.5 -1.5l-0.5 -0.5l-1.5 -1.5t-0.5 -1.5l-2 -2t-1 -2q-4 -4 -7.5 -7t-6.5 -6q-4 -3 -7.5 -5t-7.5 -4q-7 -3 -17 -4.5
t-21 -1.5h-7.5h-7.5t-8.5 0.5t-9.5 1.5h-1.5h-0.5h-1v1h-2h-1h-1.5t-0.5 1q-5 0 -11 1.5t-12 3.5t-15.5 5.5t-23.5 8.5q-4 1 -8.5 2t-10.5 2t-14.5 1.5t-19.5 0.5h-1.5h-1.5h-1.5h-0.5q-28 0 -51.5 -8.5t-43.5 -25.5q-20 -16 -33.5 -40t-20.5 -55q0 -2 -0.5 -4t-0.5 -4
q-1 -3 -1 -5v-4q-1 -4 -1 -8v-8v-7.5t1 -7.5q0 -4 0.5 -8t1.5 -8q6 -31 17.5 -54.5t29.5 -40.5q18 -16 41.5 -24t53.5 -8q12 0 25.5 1.5t27.5 4.5t30 7t32 10h0.5t1.5 1h0.5h0.5h0.5t1.5 1h0.5h1.5v0h1v0v0v0l1 1h0.5h0.5q2 0 4.5 0.5t5.5 1.5q2 0 4.5 0.5t4.5 0.5h4.5
t4.5 1h4.5h4.5q12 0 23 -2t21 -6q9 -4 17 -9.5t15 -13.5q6 -7 10.5 -14.5t7.5 -15.5q3 -7 5 -15.5t2 -16.5q0 -4 -0.5 -8t-0.5 -7l-2 -8l-2 -8t-3 -8t-4 -7l-4 -8t-5 -8q-6 -9 -15 -18t-21 -17q-12 -9 -27 -16.5t-34 -14.5q-13 -5 -27 -8.5t-29 -4.5q-16 -2 -32.5 -3.5
t-33.5 -1.5q-9 0 -18 0.5t-18 1.5t-18.5 1.5t-19.5 2.5q-26 2 -50.5 9t-47.5 17q-22 11 -43 23.5t-40 28.5q-8 6 -15.5 13t-14.5 14q-7 8 -14 15.5t-13 15.5v1v0z" />
    <glyph glyph-name="D" unicode="D" horiz-adv-x="738" 
d="M29 117v487q0 23 8.5 44t24.5 37q17 17 37.5 25.5t45.5 8.5l158 1q84 -1 152 -19t119 -54t84.5 -86.5t49.5 -115.5q2 -11 4 -22.5t3 -22.5q2 -11 2.5 -22.5t0.5 -22.5q-1 -77 -28.5 -141t-80.5 -114q-53 -51 -120.5 -75.5t-150.5 -24.5h-194q-24 0 -44 8t-37 25
t-25.5 37.5t-8.5 45.5v1v0zM260 199h55q39 -1 70.5 10.5t55.5 33.5q24 23 36 50.5t12 61.5q-1 5 -1.5 10t-0.5 10q-1 5 -1.5 10t-1.5 10q-6 27 -20.5 49.5t-37.5 39.5q-24 17 -54 26t-66 9l-46 1v-321v0v0z" />
    <glyph glyph-name="E" unicode="E" horiz-adv-x="531" 
d="M38 74q-2 4 -3.5 9.5t-3.5 11.5q-1 5 -1.5 10.5t-0.5 11.5v487q0 24 8.5 45t24.5 37q17 17 37.5 25t45.5 8l275 1q20 -1 36.5 -8.5t31.5 -21.5q14 -15 21.5 -32.5t7.5 -38.5t-7.5 -39t-21.5 -33q-15 -15 -32.5 -22t-37.5 -7l-158 1v-61h130q11 -1 21 -3t20 -6t19 -9.5
t17 -13.5q6 -6 11 -12.5t9 -14.5q2 -4 3.5 -8t2.5 -7l2 -8l2 -8v-1.5v-0.5v-1.5v-1.5v-2v-2q-1 -10 -3 -19t-6 -18t-9 -17t-13 -15t-17 -12t-19 -9t-19.5 -6t-19.5 -2l-131 1v-62h150q11 -1 21.5 -3t20.5 -6t19 -9.5t17 -13.5q7 -6 12 -13t9 -15t6.5 -16.5t3.5 -16.5v-1.5
v-0.5v-1.5v-1.5v-2v-2q0 -10 -2 -19t-6 -18t-9 -17t-13 -15t-17 -12.5t-19 -9.5t-19.5 -5.5t-20.5 -1.5h-269q-16 0 -31.5 4.5t-30.5 14.5t-25.5 23.5t-18.5 30.5v1v0z" />
    <glyph glyph-name="F" unicode="F" horiz-adv-x="504" 
d="M145 -13q-24 1 -44.5 9t-37.5 24q-17 17 -25.5 37.5t-8.5 44.5v501q0 24 8.5 45t25.5 37q17 17 37.5 25.5t45.5 8.5l273 1q10 -1 19.5 -3t19.5 -6q9 -4 18 -9.5t16 -13.5q7 -7 12 -15t9 -17t6 -18.5t2 -19.5t-2 -19.5t-6 -18.5q-4 -10 -9.5 -18t-13.5 -16q-7 -7 -16 -12
t-18 -9t-18.5 -6t-19.5 -2l-157 1v-71h133q20 -1 37.5 -8.5t32.5 -22.5q14 -15 21.5 -32.5t7.5 -37.5v0v0v0v0v-1v0v0v0q-1 -21 -8.5 -38.5t-21.5 -31.5q-15 -14 -32.5 -21t-37.5 -7l-132 1v-145q0 -25 -8.5 -45.5t-25.5 -37.5q-17 -16 -37.5 -24t-44.5 -8v-1v0z" />
    <glyph glyph-name="G" unicode="G" horiz-adv-x="802" 
d="M468 197q15 2 27 6t20 8q8 5 14.5 11.5t11.5 13.5l-60 1q-22 -1 -40 6.5t-33 22.5t-22 33t-7 39q0 20 7.5 37.5t22.5 32.5t32.5 22.5t38.5 7.5l194 1q26 -1 46 -8t33 -21q14 -14 21 -36.5t7 -53.5q0 -7 -0.5 -15.5t-1.5 -16.5l-2 -18t-3 -19q-1 -4 -1.5 -8t-1.5 -8
t-2 -7.5t-2 -7.5t-2.5 -8t-3.5 -7q-1 -4 -2.5 -8t-3.5 -8q-1 -4 -3 -8t-4 -7l-4 -8l-4 -8q-22 -40 -53 -70.5t-72 -52.5q-40 -22 -87.5 -32.5t-101.5 -10.5q-11 0 -22.5 0.5t-22.5 1.5t-22.5 2.5t-22.5 3.5q-52 7 -96 25.5t-81 46.5q-37 29 -64.5 65t-45.5 79
q-7 17 -13 34.5t-9 35.5q-4 17 -5.5 34.5t-1.5 35.5q0 45 11.5 88.5t35.5 85.5q23 41 57 75.5t78 62.5q23 14 48 25.5t53 18.5q27 8 56 11.5t60 3.5h5.5h5.5q2 -1 5 -1h6h5.5h5.5q2 -1 5 -1h6q13 -1 25.5 -3t25.5 -4q13 -3 25.5 -6t25.5 -7q14 -4 26 -9.5t23 -10.5t21 -10.5
t20 -10.5q14 -9 25 -18t20 -18q5 -4 9 -9t7 -9q4 -5 7 -9.5t5 -9.5q3 -6 5.5 -12t3.5 -11q2 -6 2.5 -11.5t0.5 -10.5q0 -10 -2 -19t-7 -18q-4 -9 -11 -16.5t-15 -15.5q-7 -6 -13.5 -10t-14.5 -7q-7 -3 -15.5 -4t-16.5 -1q-7 0 -13.5 1t-13.5 2q-7 2 -13.5 4t-14.5 5l-1 1
l-42 22q-1 0 -2.5 0.5t-2.5 1.5l-3 1.5l-3 1.5q-1 1 -2.5 1.5t-2.5 1.5q-2 0 -3 0.5t-2 1.5q-16 7 -31 12t-29 9q-14 3 -27.5 5t-26.5 2q-32 0 -59 -9.5t-49 -28.5t-35.5 -45t-18.5 -58q0 -1 -0.5 -2l-0.5 -1q-1 -1 -1 -2v-2v-2v-1v-2v-2q-1 -2 -1 -4v-4v-2.5v-3.5v-7.5
t1 -7.5q0 -4 0.5 -8t1.5 -8q6 -32 20.5 -57.5t36.5 -43.5q22 -19 49 -28t60 -9h12.5t13.5 1q6 1 12.5 2.5t13.5 2.5v1v0z" />
    <glyph glyph-name="H" unicode="H" horiz-adv-x="749" 
d="M63 24q-8 7 -14 17t-11 20q-4 11 -6.5 22t-2.5 22v507q0 10 2.5 21.5t6.5 21.5q5 11 11 20.5t14 17.5t18 14.5t20 10.5q11 5 22 7t22 2q11 -1 22.5 -3t21.5 -7q11 -4 20.5 -10.5t17.5 -14.5t14.5 -17.5t10.5 -20.5q5 -10 7 -21.5t2 -22.5v-144h227v145q0 10 2.5 21.5
t6.5 21.5q5 11 11 20.5t14 17.5t18 15t21 11q11 5 22 7t22 2h2h2h3.5h2.5q5 -1 9.5 -2t9.5 -2q4 -1 9 -3t9 -4q9 -4 18 -9.5t16 -13.5q8 -8 14.5 -17.5t10.5 -20.5q5 -10 7 -21.5t2 -22.5v-505q0 -12 -2 -23t-7 -22q-4 -10 -10.5 -20t-14.5 -18q-8 -9 -17.5 -15t-20.5 -9
q-10 -4 -21.5 -6t-22.5 -2h-1.5h-0.5h-1.5h-1.5h-1.5h-0.5h-1.5h-1.5q-10 1 -19.5 3.5t-18.5 5.5q-9 4 -17 10t-16 13q-8 8 -14 17.5t-11 19.5q-4 11 -6.5 22t-2.5 23v161h-229v-160q0 -13 -2 -24t-7 -22q-4 -10 -10.5 -19.5t-14.5 -17.5q-7 -7 -16 -13t-18 -10
q-4 -1 -9 -2.5t-9 -2.5q-5 -1 -9.5 -2t-9.5 -2h-2.5h-3.5h-2h-2q-11 0 -22 2t-22 6q-10 3 -20 9t-18 15v1v0z" />
    <glyph glyph-name="I" unicode="I" horiz-adv-x="289" 
d="M63 25q-8 7 -14 17t-11 20q-4 11 -6.5 22t-2.5 23v505q0 23 8.5 43.5t25.5 37.5t37.5 25t44.5 8t44.5 -8.5t36.5 -25.5q17 -17 25.5 -37.5t8.5 -44.5v-504q0 -12 -2 -23t-7 -22q-4 -10 -10.5 -20t-14.5 -18q-9 -8 -18 -14t-20 -9q-10 -4 -21.5 -6t-22.5 -2h-1.5h-0.5
h-1.5h-1.5h-1.5h-0.5h-1.5h-1.5q-10 1 -19.5 3.5t-18.5 5.5q-9 4 -17 10t-16 13v1v0z" />
    <glyph glyph-name="J" unicode="J" horiz-adv-x="489" 
d="M190 188q1 -1 1.5 -1h1.5h1.5h1.5q8 0 15 3.5t11 10.5q5 8 7 20t2 30v361q0 10 2.5 21.5t6.5 21.5q5 11 11 20.5t14 17.5t18 14.5t20 10.5q11 5 21.5 7t21.5 2q5 0 10.5 -1t11.5 -2q5 -1 10.5 -3t10.5 -4q11 -4 20 -10.5t17 -14.5t14 -17.5t10 -20.5q5 -11 7 -22.5
t2 -22.5v-357q0 -62 -16.5 -109.5t-49.5 -82.5t-78 -51.5t-101 -16.5h-10.5h-10.5t-10.5 0.5t-10.5 1.5t-10.5 1.5t-10.5 1.5t-10.5 2t-10.5 1q-33 7 -57 18.5t-41 27.5q-16 16 -25 33t-10 35v0.5t-1 1.5v0.5v1.5v1.5v1.5v0.5v1.5q0 5 0.5 10.5t2.5 11.5q1 6 2.5 11.5
t4.5 10.5q7 11 15 20t18 15t21.5 9t24.5 3q5 0 10 -0.5t10 -1.5t11 -2t12 -3h0.5h1.5q0 -1 0.5 -1h1.5h0.5h1.5q0 -1 0.5 -1h0.5q1 -1 2 -1.5t2 -0.5h1.5h1.5l15 -5l14 -6q1 -2 2.5 -2.5t3.5 -0.5t5.5 -0.5t7.5 -1.5v1v0z" />
    <glyph glyph-name="K" unicode="K" horiz-adv-x="681" 
d="M63 25q-8 7 -14 17t-11 21q-4 11 -6.5 22t-2.5 23v506q0 22 8.5 42.5t25.5 37.5t37.5 25t45.5 8q24 -1 44.5 -9.5t36.5 -25.5q17 -17 25 -37.5t8 -43.5v-142l203 220q4 3 8 6.5t8 6.5t8.5 6t9.5 6q2 1 3.5 1.5t2.5 1.5q2 0 3.5 0.5t2.5 1.5l6 2t7 2h3.5t2.5 1h3.5h2.5
h3.5t2.5 1h3.5h2.5q17 0 32 -4.5t30 -13.5t26 -21.5t18 -29.5q2 -7 4.5 -13.5t3.5 -12.5q2 -6 2 -12v-12q0 -11 -2 -21.5t-6 -19.5q-4 -10 -9 -18t-12 -14l-158 -149l181 -201q8 -9 13 -18t9 -19q3 -10 5 -20t2 -20q0 -13 -3 -25t-8 -24q-6 -12 -14 -22t-19 -18
q-5 -4 -10.5 -7t-10.5 -6l-6 -2t-5 -2h-3.5t-2.5 -1q-2 0 -3 -0.5t-3 -0.5q-4 -1 -7.5 -1.5t-7.5 -1.5h-4t-3 -1h-4h-4q-13 0 -25 2.5t-23 6.5q-12 5 -21 11.5t-16 15.5l-223 271v-193q0 -13 -2 -24t-7 -22q-4 -10 -10.5 -20t-14.5 -18q-7 -7 -16 -13t-18 -10q-4 -1 -9 -2.5
t-9 -2.5q-5 -1 -9.5 -2t-9.5 -2h-2.5h-3.5h-2h-2h-1.5h-0.5h-1.5h-1.5h-1.5h-0.5h-1.5h-1.5q-10 1 -19.5 3.5t-18.5 5.5q-9 4 -17 10t-16 13v1v0z" />
    <glyph glyph-name="L" unicode="L" horiz-adv-x="512" 
d="M150 0q-26 0 -48 8t-39 26q-17 17 -25.5 39.5t-8.5 50.5v488q0 10 2.5 21.5t6.5 21.5q5 11 11 20.5t14 17.5t18 14.5t20 10.5q11 5 22 7t22 2h2h2h3.5h2.5q5 -1 9.5 -2t9.5 -2q4 -1 9 -3t9 -4q9 -4 18 -9.5t16 -13.5q8 -8 15 -17.5t11 -20.5q5 -11 7 -22.5t2 -22.5v-411
h169q20 -1 37.5 -8.5t31.5 -21.5q14 -15 21.5 -32.5t7.5 -38.5v0v0v0v0v-1v0v0v0q-1 -21 -8.5 -38.5t-21.5 -31.5t-31 -20.5t-37 -6.5h-280v0v0z" />
    <glyph glyph-name="M" unicode="M" horiz-adv-x="931" 
d="M11 89l-0.5 1t-0.5 2v1v2v4v4v6v6v3t1 3q0 1 0.5 2.5t0.5 2.5l82 476q3 20 11 38t20 33t27 26t33 18q4 2 8 3l8 2q3 1 7 2l8 2q8 2 15.5 2.5t14.5 0.5q25 0 47.5 -7.5t42.5 -22.5t33.5 -34.5t20.5 -44.5l74 -250l74 251q8 24 21.5 43.5t33.5 34.5t42.5 22.5t47.5 7.5
q8 0 15.5 -0.5t14.5 -2.5q8 -1 15.5 -3.5t15.5 -5.5q18 -7 33 -18t27 -26t19.5 -33t11.5 -39l81 -474v-5t1 -3v-3.5v-3.5v-3t1 -4v-3v-4v-1.5v-1.5v-1.5v-0.5v-1.5v-1.5v-1.5v-0.5q-2 -21 -11 -38t-26 -31q-16 -13 -35.5 -19.5t-40.5 -6.5h-4.5t-4.5 1q-3 0 -5.5 0.5
t-4.5 0.5t-4.5 0.5t-4.5 1.5q-3 0 -5.5 0.5t-4.5 1.5q-16 4 -28.5 12.5t-23.5 21.5q-10 12 -16 26t-8 30l-35 288l-92 -301q-6 -20 -12 -33.5t-14 -22.5q-7 -9 -16.5 -15t-20.5 -9q-5 -2 -10.5 -3.5t-10.5 -2.5t-10 -1.5t-10 -0.5q-16 1 -31 6.5t-27 15.5q-12 11 -21.5 27
t-15.5 38l-93 302l-34 -287q-2 -17 -8 -31t-17 -26q-10 -13 -23 -21.5t-28 -12.5q-5 -2 -10 -2.5t-10 -1.5q-2 0 -4.5 -0.5t-4.5 -0.5q-3 -1 -5.5 -1h-4.5q-22 0 -40.5 6.5t-34.5 19.5q-16 14 -25.5 31t-11.5 38v1v0z" />
    <glyph glyph-name="N" unicode="N" horiz-adv-x="756" 
d="M64 28q-8 8 -14.5 18.5t-11.5 22.5q-4 12 -6.5 24t-2.5 25v493q0 18 4.5 34.5t14.5 31.5q10 14 23.5 24.5t29.5 17.5q2 1 4.5 2t5.5 2t6 1.5t6 1.5h2t3 1h2.5h2.5h3t3 1h2.5h2.5q13 0 25.5 -3.5t24.5 -10.5t24 -17t24 -24l254 -297v235q0 10 2.5 21.5t6.5 21.5
q5 11 11.5 20.5t14.5 17.5t18 14.5t20 10.5q11 5 22 7t22 2q5 0 10.5 -0.5t11.5 -1.5q5 -1 10.5 -3t10.5 -4q11 -4 20 -10.5t17 -14.5t14.5 -17.5t10.5 -20.5q5 -10 7 -21.5t2 -22.5v-503v-3.5v-3.5v-1.5v-1.5q-1 -1 -1 -1.5v-0.5v-1.5v-1.5q-1 -1 -1 -1.5v-1.5v-2.5v-3.5
q-4 -21 -13.5 -37.5t-26.5 -28.5q-16 -13 -35 -18.5t-39 -5.5h-2.5h-2.5q-2 1 -3 1h-2h-2.5h-2.5q-2 1 -3 1h-2q-5 1 -10 2.5t-10 2.5t-10 3t-10 5q-4 2 -8 5l-8 6t-7 6.5t-6 7.5l-262 319v-244q0 -13 -2 -24t-7 -22q-4 -10 -10.5 -20t-14.5 -18t-17 -14t-20 -10
q-5 -1 -10.5 -2.5t-10.5 -2.5q-6 -1 -11.5 -1.5t-10.5 -0.5q-11 0 -22 2t-22 5q-10 5 -20 11.5t-18 15.5v1v0z" />
    <glyph glyph-name="O" unicode="O" horiz-adv-x="806" 
d="M87 154q-15 20 -27 42.5t-20 46.5q-8 23 -12.5 47t-6.5 48q-1 2 -1 4.5v5.5v3v3v2.5v2.5v4.5v5.5v3v3q0 1 0.5 2.5t0.5 2.5q1 12 2.5 24t3.5 24q2 11 5.5 23t7.5 24q8 23 20 45.5t27 44.5q26 38 60.5 68t76.5 52t86.5 33t92.5 11q47 0 92 -11t87 -33t76 -52t61 -68
q15 -22 26.5 -44.5t19.5 -45.5t13.5 -46.5t6.5 -46.5v-2.5t1 -3.5v-2.5v-3.5v-6v-6q0 -27 -4.5 -53t-12.5 -52q-9 -26 -21 -51t-29 -49q-27 -39 -61 -69t-76 -51q-42 -22 -87 -32t-92 -10q-48 0 -92.5 10t-86.5 32q-42 21 -76.5 51t-60.5 69v1v0zM249 360q0 -38 11.5 -69
t33.5 -54q23 -24 50 -35.5t58 -11.5h7.5t7.5 1q4 0 7.5 0.5t7.5 1.5q27 5 49.5 19.5t40.5 36.5q18 23 27 50.5t9 58.5v4v4q-1 2 -1 4v4q0 4 -0.5 8t-1.5 8q-5 31 -18.5 56t-34.5 44q-22 19 -46.5 28.5t-52.5 9.5q-32 0 -59 -12t-50 -36q-22 -24 -33.5 -54t-11.5 -67v1v0z
" />
    <glyph glyph-name="P" unicode="P" horiz-adv-x="638" 
d="M62 28q-8 7 -14 17t-11 20q-4 11 -6 22t-2 23v484q0 28 8 51t24 40q17 17 37.5 25.5t45.5 8.5l215 1q62 -1 112 -19.5t89 -56.5q38 -37 57 -83t18 -100q-1 -51 -18 -93.5t-49 -76.5t-75.5 -54.5t-98.5 -26.5q-3 -1 -6 -1.5t-6 -0.5h-5.5h-4.5q-1 0 -2.5 -0.5t-2.5 -0.5
h-3h-3h-2.5h-2.5h-3h-3l-90 1v-99q0 -13 -2 -24t-7 -22q-4 -11 -11 -21t-15 -18t-17 -14t-20 -10q-5 -1 -10.5 -2.5t-10.5 -2.5q-6 -1 -11.5 -1.5t-10.5 -0.5q-11 0 -22 2t-22 5q-11 5 -21 11.5t-18 15.5v1v0zM260 408h92q5 -1 10.5 0t10.5 3t9.5 5t8.5 7t7 8.5t5 9.5
t3.5 10.5t1.5 10.5v2v2v0.5v1.5q-1 0 -1 0.5v1.5q-1 4 -2 7.5t-3 7.5t-4.5 7.5t-5.5 6.5q-4 4 -9 7t-10 5t-10.5 3t-10.5 1l-92 1v-108v0v0z" />
    <glyph glyph-name="Q" unicode="Q" horiz-adv-x="836" 
d="M542 704q57 -23 102 -57.5t76 -81.5q32 -47 48.5 -96.5t17.5 -102.5v-2.5v-3.5v-2v-2q0 -26 -4 -51.5t-12 -50.5t-20 -48.5t-28 -45.5l68 -67q7 -8 12 -16t9 -17q2 -4 3 -9t2 -9q1 -5 1.5 -9.5t0.5 -9.5q0 -6 -1 -12t-2 -11l-2 -6l-2 -6q-4 -9 -9 -17.5t-12 -15.5
q-7 -8 -16 -14.5t-19 -10.5t-19.5 -6t-19.5 -2h-1.5h-0.5h-1.5h-1.5h-2h-2q-8 1 -15.5 3.5t-15.5 5.5q-7 4 -14 8.5t-13 10.5l-77 76l-8 -3l-22 -8q-20 -8 -39 -12t-37 -6q-18 -3 -35 -4.5t-34 -1.5q-13 0 -26 1t-25 3q-13 1 -25 3t-24 6q-2 0 -4 0.5t-4 1.5q-3 1 -5 1.5
t-4 1.5q-4 2 -8 3.5t-8 2.5q-27 10 -52 24t-48 32q-22 18 -41.5 38.5t-35.5 43.5q-15 21 -27 43.5t-20 45.5t-12.5 46.5t-6.5 47.5q-1 3 -1 6v6v6v6q0 26 4 52.5t13 52.5q8 26 21 51t29 49q27 39 61.5 69t76.5 52q42 21 86.5 32t91.5 11h4.5h4.5q2 -1 4.5 -1h4.5h4.5h4.5
q2 -1 4.5 -1h4.5q4 -1 8.5 -1.5t8.5 -0.5q5 -1 9.5 -1.5t8.5 -1.5q8 -1 16.5 -3.5t17.5 -4.5t17.5 -5t16.5 -6v1v0zM249 360q0 -33 9 -60.5t27 -50.5q18 -22 40 -36.5t48 -19.5q4 -1 8 -1.5t8 -0.5q5 -1 8.5 -1h7.5q20 0 38.5 5t35.5 15q17 11 31 26t25 35q5 10 9 20.5
t7 20.5q3 11 4.5 22.5t1.5 24.5q0 37 -11 67t-34 54q-22 24 -49.5 36t-59.5 12t-59 -12t-50 -36q-22 -24 -33.5 -54t-11.5 -67v1v0z" />
    <glyph glyph-name="R" unicode="R" horiz-adv-x="645" 
d="M144 -9q-24 1 -44 9.5t-37 24.5q-17 17 -25.5 37.5t-8.5 44.5v492q0 27 7.5 49t23.5 38q16 17 37.5 25t48.5 8l219 1q52 -1 94.5 -13t75.5 -36t54 -56.5t31 -73.5q2 -8 3.5 -16t2.5 -16t1.5 -16t0.5 -16q0 -24 -4.5 -46.5t-13.5 -42.5t-21.5 -37t-28.5 -31l-4 -3l-23 -18
l-14 -11l85 -112q6 -9 11 -18t8 -18q2 -4 3 -9t2 -9q0 -5 0.5 -9.5t0.5 -9.5q0 -13 -3.5 -26.5t-9.5 -25.5t-15 -22.5t-21 -18.5q-5 -4 -10.5 -6.5t-11.5 -3.5q-6 -2 -11.5 -4.5t-10.5 -3.5h-2.5t-2.5 -1h-3h-3h-2.5t-2.5 -1h-3h-3q-15 0 -28.5 4t-27.5 11q-13 8 -26 20
t-24 28l-149 221v-169q0 -25 -8.5 -44.5t-25.5 -36.5q-17 -16 -37.5 -24t-43.5 -8v-1v0zM260 434h96q8 -1 15.5 2t13.5 9t9 13.5t3 16.5v0v1v0v0v0.5v1.5v0v0v0.5v1.5q-1 8 -4 15t-8 13q-6 5 -12 8t-13 3l-100 1v-86v0v0z" />
    <glyph glyph-name="S" unicode="S" horiz-adv-x="618" 
d="M79 34q-3 1 -6 2.5l-5 2.5q-3 2 -5.5 4t-4.5 4q-13 9 -21.5 18t-13.5 19q-5 9 -7.5 21t-2.5 25v0.5v1.5v0.5v1.5v0v1v0.5v1.5q0 8 1.5 15.5t3.5 14.5t5 13t7 12q8 11 15.5 19.5t16.5 13.5q8 5 18 7t22 2h4h4q2 -1 4 -1h4q4 -1 8.5 -1.5t9.5 -1.5l44 -11l40 -10l29 -7
l11 -3q2 -2 4.5 -2.5t4.5 -0.5h2h2q1 -1 2 -1h2q5 -1 10.5 -1.5t9.5 -0.5q5 -1 8.5 -1h7.5t7.5 0.5t7.5 1.5q3 0 6 0.5t6 1.5q2 1 4.5 1.5t3.5 1.5h2t2 1l1 0.5t2 1.5h1.5t1.5 1l0.5 0.5t1.5 0.5q1 1 2 1.5t2 1.5l4 4t3 4t1.5 4.5t0.5 5.5q-1 2 -1.5 4.5t-1.5 4.5
q-1 1 -1.5 2t-1.5 2q-1 0 -2 1l-2 2h-0.5t-1.5 1h-0.5h-1.5t-2 0.5t-2 1.5l-19 7l-13 4l-53 13l-10 2l-66 19q-16 3 -29 7.5t-24 9.5t-21 10t-18 10q-21 13 -36.5 30t-26.5 38t-16.5 43.5t-5.5 46.5v9.5t1 8.5q0 5 1 10l2 10q2 14 7 28t12 28t16 27t20 26q16 17 36.5 32
t45.5 27q26 12 55 20.5t62 12.5h3.5t3.5 1h3h3h3.5t3.5 1h3h4h3.5t2.5 1h3.5h2.5h6.5h7.5q14 0 27.5 -1t26.5 -3q14 -1 26.5 -4t25.5 -7q29 -9 50.5 -18.5t34.5 -20.5q14 -10 23 -23t13 -28q2 -4 2.5 -8.5t1.5 -9.5v-4.5t1 -4.5v-4v-4q0 -7 -1 -14.5t-3 -14.5t-5 -13t-7 -11
q-7 -11 -16 -19t-18 -13t-20 -7.5t-24 -2.5q-7 0 -14 0.5t-15 1.5q-7 2 -15.5 3.5t-17.5 4.5l-8 4l-29 9l-12 3l-28 7l-14 3l-10 2q-1 -1 -1.5 -1h-1.5h-2t-1 1h-2h-2h-1.5h-1.5h-1.5h-0.5h-1.5h-0.5h-1.5h-0.5h-1.5h-0.5q-6 0 -10.5 -0.5t-7.5 -1.5q-4 -1 -7 -2.5t-5 -3.5
t-3.5 -4.5t-3.5 -4.5q-1 -2 -1.5 -4t-0.5 -4t0.5 -3.5t1.5 -3.5l2 -2l2 -2q2 -1 3.5 -2t3.5 -2t4 -1.5t5 -1.5l49 -12l30 -7l8 -2l58 -16q13 -5 25 -8.5t22 -8.5q5 -2 10.5 -4t10.5 -4q5 -3 10 -5t9 -4q27 -14 47.5 -33t34.5 -43t21.5 -49t7.5 -52v-4.5v-4.5q-1 -3 -1 -5.5
v-4.5q-1 -4 -1.5 -8.5t-0.5 -9.5q-3 -14 -8 -28t-11 -28q-7 -13 -15 -26.5t-19 -25.5q-21 -25 -47 -43.5t-58 -32.5q-31 -13 -68 -19t-81 -6h-5.5h-4.5q-3 1 -5.5 1h-5.5h-6h-5q-3 1 -5.5 1h-5.5q-33 2 -60 5t-49 9q-22 5 -38.5 11.5t-28.5 13.5v1v0z" />
    <glyph glyph-name="T" unicode="T" horiz-adv-x="573" 
d="M-8 622q2 19 9 36.5t21 31.5t31.5 21.5t37.5 7.5l391 1q20 -1 37.5 -8.5t32.5 -22.5q14 -15 21.5 -32.5t7.5 -38.5v0v0v0v0v-1v0v0v0q-1 -21 -8.5 -38.5t-21.5 -31.5q-15 -14 -32 -21t-37 -7l-84 1v-415q0 -24 -8.5 -43.5t-25.5 -36.5q-16 -16 -36.5 -24t-43.5 -8
q-24 0 -44.5 8t-37.5 24q-16 17 -24.5 37t-8.5 44v416h-79q-21 -1 -38 6t-31 22q-14 14 -20.5 31.5t-6.5 38.5v0v0v0v1v0v0v0v0l-2 1v0z" />
    <glyph glyph-name="U" unicode="U" horiz-adv-x="769" 
d="M321 -3q-72 10 -126.5 37t-91.5 70q-37 42 -55.5 96.5t-18.5 121.5v289q0 10 2 21.5t6 22.5q5 11 11 20.5t14 17.5q8 9 18 15.5t21 10.5q11 5 22 7t23 2h1.5h1.5h0.5h1.5h1.5h1.5q1 -1 1.5 -1h1.5q9 -1 18 -3t18 -7q9 -4 17 -9.5t15 -12.5q8 -8 15 -17.5t11 -20.5
q5 -11 7 -22.5t2 -22.5v-296q0 -26 6.5 -47t19.5 -38q14 -16 32 -26.5t42 -14.5q2 -1 3.5 -1.5t2.5 -0.5h3.5h3.5h3.5h2.5h3.5h2.5h6h6t6 0.5t6 1.5q23 4 41.5 14.5t31.5 26.5q14 17 20.5 38t6.5 46v298q0 10 2.5 21.5t6.5 22.5q5 11 11.5 20.5t14.5 17.5t17.5 14.5
t19.5 10.5q11 4 21.5 6t21.5 2t22.5 -2t21.5 -7q11 -4 20.5 -11t17.5 -15t14.5 -17.5t10.5 -20.5q5 -11 7 -22.5t2 -22.5v-287q0 -68 -18.5 -122.5t-56.5 -96.5q-37 -43 -91.5 -69.5t-126.5 -36.5q-8 -2 -16 -2.5t-16 -1.5h-8t-8 -1h-8h-8h-8t-7 1q-4 0 -8 0.5t-8 0.5
t-8 0.5t-7 0.5q-4 1 -8 1.5t-8 0.5v-1v0z" />
    <glyph glyph-name="V" unicode="V" horiz-adv-x="666" 
d="M53 716q2 0 3.5 0.5t2.5 1.5q2 0 3.5 0.5t2.5 1.5q3 2 6.5 2.5t7.5 1.5q2 0 3.5 0.5t3.5 0.5q1 1 3 1h3h3.5t3.5 1h3h3q17 0 33 -5t31 -15t25.5 -24t17.5 -31l117 -323l118 324q6 16 16.5 30t25.5 24t31 15t34 5h6t7 -1q3 0 6 -0.5t6 -1.5q6 -1 12.5 -3.5t13.5 -5.5
q16 -8 28 -19t21 -25q8 -13 12.5 -28t4.5 -30q0 -6 -0.5 -11.5t-1.5 -10.5t-3 -10.5t-4 -10.5l-224 -502q-7 -17 -15 -29.5t-16 -20.5q-9 -9 -19 -14t-21 -8q-5 -2 -10.5 -2.5t-10.5 -1.5t-10 -1.5t-10 -0.5q-18 0 -33 5t-29 13q-13 10 -24.5 25t-19.5 34l-224 504
q1 1 0 3.5t-2 5.5t-1.5 6t-1.5 6v2t-1 3v2.5v2.5v3t-1 3v2.5v2.5q0 16 4.5 31t11.5 28q8 14 20 24.5t28 18.5v1v0z" />
    <glyph glyph-name="W" unicode="W" horiz-adv-x="1014" 
d="M135 119l-130 473q-1 1 -1.5 3.5t-0.5 5.5q0 2 -0.5 3t-0.5 3v2.5v2.5v3v3q0 1 0.5 2.5t0.5 2.5v3t1 3q0 1 0.5 2.5t0.5 2.5q2 10 6.5 19.5t10.5 19.5q6 9 13.5 17t17.5 15q5 4 11 7t13 6t14 5t14 3h2t2 1h1h2h4h4q20 0 37 -6.5t32 -19.5t26 -31t18 -41l85 -290l85 300
q5 17 12 31t15 24t17.5 17t20.5 11q2 1 4.5 1.5t5.5 1.5q2 1 4.5 1.5t4.5 0.5q5 1 10 1.5t10 0.5q17 0 32 -6t28 -18q14 -12 23.5 -28.5t16.5 -38.5l85 -299l85 291q7 22 18 40t26 31t32.5 19.5t37.5 6.5h3.5h2.5h2h2q1 -1 2 -1h2q7 -1 13.5 -2.5t13.5 -4.5t13 -6.5t12 -7.5
q9 -7 16.5 -14.5t13.5 -16.5t10.5 -18.5t7.5 -19.5v-3t1 -3q0 -2 0.5 -3.5t0.5 -3.5v-2.5t1 -3.5v-2.5v-3.5v-2.5v-2.5q-1 -2 -1 -3v-2q0 -3 -0.5 -5.5t-1.5 -4.5l-130 -471q-9 -33 -23 -57t-34 -40q-19 -16 -43 -23t-52 -7q-25 1 -47.5 7.5t-42.5 21.5q-19 14 -33 34
t-22 45l-73 230l-73 -230q-8 -26 -22 -46t-34 -34q-19 -15 -41.5 -21.5t-47.5 -7.5q-28 0 -51.5 7t-43.5 23q-19 16 -33.5 40t-23.5 56v1v0z" />
    <glyph glyph-name="X" unicode="X" horiz-adv-x="640" 
d="M49 12q-13 7 -22.5 17.5t-15.5 23.5q-7 13 -9.5 26.5t-2.5 27.5q0 5 0.5 9t0.5 9q1 4 2 8.5t2 8.5q2 8 6.5 16.5t10.5 16.5l165 212l-131 151q-7 7 -13 16.5t-10 19.5t-5.5 20t-0.5 20q0 6 0.5 12t1.5 12q2 5 3.5 11t4.5 12q5 11 13.5 21t18.5 18q8 7 16.5 12t17.5 8
t18 5t18 2h3.5h3.5q1 -1 3 -1h3q3 -1 6.5 -1.5t7.5 -1.5q5 -1 10 -3.5t11 -4.5l10 -6t10 -7q10 -7 19.5 -16.5t18.5 -21.5l76 -98l76 99q10 11 20.5 21.5t20.5 17.5q5 4 10.5 7t11.5 5q5 3 10.5 5t10.5 3q2 0 3 0.5t3 0.5q1 1 2.5 1h2.5h3t3 1h2.5h2.5q5 0 9 -0.5t9 -1.5
q4 -1 8.5 -2t8.5 -3q9 -3 17.5 -8t16.5 -12q11 -9 19 -19t14 -21q3 -6 4.5 -12t3.5 -11q1 -6 1.5 -12t0.5 -12q0 -10 -2 -20t-5 -20q-4 -10 -9 -19t-13 -17l-132 -150l165 -211q6 -9 10.5 -17.5t7.5 -17.5t4.5 -18t1.5 -18q0 -13 -3.5 -26.5t-9.5 -25.5q-7 -13 -16.5 -23.5
t-21.5 -18.5q-4 -3 -8 -5t-7 -4q-4 -2 -8 -3l-8 -2q-8 -2 -16.5 -3.5t-16.5 -1.5q-14 1 -27.5 4.5t-27.5 10.5q-13 8 -25 19.5t-23 27.5l-104 155l-104 -154q-11 -17 -23 -28.5t-26 -19.5q-13 -7 -27 -11t-28 -4h-2.5h-2.5q-2 1 -3 1h-3q-3 1 -5.5 1.5t-4.5 0.5
q-6 1 -11.5 2.5t-10.5 2.5q-5 2 -10 4.5t-10 6.5v1v0z" />
    <glyph glyph-name="Y" unicode="Y" horiz-adv-x="641" 
d="M38 703q8 5 16.5 9.5t17.5 7.5q8 3 16.5 5t17.5 2q13 -1 26 -4.5t26 -10.5t25 -17.5t24 -24.5l113 -137l114 138q8 9 17 17t18 15t18 11.5t19 7.5q3 2 6.5 2.5t7.5 1.5h4t4 1h3h4q5 0 9 -0.5t9 -1.5q4 -1 8.5 -2t8.5 -3q8 -3 16.5 -7.5t16.5 -10.5q5 -4 9 -7.5t8 -8.5
q4 -4 7.5 -9.5t6.5 -10.5l2 -4t2 -3q0 -2 1 -4l2 -4t1.5 -4t1.5 -3q0 -2 0.5 -3.5t1.5 -3.5q1 -4 1.5 -8t1.5 -8v-4t1 -3v-3.5v-3.5q-1 -10 -2.5 -18.5t-4.5 -16.5t-7 -15t-9 -13l-191 -206v-230q0 -13 -2 -23.5t-7 -21.5q-4 -10 -10 -20t-14 -18q-9 -9 -18.5 -15.5
t-20.5 -9.5q-10 -5 -21.5 -7t-22.5 -2t-22 2t-22 7q-10 3 -20 9.5t-18 15.5q-8 8 -14 18t-11 20q-4 11 -6 21.5t-2 22.5v231l-191 207q-6 5 -10 12t-5 15q-3 8 -4.5 16.5t-1.5 18.5q0 3 0.5 6.5t1.5 7.5t1.5 8t1.5 8q1 3 1.5 6.5t1.5 7.5t2.5 7.5t3.5 7.5q3 5 6 10.5t7 9.5
q4 5 8.5 8.5t9.5 7.5v1v0z" />
    <glyph glyph-name="Z" unicode="Z" horiz-adv-x="700" 
d="M16 122q2 5 3.5 11t3.5 11t5 9.5t6 8.5l283 359h-191q-10 -1 -20 1t-19 6q-10 4 -18 9.5t-15 12.5q-7 8 -12.5 16t-9.5 17t-5.5 18t-1.5 19t2 19.5t6 18.5t10 17.5t13 15.5t15 12t17 9q9 3 18.5 5t19.5 2l415 1q2 -1 3.5 -1h2.5q2 -1 3.5 -1h2.5q3 0 6 -0.5t6 -1.5
q20 -4 35 -14t26 -24q11 -15 16.5 -30t5.5 -32v-2.5v-2.5q-1 -2 -1 -3v-2v-2.5v-2.5q-1 -2 -1 -3v-2q-1 -3 -1.5 -5.5t-1.5 -4.5q-1 -3 -2 -5.5t-2 -4.5q-2 -4 -4.5 -7.5t-4.5 -6.5q-1 -1 -2 -3t-2 -3q-2 -2 -3 -3.5t-2 -3.5l-280 -350h245q20 -1 37.5 -8.5t32.5 -21.5
q14 -15 21.5 -32.5t7.5 -38.5t-7.5 -38.5t-22.5 -31.5q-15 -15 -32.5 -21.5t-37.5 -6.5h-463q-25 0 -44.5 6.5t-34.5 21.5q-15 14 -22.5 32t-7.5 39v1.5v1.5v0.5t1 1.5v0.5v1.5v2v2v1v2q0 2 0.5 4t1.5 4v1v0z" />
    <glyph glyph-name="bracketleft" unicode="[" horiz-adv-x="500" 
 />
    <glyph glyph-name="backslash" unicode="\" horiz-adv-x="500" 
 />
    <glyph glyph-name="bracketright" unicode="]" horiz-adv-x="500" 
 />
    <glyph glyph-name="asciicircum" unicode="^" horiz-adv-x="500" 
 />
    <glyph glyph-name="underscore" unicode="_" horiz-adv-x="562" 
d="M569 0h-576v36h576v-36v0v0z" />
    <glyph glyph-name="grave" unicode="`" horiz-adv-x="312" 
d="M-4 754q4 10 10.5 18t16.5 14q9 6 19.5 9t21.5 3h3.5h3.5q1 -1 3 -1h3q3 -1 6.5 -1.5t7.5 -2.5l182 -73q10 -5 18 -11.5t14 -15.5t9 -19t3 -21q0 -4 -0.5 -7.5t-1.5 -6.5q0 -1 -0.5 -3t-1.5 -3q0 -2 -0.5 -3.5t-1.5 -3.5q-4 -10 -11 -18.5t-16 -14.5t-18.5 -9t-20.5 -2
h-7.5t-6.5 1q-3 0 -6 1.5t-6 2.5l-182 72q-11 3 -19.5 9.5t-14.5 16.5q-4 9 -7 19.5t-3 21.5v3.5v3.5q1 1 1 3v3q1 3 1.5 6.5t2.5 7.5l-2 1v0z" />
    <glyph glyph-name="a" unicode="a" horiz-adv-x="636" 
d="M233 545q3 -1 6 -0.5t7 1.5q3 0 6 0.5t6 0.5q6 1 12 1.5t12 0.5q19 0 36 -3t33 -9t29.5 -15t25.5 -20v-2l92 49q2 0 3.5 0.5t2.5 1.5q2 1 4 1.5t4 0.5h2t2 1h1h2h2t2 1h1h2q5 0 10.5 -1.5t10.5 -3.5t10 -5t9 -7q10 -10 17.5 -21.5t12.5 -24.5t8 -26.5t3 -27.5v-335
q0 -26 -7.5 -46t-22.5 -35q-15 -16 -32.5 -23t-37.5 -7h-1.5h-0.5h-1.5h-1.5q-1 1 -1.5 1h-0.5h-1.5h-1.5l-91 51v-5q-11 -12 -24.5 -21t-28.5 -15q-15 -4 -33 -7.5t-38 -3.5q-7 0 -13.5 0.5t-13.5 1.5q-4 0 -7.5 0.5t-6.5 1.5q-4 0 -7.5 0.5t-7.5 1.5q-23 3 -45.5 12
t-43.5 24t-39.5 34t-34.5 43q-10 17 -18.5 34.5t-13.5 36.5q-6 20 -8.5 40t-2.5 41v2v2v1v2v4v4q2 51 18.5 95t47.5 81t67.5 59.5t79.5 30.5v1v0zM241 265q0 -10 1 -18t4 -15q2 -7 6 -14t9 -13q5 -7 11.5 -12t13.5 -8q8 -4 15.5 -5.5t14.5 -1.5h0.5h1.5h2h2q8 1 16.5 4
t16.5 8t14.5 12t11.5 17q2 3 3.5 6.5t2.5 7.5q2 3 2.5 7t1.5 8v2t1 3v2v2v2t1 3v2v2v1.5v1.5v1.5v1.5q-1 1 -1 1.5v1.5v1.5v1.5q-2 13 -6 23.5t-10 19.5q-6 8 -13.5 14.5t-16.5 10.5q-2 1 -4 1.5t-4 1.5q-2 0 -3.5 0.5t-3.5 1.5h-2t-2 1h-2h-2h-2t-2 1h-2h-2
q-13 -1 -24.5 -6t-21.5 -14t-16.5 -21.5t-9.5 -29.5v-1.5v-0.5q-1 -1 -1 -1.5v-1.5v-2v-2v-1.5v-0.5q-1 -1 -1 -1.5v-1.5v-2v-2v1v0z" />
    <glyph glyph-name="b" unicode="b" horiz-adv-x="636" 
d="M138 -6q-1 1 -1.5 1h-1.5h-1.5t-0.5 -1h-2h-1h-1.5h-1.5q-19 0 -36 7t-32 23q-15 15 -22.5 35.5t-7.5 45.5v569q0 22 8 41.5t24 35.5t35.5 24t42.5 9q23 0 43 -8t36 -25q17 -16 25 -36t8 -43v-142q2 0 4 0.5t4 1.5t4.5 1.5t4.5 1.5q11 4 22.5 7t21.5 4q11 2 21.5 2.5
t20.5 0.5h6h6q2 -1 5 -1h6t6 -0.5t6 -0.5q2 -1 5 -1.5t6 -0.5q41 -7 75 -25t62 -46t46 -63t27 -77q1 -4 1.5 -7.5t0.5 -6.5q1 -4 1.5 -7.5t0.5 -7.5q1 -7 1.5 -14.5t0.5 -15.5q0 -53 -15.5 -99.5t-47.5 -85.5q-31 -40 -69 -63t-82 -29q-7 -1 -13.5 -1.5t-12.5 -1.5t-12 -1.5
t-11 -0.5q-20 1 -38 4t-34 8q-16 6 -30 15.5t-25 22.5v5l-88 -54v0v0zM243 266q0 -20 6 -36t17 -27q11 -12 24.5 -17.5t28.5 -5.5h2h2h2t2 1h2h2h0.5t1.5 1h0.5h1.5q12 2 22.5 9t18.5 17q8 11 12.5 25t5.5 30v1.5v1.5v1.5v1.5q0 20 -5.5 35.5t-16.5 26.5t-24 17t-28 6h-1.5
h-1.5h-2h-1h-1.5h-0.5q-1 -1 -1.5 -1h-0.5h-1.5h-1.5q-12 -2 -22.5 -7.5t-18.5 -14.5q-9 -9 -14.5 -21t-7.5 -26q-1 -3 -1 -5.5v-4.5v-4.5v-4.5v1v0z" />
    <glyph glyph-name="c" unicode="c" horiz-adv-x="550" 
d="M76 107q-10 13 -18.5 26.5t-14.5 28.5q-7 14 -11.5 29t-7.5 30q-1 3 -1.5 6t-0.5 6q-1 2 -1 5v6q-1 5 -1 10.5v11.5v0v0v0.5v1.5v0v1v0v0v0v1v0v0v6.5v7.5q0 3 0.5 6.5t1.5 7.5q2 19 7.5 37.5t14.5 37.5q8 19 19.5 36.5t24.5 33.5q5 5 10 10.5t10 10.5q3 2 5.5 4.5
l5.5 5.5q3 2 6 4.5t6 4.5q19 14 40 25.5t45 18.5q23 8 49.5 11t55.5 3h10.5h11.5t12 -0.5t12 -1.5q44 -4 75.5 -14.5t52.5 -27.5q20 -16 30 -35.5t10 -41.5v-2v-2v-2v-2v-1.5v-1.5q-1 -1 -1 -1.5v-0.5v-2v-2q-3 -19 -11 -33t-21 -25q-13 -10 -28.5 -15.5t-34.5 -5.5v0v0h-1
v0v0v0h-1v0h-1.5h-0.5v0v0h-4.5h-4.5t-4 0.5t-4 1.5l-5 2l-26 6l-13 3l-21 4q-4 0 -7.5 0.5t-6.5 0.5h-4t-3 1h-3.5h-3.5q-20 -1 -36 -6t-27 -16q-11 -10 -16.5 -23.5t-5.5 -29.5v-1.5v-1.5v-1.5v-1.5q1 -10 4 -19t7 -17q5 -7 11.5 -14t16.5 -12q5 -3 10 -4.5t10 -3.5
q5 -1 11 -2t13 -1h7.5t7.5 1q4 0 8.5 0.5t8.5 1.5l3 1l35 8q2 -1 4.5 -0.5t4.5 1.5h2t3 1h2.5h2.5h2t3 1h2h2h2t3 1h2.5h2.5h2h2h1.5h1.5h0.5h1.5q20 0 37.5 -7t31.5 -21q14 -13 21 -30t7 -37v-2v-1v-2v-2v-2v-1q-1 -1 -1 -2v-2q-4 -23 -18 -42t-38 -34q-25 -15 -64 -21
t-92 -6q-42 1 -78 7.5t-67 21.5q-31 14 -57 35t-46 49v1v0z" />
    <glyph glyph-name="d" unicode="d" horiz-adv-x="638" 
d="M371 529q2 -2 4 -2.5t4 -1.5t4.5 -2t4.5 -2v154q0 22 8 41.5t24 35.5q17 16 36.5 24t42.5 8q23 -1 42.5 -9t35.5 -24t24 -36t8 -43v-568q0 -26 -8 -46t-23 -35t-32 -22t-37 -7h-1.5h-1.5h-1.5h-0.5q-1 1 -1.5 1h-1.5h-1.5h-0.5l-92 54v-4q-11 -14 -24.5 -23.5
t-29.5 -16.5q-16 -5 -33.5 -8.5t-37.5 -3.5h-6t-5 1q-3 0 -6 0.5t-6 0.5t-6 0.5t-6 0.5q-4 1 -7 1.5t-6 0.5q-39 5 -72.5 23t-62.5 48q-28 30 -47 67t-27 81q-1 3 -1.5 6.5t-0.5 7.5q-1 3 -1.5 6.5t-0.5 7.5v3.5v3.5q-1 1 -1 3v4v6.5v7.5v8v8q0 3 0.5 7t0.5 8t1 8t1 8
q1 3 2 7l2 8q7 29 19 55.5t28 48.5q17 23 36.5 41.5t43.5 31.5q14 8 29 15t31 11q15 5 30.5 6.5t31.5 1.5q11 0 22.5 -1.5t23.5 -3.5t24 -5t25 -8v1v0zM241 271q-1 -21 4.5 -37.5t16.5 -28.5t24.5 -18t29.5 -6v0h1v0v0h0.5h1.5q14 0 25.5 5t21.5 14t16.5 23t9.5 32v2v2v0.5
t1 1.5v1.5v1.5v2v2v2v2v2v2v2v2v0.5v1.5q-1 0 -1 0.5v1.5v2v2q-3 14 -8 25.5t-13 20.5q-7 8 -17 13.5t-21 8.5h-2t-2 1h-3h-2h-2t-2 1h-2h-2q-14 0 -26 -5t-22 -14t-16.5 -22.5t-9.5 -30.5v-1.5v-0.5q-1 -1 -1 -1.5v-0.5v-2v-2v-2v-2v-2v-2v1v0z" />
    <glyph glyph-name="e" unicode="e" horiz-adv-x="621" 
d="M604 305v-2.5v-1.5v-1.5v-0.5v-1.5v-1.5v-1.5v-0.5q0 -21 -5 -36t-16 -24q-10 -9 -28 -13.5t-42 -4.5l-260 1l1.5 -3t1.5 -1q1 -1 1.5 -2t1.5 -2q2 -1 3.5 -2.5t2.5 -3.5q0 -1 1 -1.5t2 -1.5l1.5 -1.5l1.5 -1.5q8 -7 18 -12t22 -9q11 -4 25.5 -5.5t31.5 -1.5h2h2h1.5h1.5
l0.5 0.5t1.5 0.5h2h2h1.5h1.5h0.5h1.5q7 0 15 1.5t18 2.5q9 2 20 4t24 6q9 2 16.5 4t13.5 3t11 1.5t9 0.5h1.5h1.5h0.5h1.5q18 0 32.5 -6t26.5 -18t18 -25.5t6 -29.5v-1.5v-0.5v-1.5v-1.5v-1.5v-0.5q-1 -1 -1 -1.5v-0.5v-1.5v-1.5q-1 -1 -1 -1.5v-1.5v-1.5v-0.5
q-1 -1 -1 -1.5v-0.5q-4 -13 -11 -25t-18 -21q-11 -10 -29 -19t-42 -17q-9 -3 -19 -5.5t-21 -4.5q-10 -2 -22 -3.5t-24 -2.5q-9 -1 -17.5 -1.5t-16.5 -1.5h-8t-8 -1h-8h-8q-76 1 -135.5 20t-103.5 59t-66 89.5t-21 107.5v0.5v1.5v0.5v1.5v0.5v1.5v0.5v1.5q2 56 23.5 104
t63.5 87t94.5 58.5t116.5 19.5q20 -1 39.5 -3.5t38.5 -7.5q19 -4 37 -11.5t34 -16.5q23 -13 42 -29t35 -36q16 -19 28 -39.5t20 -40.5q1 -4 2 -7.5t2 -6.5q1 -4 2 -7.5t2 -7.5q2 -7 2.5 -14.5t1.5 -14.5v1v0zM255 325h119v1v2v1.5v1.5q-1 1 -1 1.5v1.5q-2 11 -7 20t-13 15
t-17 9.5t-20 3.5h-1.5h-0.5h-1.5h-1.5h-1.5h-1.5q-1 -1 -1.5 -1h-1.5q-8 -2 -15.5 -6t-13.5 -10t-11 -13.5t-8 -18.5q0 -1 -0.5 -1.5l-0.5 -0.5q-1 -1 -1 -1.5v-1.5v-2v-2v1v0z" />
    <glyph glyph-name="f" unicode="f" horiz-adv-x="362" 
d="M-4 513q7 6 15 11t17 9q9 3 19 5t20 2l5 1v52q0 43 10.5 77.5t32.5 59.5q22 24 49 36.5t58 12.5l47 1q32 -1 57 -9t44 -25q18 -16 27.5 -34.5t9.5 -38.5v-4v-3q-1 -2 -1 -3.5v-3.5q0 -1 -0.5 -3t-0.5 -3q-1 -2 -1.5 -3.5t-0.5 -3.5q-4 -16 -11.5 -27.5t-17.5 -19.5
q-10 -7 -22.5 -11.5t-26.5 -5.5h-9h-4q-1 -2 -2 -2.5t-2 -0.5h-0.5h-0.5q-1 -1 -1.5 -1h-0.5q-1 -1 -2.5 -1.5t-2.5 -1.5l-1.5 -1.5l-0.5 -0.5l-1.5 -1.5t-0.5 -1.5l-1.5 -1.5l-0.5 -0.5v-0.5v-0.5l-1 -1v0q-1 -1 -1.5 -2t-0.5 -2v-2v-2l1 -17h6q20 -1 36.5 -8t30.5 -21
t21 -31t7 -37v-1.5v-0.5v0v0v-1v0q-1 -20 -8 -37t-21 -31t-30.5 -21t-36.5 -7l-6 1v-245q0 -24 -8 -43.5t-24 -35.5t-35.5 -23.5t-42.5 -7.5q-23 1 -42.5 8.5t-36.5 23.5q-16 16 -24 35.5t-8 42.5v246h-4q-10 0 -20 3t-19 7q-9 5 -17 11t-13 13q-6 6 -10.5 12.5t-7.5 13.5
t-5 14.5t-3 14.5v1.5t-1 1.5v0.5v1.5v1.5v1.5v0.5v1.5q0 5 0.5 9t1.5 9q1 4 2 8.5t3 8.5q4 9 9 16.5t12 14.5l-2 1v0z" />
    <glyph glyph-name="g" unicode="g" horiz-adv-x="635" 
d="M233 543q7 1 13.5 1.5t13.5 1.5h6.5t6.5 1h7h6q19 0 36 -3t32 -9t28 -14.5t23 -19.5v-4l92 51q3 1 6.5 2t7.5 2q3 1 6.5 1.5t7.5 0.5h2h2h0.5h1.5q0 -1 0.5 -1h1.5q2 0 4 -0.5t5 -1.5q2 -1 4 -1.5t4 -1.5q4 -2 7.5 -5t7.5 -6q10 -10 17.5 -21.5t12.5 -25.5q5 -13 8 -27
t3 -28v-338q0 -83 -20 -146.5t-59 -107.5q-40 -44 -96 -66.5t-130 -22.5h-7.5h-7.5h-4h-3q-2 1 -4 1h-4q-23 1 -43.5 4t-38.5 8q-18 4 -33 10t-26 12q-21 11 -36 23t-25 25q-5 7 -8.5 13.5t-5.5 12.5q-3 7 -4 13.5t-1 13.5q0 5 0.5 10.5t1.5 10.5q2 5 3.5 10t4.5 10
q6 13 14.5 22.5t18.5 15.5q11 7 22 10t24 2h9.5t8.5 -1q5 -1 10 -2.5t10 -2.5l2 -1l33 -13h2t2 -1h0.5t1.5 -1h0.5h1.5v0l1 -1v0v0h0.5h1.5v0l1 -1h0.5h0.5h0.5t1.5 -1h0.5h0.5q11 -3 20 -6t16 -4q8 -2 15.5 -2.5t14.5 -0.5h1.5h1.5h1.5h1.5q1 1 1.5 1h1.5h1.5h1.5
q19 2 33 6.5t23 12.5q9 7 14.5 17.5t6.5 21.5v2t1 2v1v2v3.5v2.5q-10 -7 -21.5 -11.5t-23.5 -6.5q-13 -3 -27 -5t-29 -2h-6t-6 1q-4 0 -7 0.5t-6 0.5q-6 1 -12.5 1.5t-13.5 1.5q-11 2 -22 4.5t-22 6.5t-21.5 9t-20.5 11q-30 18 -53.5 42.5t-40.5 55.5q-16 30 -24.5 64.5
t-7.5 72.5q0 55 15.5 101.5t46.5 85.5t68.5 62.5t82.5 31.5v1v0zM241 268q0 -20 6 -35t17 -26t24 -16.5t29 -5.5h4.5t5.5 1h3t3 1q1 0 2.5 0.5t2.5 0.5q11 3 19.5 8.5t15.5 12.5q7 8 12 17.5t9 22.5v2t1 3v2.5v2.5v3t1 2v3v2v3.5v2.5v1.5v1.5q-1 1 -1 1.5v1.5
q-3 17 -9.5 30.5t-17.5 23.5q-10 9 -22 14t-26 5h-2.5h-2.5q-2 -1 -3 -1h-3q-3 0 -5.5 -0.5t-4.5 -1.5q-5 -1 -10 -3.5t-10 -5.5q-4 -3 -8.5 -6.5t-8.5 -7.5q-5 -6 -9 -12.5t-7 -13.5t-4 -15t-1 -16v0v0v-1v0v0v0v-1v0v-1.5v-0.5v0v0v1v0z" />
    <glyph glyph-name="h" unicode="h" horiz-adv-x="616" 
d="M139 -9q-23 1 -42.5 8.5t-35.5 23.5t-24 35.5t-8 42.5v575q0 22 8 41t24 35q17 16 36.5 24t42.5 9q23 0 43 -8t36 -25q17 -16 25 -35.5t8 -42.5v-159q2 0 4.5 1t5.5 3q2 1 4.5 2t4.5 2l10 4l10 4q13 4 25.5 7t25.5 5q12 2 24 3t23 1q44 0 80 -13.5t63 -40.5t41 -60
t14 -74v-259q0 -25 -8.5 -44.5t-25.5 -36.5q-16 -16 -36.5 -23t-43.5 -7q-23 1 -42.5 8.5t-35.5 23.5q-16 17 -24 36.5t-8 42.5v210q0 10 -4 20t-12 18q-7 8 -17 12t-21 5v0v0h-1v0v0v0v0v0h-1v0v0v0q-11 0 -21 -4t-18 -12t-12 -18t-4 -21v-209q0 -24 -8 -43.5t-25 -35.5
q-16 -16 -36.5 -23t-43.5 -7v-1v0z" />
    <glyph glyph-name="i" unicode="i" horiz-adv-x="286" 
d="M143 -9q-23 1 -42.5 8.5t-36.5 23.5q-16 16 -24 35.5t-8 42.5v335q0 22 8.5 42t24.5 36q17 17 36.5 24.5t42.5 7.5q23 -1 42.5 -9t35.5 -25q17 -16 25 -35.5t8 -42.5v-331q0 -24 -8 -43.5t-25 -36.5q-16 -16 -36 -23.5t-43 -7.5v-1v0zM60 603q-8 7 -14 17t-11 21
q-4 11 -6.5 22t-2.5 23t2.5 23.5t6.5 22.5q5 11 11.5 20.5t14.5 17.5q8 7 16 12.5t17 9.5q9 5 18.5 7.5t19.5 3.5h1.5t1.5 1h0.5h1.5h3.5h2.5q11 -1 22.5 -3t21.5 -7q11 -4 20.5 -10.5t18.5 -15.5q8 -9 14.5 -18.5t10.5 -20.5q5 -11 7 -22.5t2 -22.5v-2.5v-3.5v-1.5v-0.5
q-1 -1 -1 -1.5v-1.5q-1 -10 -3.5 -19.5t-7.5 -18.5q-4 -9 -9.5 -17t-12.5 -16q-9 -9 -18.5 -15t-20.5 -11q-11 -4 -22.5 -6.5t-22.5 -1.5h-2.5h-3.5h-1.5h-0.5q-1 0 -1.5 0.5t-1.5 0.5q-10 0 -19.5 2.5t-18.5 6.5q-9 5 -17 11t-16 13v1v0z" />
    <glyph glyph-name="j" unicode="j" horiz-adv-x="285" 
d="M142 -246q-22 1 -41.5 9.5t-35.5 24.5t-24 35t-8 42v569q0 10 2 21t6 21q5 10 11 19t13 17q8 8 17.5 14.5t19.5 10.5t20.5 6t21.5 2h2h2h1.5h1.5h0.5h1.5q5 -1 9.5 -2t9.5 -2q4 -1 9 -2.5t9 -3.5q9 -4 17 -9.5t15 -13.5q8 -8 14 -17t10 -20q5 -10 7 -21t2 -22v-567
q0 -23 -8 -42.5t-25 -35.5q-16 -17 -36.5 -24.5t-43.5 -7.5v-1v0zM59 606q-8 7 -14 17t-11 21q-4 11 -6 22.5t-2 23.5v0v1v0v0v0.5v1.5q0 11 3 22.5t7 21.5q5 11 11.5 20.5t14.5 18.5q8 8 16 13.5t17 9.5t18.5 6.5t19.5 3.5h1.5h1.5h0.5h1.5h1.5h1.5h0.5h1.5q5 0 10 -0.5
t11 -1.5q5 -1 10 -2.5t10 -3.5q11 -4 20 -9.5t17 -13.5q10 -9 17.5 -19.5t11.5 -22.5q5 -12 7.5 -24t2.5 -24q0 -11 -2 -22t-6 -22q-4 -10 -10 -20t-14 -19q-9 -10 -19 -17t-21 -12q-11 -4 -22.5 -6.5t-22.5 -1.5q-12 0 -23 2.5t-22 6.5q-11 5 -21 11.5t-18 16.5v1v0z" />
    <glyph glyph-name="k" unicode="k" horiz-adv-x="564" 
d="M62 22q-8 7 -14 16t-11 19q-4 11 -6 21.5t-2 21.5v575q0 22 8 41t24 35q16 17 35.5 25t42.5 8t42.5 -8t35.5 -24q17 -16 25 -35.5t8 -42.5v-275l79 102q4 4 8.5 8t8.5 8q5 4 9.5 7.5t9.5 6.5q6 3 13 6t14 4q7 2 14.5 3t14.5 1q5 0 9.5 -0.5t8.5 -1.5q2 0 4 -0.5t5 -1.5
q2 0 4 -0.5t4 -1.5q17 -6 30.5 -15.5t23.5 -23.5q9 -13 13.5 -28t4.5 -32q0 -6 -0.5 -12t-2.5 -12q-1 -6 -3 -12t-5 -12t-6.5 -11.5t-7.5 -10.5t-7.5 -10t-8.5 -10l-54 -54l113 -131q5 -8 9 -15.5t7 -15.5t4.5 -16.5t1.5 -17.5v-2.5v-3.5q-1 -1 -1 -2.5v-3.5q0 -3 -0.5 -6
t-1.5 -6q-1 -4 -1.5 -7t-2.5 -6q-1 -1 -1.5 -2.5t-0.5 -3.5q-1 -1 -1.5 -2.5t-1.5 -3.5q-5 -10 -12 -19t-16 -17q-9 -7 -19 -11.5t-21 -7.5q-4 -1 -7.5 -1.5t-8.5 -1.5h-4t-4 -1h-4h-4q-13 0 -26 3t-25 8q-12 6 -21.5 14.5t-17.5 19.5l-116 170v-107q0 -12 -2 -22.5
t-7 -21.5q-4 -10 -10 -19t-14 -17q-7 -7 -15 -13t-17 -8q-4 -2 -9 -3t-9 -2q-5 -1 -9.5 -2t-9.5 -2h-1.5h-0.5h-1.5h-1.5h-2h-2q-10 0 -20.5 2t-20.5 6q-10 3 -19 9t-17 14v1v0z" />
    <glyph glyph-name="l" unicode="l" horiz-adv-x="280" 
d="M62 23q-8 7 -14 16t-11 19q-4 11 -6 21.5t-2 21.5v574q0 22 8.5 41t24.5 35q17 17 36.5 24.5t43.5 7.5q23 -1 42 -9t35 -25q16 -16 24 -35t8 -42v-569q0 -12 -2 -22.5t-6 -21.5q-4 -10 -10 -19.5t-14 -17.5t-17 -14t-20 -8q-5 -2 -10.5 -3.5t-10.5 -2.5q-6 -1 -11.5 -1.5
t-10.5 -0.5q-10 0 -20.5 2t-20.5 6q-10 2 -19 8t-17 14v1v0z" />
    <glyph glyph-name="m" unicode="m" horiz-adv-x="918" 
d="M62 23q-8 7 -14 16t-11 19q-4 11 -6 21.5t-2 21.5v335q0 22 8.5 42t24.5 36q17 17 36.5 24.5t42.5 7.5l82 -41l1 3v-1l1 1h0.5h0.5q1 0 1.5 0.5l1.5 1.5q6 4 13 7.5t14 6.5q3 2 7 3t8 3q4 1 9 2.5t10 2.5q10 3 19.5 5.5t19.5 3.5q10 2 19.5 2.5t19.5 0.5q17 0 33.5 -2.5
t32.5 -7.5t31.5 -12.5t31.5 -17.5l11 -6l9 -6l9 5l19 10q9 4 18 7.5t16 6.5q8 3 14.5 6t13.5 5l20 6t20 4q11 2 20.5 2.5t19.5 0.5q42 0 78 -14t65 -41t44 -60.5t15 -72.5v-258q0 -24 -8 -43.5t-24 -35.5t-35.5 -23.5t-42.5 -7.5t-43 7t-37 23q-16 17 -24.5 36.5t-8.5 42.5
v205q0 9 -3.5 17.5t-11.5 15.5q-7 8 -15.5 11.5t-18.5 3.5v0v0h-1v0v0v0v0v0h-1v0v0v0q-10 0 -18 -3.5t-15 -10.5t-10.5 -15.5t-3.5 -18.5v-205q0 -12 -2 -22.5t-7 -21.5q-4 -10 -10 -19.5t-14 -17.5t-17 -14t-19 -8q-5 -2 -10 -3l-10 -2q-6 -1 -11 -1.5t-10 -0.5
q-11 0 -21.5 2t-20.5 6q-10 3 -19.5 9t-17.5 14q-7 8 -13 17t-10 19q-4 11 -6 21.5t-2 21.5v208q0 9 -3.5 17.5t-10.5 15.5t-15 10.5t-18 4.5v0v0h-1v0v0v0v0v0h-1v0v0v0q-10 0 -18.5 -3.5t-16.5 -10.5q-7 -7 -11 -15.5t-4 -18.5v-207q0 -12 -2 -22.5t-6 -21.5
q-4 -10 -10 -19t-14 -17t-17 -14t-20 -8q-5 -2 -10 -3.5t-10 -2.5q-6 -1 -11 -1.5t-10 -0.5q-10 0 -20.5 2t-20.5 6q-10 2 -19 8t-17 14v1v0z" />
    <glyph glyph-name="n" unicode="n" horiz-adv-x="616" 
d="M61 24q-7 7 -13 16t-11 19q-4 11 -6 21.5t-2 21.5v334q0 23 7.5 42.5t23.5 35.5t34.5 24t39.5 8v0h1v0v0h0.5h1.5v0v0h0.5h1.5l88 -54v4q1 0 1.5 0.5l1.5 1.5q1 0 1.5 0.5l1.5 1.5t2 1.5t2 1.5q1 0 2 0.5t2 1.5q17 11 33.5 18.5t33.5 12.5t34.5 8t34.5 3q6 0 12 -0.5
t12 -1.5t12 -1.5t12 -1.5q38 -8 67 -25t51 -43q22 -25 33 -54.5t11 -61.5v-255q0 -24 -8 -43.5t-25 -35.5q-16 -16 -35.5 -23.5t-42.5 -8.5q-24 0 -43.5 7t-36.5 23q-16 17 -24.5 36.5t-8.5 42.5v209q0 4 -1.5 9.5t-3.5 10.5t-5 9.5t-7 8.5q-4 5 -8.5 8t-9.5 5t-10.5 3
t-10.5 1t-10.5 -1t-10.5 -3t-9.5 -5t-8.5 -7t-7.5 -9t-5.5 -10t-3 -10.5t-1 -10.5v-206q0 -12 -2 -22.5t-7 -21.5q-4 -10 -10 -19t-14 -17t-17 -14t-20 -9q-10 -3 -20.5 -5t-21.5 -2q-10 0 -20.5 2t-20.5 5t-19.5 9t-17.5 14v1v0z" />
    <glyph glyph-name="o" unicode="o" horiz-adv-x="632" 
d="M316 -11q-63 1 -115.5 21t-94.5 60q-43 41 -64.5 89.5t-21.5 106.5q-1 58 20 107.5t64 91.5q42 42 95 63t117 21q29 0 56 -4.5t52 -13.5q26 -9 48.5 -22.5t42.5 -30.5q23 -20 41 -43t30 -49t18.5 -53t7.5 -54v-1.5v-0.5v-1.5v-1.5v-1.5v-0.5v-1.5v-1.5q0 -36 -9.5 -70
t-27.5 -67t-45 -59t-62 -46q-16 -10 -34 -17t-38 -10q-19 -5 -39 -7.5t-41 -2.5v-1v0zM238 268q-1 -22 5 -39t18 -30t25.5 -19t29.5 -6h2h2h1h2q2 0 4 0.5t4 1.5q13 2 23.5 7.5t17.5 14.5q8 9 13 21t7 28v2t1 3v2.5v2.5v3t1 3v2.5v2.5q0 7 -1 13.5t-3 12.5q-1 6 -3.5 12
t-5.5 11q-6 10 -13.5 17.5t-15.5 11.5q-8 5 -17 7.5t-19 2.5t-19.5 -2.5t-17.5 -7.5q-8 -4 -15 -11.5t-13 -17.5q-3 -5 -5.5 -11t-4.5 -12q-1 -6 -2 -12.5t-1 -14.5v1v0z" />
    <glyph glyph-name="p" unicode="p" horiz-adv-x="636" 
d="M61 -220q-8 9 -14 18t-10 20q-4 10 -6 20.5t-2 21.5v577q0 22 8 41.5t24 35.5t35 24t41 8v0h1v0v0h0.5h1.5v0v0h0.5h1.5l87 -49v5q14 10 29.5 18.5t32.5 14.5q17 5 34.5 8t36.5 3q6 0 12 -0.5t12 -1.5t12 -1.5t13 -1.5q12 -3 24 -7t24 -9t24 -12t23 -15
q20 -14 36.5 -32.5t30.5 -41.5q14 -22 23.5 -48.5t14.5 -55.5q0 -4 0.5 -7.5t1.5 -6.5q0 -4 0.5 -7.5t1.5 -6.5v-7.5v-6.5v-4t1 -3v-3.5v-3.5q0 -7 -0.5 -14.5t-1.5 -15.5q-1 -7 -2 -14.5t-3 -15.5q-8 -37 -23 -68.5t-36 -57.5q-22 -25 -49 -44t-59 -30q-11 -4 -22 -6
t-22 -3q-5 -1 -10.5 -1.5t-10.5 -1.5q-6 0 -11.5 -0.5t-10.5 -0.5q-11 0 -22 1t-22 3q-10 2 -20.5 4t-20.5 6l-11 5l-10 4v-156q0 -11 -2 -21.5t-7 -20.5q-4 -10 -10 -19t-14 -17t-17 -14t-19 -10q-5 -2 -10 -3.5t-10 -2.5q-6 -1 -11 -1.5t-10 -0.5q-11 0 -21.5 2t-20.5 6
t-19 10.5t-17 14.5v-1v0zM245 262q0 -20 6 -36t16 -28q11 -12 24 -17.5t29 -5.5v0v0v0h1v0v0v0v0v0h1v0v0q15 0 28.5 6t24.5 18t16 28t5 35v4.5v4.5v2v3q-1 1 -1 2v2q-2 14 -7.5 25.5t-13.5 20.5q-9 9 -19 14.5t-21 7.5h-2t-2 1h-2h-2h-2h-1h-2h-2q-16 0 -29 -6t-24 -18
t-16.5 -28t-4.5 -36v1v0z" />
    <glyph glyph-name="q" unicode="q" horiz-adv-x="634" 
d="M45 386q15 34 35.5 61.5t47.5 47.5t55 33t58 17q5 1 9.5 1.5t8.5 0.5h4.5t4.5 1h4.5h4.5q18 0 35.5 -3t33.5 -9q17 -6 31 -15.5t27 -22.5v-4l92 55q2 0 3.5 0.5t2.5 1.5q2 1 4 1.5t4 1.5h2t2 1h1h2h2t2 1h1h2q5 0 10.5 -1.5t10.5 -3.5t9.5 -5t8.5 -7q10 -10 17.5 -22
t13.5 -26q5 -13 8 -27.5t3 -28.5v-579q0 -22 -8 -41t-24 -35t-34.5 -24t-41.5 -9q-23 0 -43 8t-37 24q-16 16 -24.5 36t-8.5 43v153q-4 -3 -8.5 -4.5t-8.5 -3.5q-5 -1 -9 -2t-9 -1q-4 -1 -8.5 -2t-8.5 -2q-5 -1 -9 -1.5t-9 -1.5h-4t-4 -1h-5h-4h-4t-4 -1h-4h-4
q-55 0 -101.5 18.5t-84.5 57.5t-57 88t-18 107v15.5t1 15.5t2.5 16t2.5 16q1 4 1.5 8t1.5 8q1 3 2 7l2 8t2.5 7.5t2.5 7.5q2 3 3.5 6.5t3.5 7.5v1v0zM240 261v-5v-4v-2.5t1 -3.5q3 -16 9 -29t16 -22q9 -9 21 -13.5t26 -3.5h2h2h1h2h4t4 1q12 2 22 7t18 14q8 8 13.5 19.5
t8.5 26.5v2t1 3v2v2v4.5v4.5v4v4v2v3q-1 1 -1 2v2q-1 7 -3 13l-4 12q-3 5 -6 10.5t-7 9.5q-5 6 -11 11t-14 8q-7 3 -14.5 4.5t-15.5 1.5h-2h-2h-2h-2q-7 -1 -13.5 -3.5t-12.5 -5.5t-11 -7.5t-10 -10.5q-4 -5 -7 -10.5t-5 -11.5q-3 -6 -4.5 -12.5t-2.5 -14.5q-1 -2 -1 -4v-4
v-2v-1v-2v-2v1v0z" />
    <glyph glyph-name="r" unicode="r" horiz-adv-x="420" 
d="M140 -7v0.5v0.5h-1v0v0v0h-1v0h-1.5h-0.5v0v0q-22 0 -41 7t-35 23q-16 15 -23.5 34.5t-7.5 41.5v336q0 22 8 41.5t24 35.5q17 17 36.5 25t42.5 8l103 -69v5l6 7l12 13q5 5 10.5 10t10.5 9t10.5 7t11.5 6l10 4t10 3q5 2 10.5 2.5t11.5 0.5h3.5h2.5h2h2q1 -1 2 -1h2h2h2
q0 -1 1 -1h2t2 -0.5t2 -0.5q0 -1 1 -1h2q14 -4 26.5 -11t22.5 -18q11 -10 17 -22t9 -26q1 -3 1.5 -6t0.5 -6v-6v-6q0 -18 -6.5 -33t-18.5 -28t-31.5 -23.5t-45.5 -18.5q-1 -1 -2.5 -1.5t-3.5 -0.5q-1 -1 -2 -1.5t-2 -0.5t-1.5 -0.5l-0.5 -0.5q-1 -1 -1.5 -1h-1.5t-1.5 -0.5
l-0.5 -0.5q-1 -1 -1.5 -1h-1.5q-4 -2 -8.5 -3.5t-8.5 -3.5q-2 -1 -3.5 -2t-3.5 -1q-1 -1 -2.5 -2t-3.5 -2q-16 -9 -26 -18.5t-15 -20.5q-4 -11 -6.5 -28.5t-1.5 -41.5v-96q0 -25 -7.5 -45t-24.5 -37q-16 -16 -35.5 -24t-42.5 -9v-1v0z" />
    <glyph glyph-name="s" unicode="s" horiz-adv-x="513" 
d="M73 30q-17 9 -29 19.5t-20 21.5q-7 11 -11 22t-4 22v6t1 6q0 3 1 6l2 6q4 12 11.5 22.5t19.5 17.5q11 8 25.5 12t30.5 4q5 0 11 -0.5t12 -1.5t12.5 -3t13.5 -4l20 -5l14 -5q11 -5 20 -8t16 -5q6 -1 12 -2.5t12 -2.5l6 1h12q4 -1 7 -0.5t5 1.5l3.5 3.5t2.5 3.5v0.5t1 1.5
v0.5v0.5v0.5v1.5q0 2 -0.5 4.5t-2.5 4.5q-1 2 -3.5 4t-5.5 4h-1.5h-0.5q-1 0 -1 0.5v1.5h-0.5t-0.5 1h-1v0h-0.5t-0.5 1h-1v0l-9 4l-20 5l-26 8l-19 5q-35 8 -60.5 18.5t-41.5 22.5q-16 11 -27.5 26t-19.5 34q-3 7 -5 14l-4 14q-1 7 -1.5 14t-0.5 14q0 35 16 65t49 57
q32 27 77 40.5t102 13.5h1.5h1.5h1h2h0.5h1.5h1.5h1.5q13 0 25 -1t24 -3q11 -1 21.5 -3.5t20.5 -4.5q19 -5 34 -11t27 -13q6 -4 11 -7.5t10 -6.5l7.5 -7.5t6.5 -7.5l6 -10t4 -10q2 -5 2.5 -10.5t0.5 -10.5q0 -12 -3.5 -22.5t-11.5 -21.5q-7 -10 -17.5 -17t-23.5 -10
q-3 -1 -6 -1.5t-6 -0.5q-1 0 -3 -0.5t-3 -0.5h-3.5h-3.5q-4 0 -9.5 0.5t-11.5 1.5t-13 2.5t-15 3.5l-30 8l-15 4l-16 3q-1 -1 -1.5 -1h-1.5h-0.5t-0.5 1h-1v0h-1.5t-0.5 1h-1v0h-1.5h-1.5h-2.5t-3.5 1h-2.5h-2.5h-2t-2 1h-2h-2h-2h-2q-1 -1 -2 -1h-2t-2.5 -0.5t-3.5 -1.5
l-2 -1l-3 -3q-2 -3 -3 -5.5t0 -4.5q0 -1 1 -2.5t2 -2.5q1 -2 3 -3t4 -3v0h1v-1v0v0h1q0 -1 0.5 -1h0.5q0 -1 0.5 -1.5t1.5 -0.5h0.5h1.5l9 -2l15 -5l35 -11l25 -7l22 -8q9 -4 17.5 -7.5t16.5 -8.5q8 -4 16.5 -8.5t15.5 -9.5q17 -12 29.5 -26.5t21.5 -31.5q8 -16 12.5 -33.5
t4.5 -34.5v-2.5v-3.5v-2.5v-3.5q-1 -16 -6.5 -31.5t-13.5 -30.5t-20 -29t-28 -26q-15 -12 -33 -21.5t-39 -15.5q-21 -5 -45 -8.5t-52 -3.5h-5.5h-4.5q-3 1 -5.5 1h-5.5h-6h-5q-3 1 -5.5 1h-5.5q-25 2 -46 5t-39 8t-32.5 10.5t-25.5 12.5v1v0z" />
    <glyph glyph-name="t" unicode="t" horiz-adv-x="385" 
d="M5 515q7 5 14.5 10t16.5 8t18 5t19 2l10 1v47q0 10 2 21t6 21q5 11 11 20t14 17t17.5 14t19.5 10t20.5 6t21.5 2h2h2h1.5h1.5h0.5h1.5q5 -1 9.5 -2t9.5 -2q4 -1 9 -2.5t9 -3.5q9 -4 17 -9.5t15 -13.5q8 -8 14 -17t10 -20q5 -10 7 -21.5t2 -22.5v-44h13q9 -1 18 -3t18 -5
q8 -4 15.5 -9t14.5 -11q7 -7 12 -14.5t9 -16.5q2 -4 3 -8.5t2 -8.5q1 -5 1.5 -9t0.5 -9q0 -9 -2 -17t-5 -16t-8 -15.5t-11 -14.5q-7 -7 -14.5 -12t-16.5 -9t-18 -6.5t-19 -2.5l-14 1v-251q0 -12 -2 -22.5t-7 -21.5q-4 -10 -10 -19.5t-14 -17.5t-17 -14t-20 -9
q-10 -4 -20.5 -6t-21.5 -2h-1.5h-0.5h-1.5h-1.5h-2h-2q-10 1 -19 3.5t-18 4.5q-9 4 -17 10t-15 13q-8 8 -14 17.5t-11 19.5q-4 11 -6 21.5t-2 22.5v253h-8q-10 -1 -20 1t-19 6q-10 4 -18 9.5t-15 12.5q-5 6 -9.5 13.5t-7.5 15.5t-5 16.5t-2 17.5q0 5 0.5 9t1.5 9
q1 4 2.5 8.5t3.5 8.5q4 8 9 15.5t10 14.5v1v0z" />
    <glyph glyph-name="u" unicode="u" horiz-adv-x="613" 
d="M255 -8q-58 7 -101 25t-70 49q-28 30 -41.5 74t-13.5 102v194q0 22 8.5 41.5t24.5 35.5q17 17 36.5 25t42.5 8t42.5 -8t35.5 -25q17 -16 25 -36.5t8 -43.5v-189q0 -8 1 -14.5t2 -11.5q2 -4 4 -8.5t6 -8.5q3 -4 6 -7t7 -5t8.5 -3.5t9.5 -2.5v0h1q0 -1 0.5 -1h0.5h1.5h1.5
h0.5h1.5h1.5h1.5h6t6 1q2 1 5 2l6 2q5 2 9.5 6t8.5 8t6.5 8.5t3.5 8.5q2 5 2.5 11.5t0.5 13.5v191q0 22 8.5 42.5t24.5 36.5q17 17 36.5 25t42.5 8t43 -8t36 -25q17 -16 25 -35.5t8 -42.5v-192q0 -59 -14 -103t-41 -74q-28 -31 -70.5 -49t-100.5 -24h-3t-3 -1h-3.5h-3.5h-3
t-3 -1h-3.5h-3.5h-4t-3 -1h-3.5h-3.5h-6h-6h-6.5h-6.5q-4 1 -7 1h-6h-6t-6 1q-4 0 -7 0.5t-6 0.5v-1v0z" />
    <glyph glyph-name="v" unicode="v" horiz-adv-x="540" 
d="M101 547q19 -1 36 -5.5t32 -15.5q15 -10 25 -23.5t15 -29.5l58 -177l57 178q5 15 15 28t25 23q14 11 30.5 16t35.5 5v0v0v0h1v0v0v0v0v0h1v0v0q23 -1 43 -9t36 -25q16 -16 24 -35t8 -42v-1.5v-1.5v-1.5v-0.5q-1 -1 -1 -2v-1v-1.5v-1.5q-1 -6 -2 -11.5t-3 -10.5
q-1 -5 -3.5 -10t-4.5 -10l-156 -309q-10 -21 -21 -36t-24 -24q-13 -10 -27.5 -14t-30.5 -4h-4.5t-4.5 1q-3 0 -5.5 0.5t-4.5 0.5q-4 1 -9.5 1.5t-10.5 1.5q-8 2 -15 6t-13 8q-6 5 -12 11t-12 15q-3 3 -5.5 6.5t-4.5 7.5t-4.5 8.5t-4.5 9.5l-156 311q-2 4 -3.5 9t-2.5 10
q-2 5 -2.5 10.5t-1.5 11.5v1.5v1.5v1.5t-1 1.5v1.5v1.5v2v2q1 22 8 41t23 35q15 16 34.5 24t42.5 9v1v0z" />
    <glyph glyph-name="w" unicode="w" horiz-adv-x="866" 
d="M93 549v-1h1v0v0h0.5h1.5v0v0h0.5h1.5q17 0 33 -5t31 -15t25 -22.5t15 -27.5l58 -163l47 136q8 24 19.5 42.5t25.5 31.5t30 19t35 6q5 0 10 -0.5t10 -1.5t10 -1.5t10 -2.5q13 -4 23.5 -11t19.5 -18q9 -10 17.5 -26.5t16.5 -38.5l47 -135l58 164q5 14 15 26.5t25 22.5
q14 10 30.5 15t34.5 5v0v0h0.5h1.5v0h1v0v0v0h1v0v0h2h2q0 -1 1 -1h2h2h2q1 -1 2 -1h2q4 -1 7.5 -1.5t7.5 -2.5q4 -1 7.5 -2.5t7.5 -3.5q14 -7 25.5 -17t19.5 -24q8 -13 12 -28t4 -31v-4v-3q-1 -2 -1 -3.5v-3.5q-1 -4 -1.5 -7t-0.5 -6q-1 -2 -1.5 -4t-0.5 -3
q-1 -2 -1.5 -3.5t-1.5 -3.5t-1.5 -4t-0.5 -3q-1 -2 -1.5 -3.5t-1.5 -3.5l-153 -309q-10 -20 -21 -34.5t-24 -23.5t-28 -12.5t-32 -3.5h-1.5h-0.5h-1.5h-1.5q-16 1 -31 5t-29 14q-13 9 -23 22.5t-17 30.5l-58 143l-58 -142q-7 -18 -16.5 -31.5t-23.5 -22.5q-13 -10 -27.5 -14
t-31.5 -5h-1.5h-1.5h-1.5h-1.5q-16 0 -31 3.5t-28 12.5t-24 23.5t-21 33.5l-153 311q-2 6 -5 13t-4 14q-1 4 -1.5 7.5t-0.5 7.5q-1 3 -1 6.5v7.5q0 16 4 30.5t11 27.5q8 13 19 23t26 17q5 2 10.5 4.5t11.5 3.5q5 2 11 2.5t12 1.5v1v0z" />
    <glyph glyph-name="x" unicode="x" horiz-adv-x="587" 
d="M2 66q-1 1 -1.5 2.5t-0.5 2.5v2v2q0 2 -0.5 5t-1.5 6v2t-1 3v2.5v2.5v4.5v5.5q0 11 2 22t6 21q5 11 11 19t14 15l120 98l-91 71q-9 6 -16 15t-12 21q-5 11 -7.5 23t-2.5 25v4.5v5.5q0 2 0.5 4.5t1.5 5.5v4.5t1 5.5q1 2 2 4.5t2 5.5q6 17 16 29.5t25 22.5q14 9 30 14t32 5
q7 0 14 -1t14 -3q8 -1 14.5 -4t13.5 -7q5 -3 9.5 -6t8.5 -7l7.5 -7.5t6.5 -8.5l75 -99l74 100q3 4 6.5 7.5l7.5 7.5t8.5 7t9.5 6t9.5 5.5t8.5 3.5q2 1 4.5 1.5t5.5 1.5q2 0 4.5 0.5t5.5 1.5h4.5h4.5h2t3 1h2.5h2.5q17 0 32 -5t29 -14q14 -10 24.5 -22.5t16.5 -29.5
q2 -5 3 -10l2 -10t1.5 -10.5t0.5 -10.5q0 -13 -2.5 -25t-7.5 -23t-12 -20t-15 -16l-92 -70l120 -97q8 -8 15 -16.5t11 -19.5q5 -10 7.5 -21t2.5 -22v-1.5v-1.5q-1 -1 -1 -1.5v-1.5v-2.5v-3.5q-1 -9 -3.5 -18t-6.5 -18t-9.5 -16.5t-13.5 -15.5q-7 -7 -15 -13t-16 -10
q-9 -2 -17.5 -4.5t-16.5 -3.5h-1.5t-1.5 -1h-1.5h-1.5h-2.5h-3.5q-13 0 -25.5 3t-24.5 8q-12 6 -23 15t-21 21l-94 119l-95 -118q-8 -11 -17 -19t-19 -14t-19.5 -9t-20.5 -4h-2t-2 -1h-3h-2h-2t-2 -1h-3h-2q-10 0 -20.5 2t-20.5 5q-10 5 -19 11t-17 14q-4 5 -8 9.5t-7 9.5
l-6 10t-5 11v1v0z" />
    <glyph glyph-name="y" unicode="y" horiz-adv-x="529" 
d="M54 537l6 2t7 2l6 2l6 2q6 2 12 2.5t12 0.5q17 -1 33 -6.5t29 -16.5q14 -11 25 -27.5t19 -38.5l56 -154l51 152q1 2 2 5l2 6l2.5 5t2.5 6q2 6 5 11.5t6 10.5q6 11 15 19.5t21 14.5q11 6 23.5 9t25.5 3h1.5h1.5q0 -1 0.5 -1h1.5h3.5h2.5q10 -1 19.5 -3.5t19.5 -7.5
q9 -4 18 -11t17 -15q7 -7 12 -15t8 -17t5 -18.5t2 -19.5v-6t-1 -6q0 -4 -0.5 -7t-1.5 -6t-1.5 -6t-1.5 -6q-1 -4 -2 -7t-3 -6l-246 -559q-9 -20 -19.5 -34.5t-24.5 -24.5q-13 -10 -28 -15t-31 -5q-2 0 -4 0.5t-4 0.5q-3 1 -5 1h-4q-4 1 -8.5 1.5t-9.5 2.5q-18 5 -31.5 14
t-23.5 23q-10 13 -15 28t-5 31v6v6v2.5t1 2.5q0 2 0.5 3l1.5 3q0 3 1 6l2 6q0 1 0.5 2.5t1.5 2.5l1.5 3l1.5 3l77 155l-153 344q-1 4 -2 9l-2 10t-1.5 10t-0.5 10q0 15 4 29.5t11 27.5q8 14 20 24.5t27 17.5v1v0z" />
    <glyph glyph-name="z" unicode="z" horiz-adv-x="576" 
d="M13 443q0 19 7 36.5t21 31.5t31 21.5t37 7.5l345 1q2 -1 3.5 -1h3.5q1 -1 3 -1h3h3.5h3.5q1 -1 3 -1h4q14 -2 25 -8.5t20 -17.5q9 -10 13 -22t4 -26q0 -4 -0.5 -7.5t-1.5 -8.5l-2 -8t-3 -8q-1 -3 -2.5 -5.5t-3.5 -4.5q-1 -2 -2.5 -4.5t-3.5 -4.5l-184 -218h130
q20 -1 37.5 -8t31.5 -21t21.5 -31.5t7.5 -37.5t-7 -37.5t-21 -31.5q-14 -15 -31 -21.5t-37 -6.5h-363h-2h-1h-2h-2h-2h-1h-2h-2h-4h-4h-1.5h-1.5h-1.5h-1.5q-16 2 -28.5 8t-22.5 16q-10 11 -15 23.5t-4 26.5v4.5v5.5q0 2 0.5 4.5t1.5 4.5q2 5 3.5 10t3.5 10q1 2 2.5 4.5
t2.5 3.5q2 2 3.5 4t2.5 4l183 217h-104q-20 -1 -37.5 6t-31.5 21t-21 31.5t-7 37.5v1v0z" />
    <glyph glyph-name="braceleft" unicode="{" horiz-adv-x="500" 
 />
    <glyph glyph-name="bar" unicode="|" horiz-adv-x="500" 
 />
    <glyph glyph-name="braceright" unicode="}" horiz-adv-x="500" 
 />
    <glyph glyph-name="asciitilde" unicode="~" horiz-adv-x="500" 
 />
    <glyph glyph-name="exclamdown" unicode="&#xa1;" horiz-adv-x="320" 
d="M81 13q-8 7 -14 16t-11 19q-4 11 -6 21.5t-2 21.5v268q0 22 8.5 41.5t24.5 35.5q17 17 36.5 25t42.5 8t42.5 -8t35.5 -24t24 -35.5t8 -42.5v-266q0 -12 -2 -22.5t-7 -21.5q-4 -10 -9.5 -19t-13.5 -17t-17 -13.5t-20 -9.5q-10 -4 -20.5 -6t-21.5 -2h-1.5h-0.5h-1.5h-1.5
h-2h-2q-10 1 -19 3.5t-18 6.5t-17 8.5t-15 11.5v1v0zM159 491q-25 -1 -46.5 8.5t-39.5 27.5t-27 39.5t-8 46.5q0 25 9 46t27 39t39.5 27t46.5 9q12 0 24 -2.5t23 -7.5q11 -4 21 -11t18 -15q9 -9 16 -19.5t11 -21.5q5 -11 7 -22.5t2 -23.5t-2 -23.5t-7 -22.5q-4 -11 -11 -21
t-16 -18q-9 -9 -19 -15.5t-21 -11.5q-11 -4 -23 -6.5t-24 -2.5v1v0z" />
    <glyph glyph-name="cent" unicode="&#xa2;" horiz-adv-x="550" 
d="M259 538q1 -1 2 -1t2 1h2h2h2t3 1h2h2h2t2 1h2h2h2t3 1h2h2v72v2t1 3q1 1 2 2.5t2 2.5q2 2 5.5 3.5t7.5 1.5t7 -1.5t6 -3.5q2 -3 3.5 -6t1.5 -6v-69q3 -1 5.5 -1h5.5q2 -1 4.5 -1h5.5h5.5h5.5q2 -1 4.5 -1h5.5q41 -4 72 -14.5t51 -26.5t30 -34t11 -39v-1.5v-1.5v-1.5
v-1.5q0 -22 -6.5 -39t-20.5 -30q-13 -13 -30 -19.5t-37 -6.5h-2.5h-2.5h-3h-3q-3 0 -5.5 0.5t-4.5 1.5l-30 8l-12 3l-22 4l-15 3l-11 2v-156q2 -1 4 -1t4 1h3h4h3.5t3.5 1q1 0 3 0.5t3 0.5l3 1l35 8q1 -1 2 -1t3 1h2h2q2 0 4.5 0.5t4.5 1.5q4 1 7.5 1.5t7.5 0.5h3.5h3.5h3h3
q8 0 15.5 -1t14.5 -3q6 -2 12 -5t12 -7q10 -7 17.5 -15t12.5 -19q5 -10 8 -21t3 -22q0 -5 -0.5 -10t-1.5 -10q0 -2 -0.5 -4.5t-1.5 -4.5q-1 -3 -1.5 -5.5t-1.5 -4.5q-6 -16 -18 -29t-31 -24q-19 -10 -47 -16.5t-64 -9.5h-2.5h-3.5h-1.5t-0.5 -1h-1.5h-0.5h-1.5h-0.5h-1.5
h-1.5h-1.5h-0.5h-1.5h-1.5h-1.5h-0.5h-1.5h-1.5h-2h-2q-1 1 -2.5 1h-3.5h-2h-2v-94q0 -3 -1.5 -6t-4.5 -6q-3 -2 -6 -3.5t-7 -1.5t-7 1.5t-5 3.5q-3 3 -4 6t-1 6v94q-5 1 -9.5 1.5t-9.5 0.5q-4 1 -8.5 1.5t-9.5 1.5q-28 4 -54.5 13.5t-49.5 23.5t-42.5 31.5t-35.5 38.5
q-14 19 -24.5 38.5t-17.5 40.5q-7 20 -10.5 41t-3.5 42q0 23 4 45.5t13 44.5q8 23 21 44t30 41q16 18 34.5 33.5t40.5 27.5t46 20.5t50 12.5v1v0zM294 342l-7 -3l-7 -3q-10 -6 -18 -13t-13 -15q-5 -9 -7.5 -18t-2.5 -19v-1.5v-0.5v-1.5v-0.5v-1.5v-0.5v-1.5v-0.5
q0 -4 0.5 -7t1.5 -6q0 -1 0.5 -2.5t1.5 -2.5q0 -2 0.5 -3l1.5 -3q2 -4 4.5 -7.5t6.5 -7.5q3 -4 7.5 -8.5t10.5 -9.5q2 -1 3.5 -2t2.5 -2q2 -1 3.5 -2t3.5 -2q0 -1 1 -1.5t2 -0.5q1 -1 2 -1.5t2 -0.5v148v0v0z" />
    <glyph glyph-name="sterling" unicode="&#xa3;" horiz-adv-x="718" 
d="M44 427q7 6 15 11t17 9t18.5 6t19.5 3l13 1l-2 8l-1 7q-1 2 -1.5 5t-0.5 7v8v8v3.5v2.5v3.5v3.5q2 47 20 85.5t54 69.5q36 32 88 47.5t120 15.5q8 0 17 -0.5t18 -1.5t18 -1.5t19 -1.5q11 -1 22.5 -3.5t21.5 -5.5q11 -3 21.5 -6t20.5 -7q29 -11 51.5 -23.5t38.5 -26.5
q17 -14 28 -28.5t17 -29.5q2 -4 3 -8.5t2 -9.5q1 -4 1.5 -8.5t0.5 -9.5t-0.5 -9.5t-1.5 -9.5q-1 -4 -2 -8.5t-3 -8.5q-7 -16 -16 -28.5t-20 -20.5q-10 -8 -22 -12t-26 -4h-6t-6 1q-4 0 -7 0.5t-6 1.5q-7 2 -13.5 4.5t-13.5 5.5l-4 4l-32 18l-1 1l-15 7q-2 0 -4.5 1.5
t-5.5 2.5q-3 2 -7 4t-9 6q-1 0 -2.5 0.5t-3.5 1.5t-6 2.5t-9 2.5q-5 2 -9.5 2.5t-7.5 1.5q-1 0 -3 0.5t-3 1.5q-2 0 -3.5 0.5t-3.5 0.5h-1.5h-0.5h-1.5h-0.5h-1.5h-0.5h-1.5h-1.5h-2h-2q-16 0 -27 -3t-19 -9q-7 -6 -11 -13t-4 -15v-1.5v-0.5v0v0v-1v0v-2l2 -8l2 -10l1 -3
l1 -4l3 -5h74q20 -1 37.5 -8.5t31.5 -21.5q14 -15 21.5 -32.5t7.5 -37.5q0 -21 -7.5 -38.5t-21.5 -31.5q-14 -15 -31.5 -22t-37.5 -7l-47 1l-2 -9l-1 -7l-1 -4l-3 -12l-1 -4l-1 -7l-1 -8l-1 -8h221q10 -1 19.5 -3t18.5 -6t17.5 -9.5t15.5 -12.5t12 -15t9 -17t5.5 -18.5
t1.5 -19.5t-2 -19t-5 -18q-4 -9 -9 -17t-13 -15q-7 -7 -15.5 -12.5t-17.5 -9.5t-18.5 -5t-19.5 -1h-398h-34q-5 0 -10.5 1.5t-11.5 3.5t-11.5 5.5t-10.5 7.5q-7 5 -13 12t-11 14q-4 8 -7.5 16t-5.5 17q0 2 -0.5 3t-0.5 3q-1 1 -1 2.5v2.5v3v3v2.5v2.5v4.5v5.5q0 2 0.5 4.5
t1.5 4.5q1 5 2.5 9.5t4.5 8.5q2 3 3.5 6.5t4.5 7.5q2 3 5 7l6 8l4 6l9 12q1 0 1.5 0.5l1.5 1.5q0 1 0.5 1.5l1.5 1.5q0 1 0.5 2t1.5 2q1 0 1.5 1t1.5 2q2 3 3.5 6t2.5 6q2 2 3.5 5t2.5 6q2 6 4.5 13t3.5 14v1.5t1 1.5v1.5v1.5v1.5t1 1.5v1.5v1.5l-45 1q-10 -1 -20.5 1
t-19.5 6q-10 4 -18 9.5t-16 12.5q-7 7 -12.5 15t-8.5 17q-4 9 -5.5 18t-1.5 19v2v2v1.5v1.5v0.5v1.5q1 8 3 16.5t6 16.5t9 15t12 13v1v0z" />
    <glyph glyph-name="currency" unicode="&#xa4;" horiz-adv-x="500" 
 />
    <glyph glyph-name="yen" unicode="&#xa5;" horiz-adv-x="705" 
d="M70 703q8 5 16 9.5t17 7.5q8 3 17 5t18 2q13 -1 26 -4.5t26 -10.5t25 -17.5t24 -24.5l113 -137l114 138q8 9 17 17t18 15t18 11.5t19 7.5q3 2 6.5 2.5t7.5 1.5h4t4 1h3h4q5 0 9 -0.5t9 -1.5q4 -1 8.5 -2t8.5 -3q8 -3 16.5 -7.5t16.5 -10.5q5 -4 9 -7.5t8 -8.5
q4 -4 7.5 -9.5t6.5 -10.5l2 -4t2 -3q0 -2 1 -4l2 -4t1.5 -4t1.5 -3q0 -2 0.5 -3.5t1.5 -3.5q0 -4 0.5 -8t1.5 -8v-4t1 -3v-3.5v-3.5q0 -10 -1.5 -18.5t-4.5 -16.5t-7 -15t-9 -13l-110 -114h88q7 -1 13 -4t11 -8t7.5 -12t2.5 -15q0 -9 -2.5 -16t-7.5 -12q-5 -6 -11 -8.5
t-13 -2.5h-155l-14 -14l3 -26l167 1q7 -1 13 -4t11 -8t7.5 -11.5t2.5 -14.5v-1.5v-0.5v0v0v-1.5v-0.5v0v0v-1v0q-1 -7 -4 -13.5t-8 -11.5q-5 -4 -10.5 -6.5t-11.5 -2.5l-168 1l-2 -129q0 -7 -0.5 -13t-1.5 -11q-1 -6 -3 -11.5t-4 -10.5q-7 -17 -17.5 -30.5t-25.5 -22.5
t-31 -13.5t-33 -4.5q-5 0 -10.5 0.5t-11.5 1.5t-11.5 3t-10.5 4q-6 1 -11 3.5t-10 5.5q-4 3 -8.5 7.5l-8.5 8.5q-8 8 -14 17t-11 19q-4 11 -6 21.5t-2 21.5v0v1v0v0v0.5v1.5l2 129h-165q-4 -1 -7.5 -0.5t-6.5 1.5l-7 3.5t-6 4.5q-3 2 -4.5 4.5t-3.5 5.5q-1 3 -2.5 6t-1.5 6
q-1 0 -1 1v2v1.5v1.5q0 4 1 7.5t2 6.5q2 3 3.5 6t4.5 6t6.5 5.5t7.5 3.5q4 2 8 3t8 1l164 1l-2 25l-12 14h-150q-4 -1 -8 0l-8 2q-4 2 -7 4t-6 5q-3 2 -4.5 5l-3.5 7q-1 4 -2 7.5t-1 7.5t1 7.5t2 6.5q1 2 2 3.5t2 3.5q1 1 2.5 3t2.5 3q2 2 5 4.5t7 3.5q4 2 8 2.5t8 0.5l86 2
l-115 115q-5 4 -9.5 11t-7.5 15t-4.5 17t-1.5 19q0 7 1 14.5t3 14.5q2 8 5 15.5t7 14.5q3 5 6.5 10.5t7.5 9.5q4 5 8.5 8.5t8.5 7.5v1v0z" />
    <glyph glyph-name="brokenbar" unicode="&#xa6;" horiz-adv-x="500" 
 />
    <glyph glyph-name="section" unicode="&#xa7;" horiz-adv-x="639" 
d="M19 241v0.5v1.5q-1 1 -1 1.5v1.5v3.5v2.5v2.5v2.5v3.5v2.5q0 25 5.5 49t15.5 46q11 23 25.5 41.5t33.5 34.5q-1 2 -2.5 3.5t-2.5 3.5q-2 1 -3 3t-2 3q-2 3 -4 6.5t-4 7.5q-6 11 -10 21.5t-7 20.5q-3 11 -4.5 21.5t-1.5 20.5q0 20 5.5 38.5t15.5 37.5q11 19 26 37t35 34
q13 11 28 18.5t33 13.5t40 8.5t48 2.5h11h13q6 0 12.5 -0.5t13.5 -1.5q5 -1 10.5 -1.5t11.5 -1.5q5 -1 10.5 -1.5t10.5 -1.5t10 -2.5t11 -2.5q5 -2 10 -3t10 -3q44 -14 76 -30t51 -33t29.5 -35t12.5 -37v-2t1 -2v-2v-2v-2.5v-3.5q0 -21 -6.5 -38t-20.5 -30
q-13 -13 -29.5 -19.5t-36.5 -6.5h-1.5h-0.5h-1.5h-1.5h-2t-2 1h-2.5h-3.5h-1.5t-0.5 1h-1.5h-0.5q-6 1 -11 2.5t-10 2.5q-4 2 -8 3.5t-7 3.5l-30 22l-12 9l-15 10q-9 5 -15.5 10t-11.5 8q-4 3 -8.5 5.5t-8.5 3.5h-2t-1 1h-2h-2h-2t-1 1q-1 0 -2 0.5t-2 0.5h-1.5h-1.5h-1.5
h-1.5q-7 0 -12.5 -2t-10.5 -7q-4 -4 -6.5 -9.5t-1.5 -13.5v-1.5v-1.5v-1.5v-1.5q1 -6 3.5 -11t6.5 -10q5 -5 11.5 -9.5t16.5 -9.5l30 -11l122 -46q2 -2 3.5 -2.5t2.5 -0.5q2 -1 3.5 -1.5t2.5 -1.5l6 -2l6 -2q7 -3 13 -6t11 -6q6 -4 11 -7t9 -6q9 -6 16.5 -12.5t13.5 -13.5
q5 -6 9.5 -12t7.5 -12q4 -7 7 -13l6 -12q5 -13 8 -26.5t3 -27.5q0 -10 -1.5 -20t-3.5 -21q-2 -10 -5.5 -22t-8.5 -24q-6 -16 -14 -30t-19 -26q-10 -13 -23 -24t-27 -20q10 -11 17.5 -23t11.5 -26q2 -4 3 -8.5t2 -9.5q2 -8 3.5 -17t1.5 -18q0 -20 -5 -40t-14 -39
q-10 -19 -24 -34.5t-33 -28.5q-15 -10 -34 -18t-42 -14q-22 -6 -47 -9t-52 -3q-8 0 -16.5 0.5t-16.5 1.5q-9 1 -17.5 1.5t-16.5 1.5q-11 1 -21.5 4t-20.5 6t-20 6.5t-19 8.5q-7 4 -14 7.5t-14 6.5q-6 4 -12 7.5t-12 7.5q-11 7 -20.5 14.5t-17.5 15.5q-12 11 -21 22t-15 22
t-8.5 21.5t-2.5 21.5q0 8 1.5 15.5t4.5 15.5q2 4 4 7t4 7q3 3 6 6.5t6 7.5t6.5 7t7.5 6t8.5 5.5t8.5 4.5l6 2l6 2q2 1 5 2l6 2t6 1.5t6 0.5q2 1 5 1h6q9 0 18.5 -2t19.5 -7q9 -4 19.5 -10.5t20.5 -14.5l6 -5l22 -20q1 -1 2 -1.5t2 -1.5q0 -1 1 -1.5t2 -1.5t2 -1.5t2 -1.5
q1 0 2 -0.5t2 -1.5q4 -3 8.5 -5.5t8.5 -4.5q5 -2 9.5 -4t10.5 -4h1.5t1.5 -1h1.5h1.5q2 0 3.5 -0.5t2.5 -1.5h0.5t1.5 -1h0.5h1.5h1.5h1.5h0.5h1.5q5 0 9 1.5t7 4.5q2 3 3.5 7.5t2.5 10.5v2v1q-1 1 -1 2v2v2v1q-1 1 -1 2v2q-1 1 -1.5 3.5t-2.5 5.5q-1 2 -3.5 4.5t-5.5 4.5
q-2 1 -4.5 2.5t-4.5 2.5q-3 2 -6 3.5t-7 2.5l-26 12h-2l-103 39q-36 12 -61.5 27.5t-40.5 33.5q-16 18 -25 43t-12 57v1v0zM255 312l-2 -2l-2 -2q-3 -4 -4.5 -7t-3.5 -6q-1 -4 -1.5 -7.5t-0.5 -7.5v-1.5v-0.5v-1.5v-1.5v-1.5v-0.5q0 -1 0.5 -1.5t0.5 -1.5q1 -4 2.5 -7.5
t3.5 -6.5t6 -6t9 -5l4 -2t5 -2q2 -1 3.5 -1.5t2.5 -0.5q2 -1 3.5 -1.5t3.5 -1.5l89 -31l1 2v1l5 4l2 2q1 1 1.5 3t1.5 4t1.5 4.5t0.5 5.5v1.5v1.5v1v2v0v1q-1 0 -1 0.5v0.5v1.5v1.5q-1 5 -4 10.5t-8 9.5q-5 5 -12 8.5t-16 7.5l-91 34v0v0z" />
    <glyph glyph-name="dieresis" unicode="&#xa8;" horiz-adv-x="342" 
d="M-1 612q-5 6 -9.5 13.5t-8.5 15.5q-3 8 -5 17t-3 19v0.5v1.5v0.5v1.5q0 5 0.5 9t1.5 9q1 4 2 8.5t3 8.5q4 8 9 15.5t11 14.5q5 7 13 12t17 9t18 5.5t19 1.5h2h2h1.5h1.5h0.5h1.5l8 -2l8 -2q3 -1 7 -2t8 -3q8 -4 14.5 -8.5t12.5 -10.5q7 -7 12 -15t8 -17q2 -4 3 -8.5
t2 -8.5q1 -5 1.5 -9t0.5 -9q0 -10 -2 -19t-5 -18q-4 -9 -9 -16.5t-12 -14.5t-15 -12t-17 -8q-9 -4 -18 -5.5t-18 -1.5t-18 1.5t-17 5.5q-9 3 -16.5 8t-13.5 12l-1 1v0zM209 612q-7 6 -12 13.5t-9 16.5q-4 8 -5.5 17t-1.5 19q0 5 0.5 9.5t1.5 9.5q0 4 1.5 9t3.5 9q3 9 8 16.5
t12 14.5t15 12t17 9t18 5.5t19 1.5h2h2h1.5h1.5h0.5h1.5l8 -2l8 -2q3 -1 7 -2t8 -3q8 -4 14.5 -8.5t12.5 -10.5q7 -7 12 -15t9 -17q3 -9 5 -18t2 -18v-1.5v-0.5v-1.5v-1.5v-2v-2q-1 -8 -3.5 -15.5t-6.5 -15.5q-4 -7 -8.5 -14t-10.5 -13q-7 -7 -15 -12t-17 -8
q-4 -2 -8.5 -3.5t-8.5 -1.5q-5 -1 -9 -1.5t-9 -0.5q-9 0 -18 1.5t-18 5.5q-9 3 -16.5 8t-14.5 12v1v0z" />
    <glyph glyph-name="copyright" unicode="&#xa9;" horiz-adv-x="790" 
d="M51 330q0 70 25 131t76 112q50 50 111 75.5t133 25.5q71 0 132 -25.5t112 -75.5q50 -51 75.5 -112t25.5 -132q0 -72 -25.5 -133t-75.5 -111q-51 -50 -112 -74.5t-132 -24.5q-72 0 -133 24.5t-111 74.5q-51 50 -76 111t-25 133v1v0zM91 330q0 -64 22 -118t67 -99t99 -67
t117 -22t116.5 22t98.5 67t67.5 99t22.5 117t-22.5 116.5t-67.5 98.5t-98.5 67.5t-116.5 22.5t-117 -22.5t-99 -67.5t-67 -98.5t-22 -116.5v1v0zM525 518h19l4 -128h-20l-2.5 7.5l-3.5 10.5t-5 12t-6 13q-4 7 -9.5 13.5t-11.5 13.5t-13.5 12.5t-16.5 9.5q-7 2 -13.5 4.5
t-12.5 3.5q-7 2 -13.5 2.5t-12.5 0.5q-14 0 -27 -3t-25 -9t-22.5 -15t-19.5 -20q-10 -12 -17 -25.5t-12 -28.5t-8 -30t-4 -31v-1.5v-0.5v-1.5v-1.5v-1.5v-0.5v-1.5v-1.5q0 -29 7.5 -55.5t22.5 -50.5t37 -36t51 -13h3.5h2.5h1.5h1.5h0.5h1.5t1.5 -0.5t1.5 -0.5h0.5h1.5h1.5
h1.5h0.5h1.5q11 0 20.5 1t18.5 2q9 2 17.5 5t16.5 7q5 2 10 5t10 7t10.5 8.5t11.5 8.5l12 11l11 -18q-3 -4 -6.5 -7.5l-7.5 -7.5l-4 -4l-4 -4q-2 -3 -4.5 -5t-4.5 -4q-10 -8 -22.5 -15.5t-26.5 -14.5t-31.5 -10t-37.5 -3q-7 0 -14.5 0.5t-15.5 1.5q-8 2 -16.5 3.5t-16.5 3.5
q-32 8 -56 25.5t-41 44.5q-16 27 -24 55.5t-8 59.5q0 23 4.5 45.5t14.5 44.5t25 40t34 32q14 11 28.5 17.5t27.5 10.5q14 4 27 6t26 2q9 0 17.5 -0.5t16.5 -2.5l8 -2t8 -1q4 -1 7.5 -2t7.5 -2t7.5 -2t7.5 -2q2 -1 3.5 -1.5t3.5 -0.5q1 -1 3 -1h3q2 -1 3.5 -1h2.5h3.5h2.5
q5 0 8.5 1t7.5 3q3 2 5 5t3 7v1v0z" />
    <glyph glyph-name="ordfeminine" unicode="&#xaa;" horiz-adv-x="500" 
 />
    <glyph glyph-name="guillemotleft" unicode="&#xab;" horiz-adv-x="500" 
 />
    <glyph glyph-name="logicalnot" unicode="&#xac;" horiz-adv-x="713" 
d="M15 233v55h665v-288h-55v233h-610v0v0z" />
    <glyph glyph-name="sfthyphen" unicode="&#xad;" 
 />
    <glyph glyph-name="registered" unicode="&#xae;" horiz-adv-x="790" 
d="M740 325q0 -73 -25.5 -133.5t-75.5 -110.5q-51 -50 -112 -74.5t-132 -25.5q-72 0 -133 24.5t-111 74.5q-51 50 -76 111t-25 133q-1 71 24 132t76 112q51 50 112 75.5t133 25.5q71 0 132 -25.5t112 -75.5q50 -51 75.5 -112t25.5 -132v1v0zM700 325q0 62 -22.5 115.5
t-67.5 98.5t-99 67.5t-117 22.5t-117 -22.5t-99 -67.5t-67 -99t-21 -117q0 -63 22 -117t67 -99q44 -45 98 -67t118 -21q63 0 116.5 22t98.5 67q45 44 67.5 98t22.5 118v1v0zM343 328v-130q0 -9 3 -14.5t9 -8.5t13.5 -5t14.5 -2h1.5h1.5h2h2v-17h-160v18q1 -1 1.5 -1h1.5h2h2
q8 0 15 2t14 5q6 3 9.5 7.5t3.5 11.5v289q0 10 -2 16.5t-5 8.5q-4 2 -13 3t-24 1v19h167q2 -1 3 -1h3h2.5h2.5h6h6q7 -1 14 -1.5t14 -1.5t13.5 -3t12.5 -4q1 -1 2 -1.5t3 -0.5q1 -1 2.5 -1.5t2.5 -1.5q3 -1 6 -2.5t6 -3.5l8 -6t8 -7q5 -4 8 -7.5t6 -8.5q1 -1 1.5 -2.5
t1.5 -2.5q0 -2 0.5 -3l1.5 -3q1 -3 2 -5.5t2 -4.5v-2.5t1 -3.5v-2.5v-3.5v-2.5t1 -2.5v-3v-2q0 -12 -2 -22.5t-7 -19.5q-2 -4 -4.5 -8.5t-4.5 -7.5q-3 -4 -5.5 -7t-4.5 -6h-0.5h-0.5l-1 -1v0v0v0l-1 -1v0q-1 -1 -2 -1.5l-1 -0.5q-1 -1 -2 -1.5t-2 -1.5l-2 -2t-2 -1
q-2 -1 -3 -2l-2 -2q-3 -1 -5.5 -2.5t-5.5 -2.5q-3 -2 -6.5 -3t-6.5 -3q-7 -3 -14.5 -4t-15.5 -1l120 -153q4 -6 8.5 -9t8.5 -4q5 -1 9.5 -1.5t9.5 -0.5v-17h-95l-133 177h-26v0v0zM342 490l1 -139q2 -1 4.5 -1h4.5h4.5h4.5h1.5h1.5h1.5h1.5q6 0 12 0.5t12 1.5q6 0 12 1.5
t12 4.5q15 5 26.5 12t18.5 16q8 9 11.5 19.5t3.5 23.5v3.5v2.5v1.5v1.5q-1 1 -1 1.5v1.5q-1 12 -4 21t-8 16q-4 6 -9.5 11t-10.5 8q-4 2 -8 3.5t-7 2.5t-6 1.5t-5 0.5l-53 5q-4 -1 -7.5 -2.5t-6.5 -4.5t-5 -6t-2 -8v1v0z" />
    <glyph glyph-name="overstore" unicode="&#xaf;" 
 />
    <glyph glyph-name="glyph113" unicode="&#xb0;" horiz-adv-x="400" 
d="M350 534q0 -32 -11 -58t-33 -48t-48.5 -33t-57.5 -11t-57.5 11t-48.5 33t-33 48t-11 57q-1 31 10 57.5t33 48.5q23 22 49.5 33t57.5 11t57.5 -11t48.5 -33t33 -48.5t11 -57.5v1v0zM310 534q0 22 -8 41t-25 35q-16 17 -35.5 25t-42.5 8q-22 0 -41.5 -8t-36.5 -25
q-16 -16 -24 -35t-7 -42q0 -22 8 -41.5t24 -35.5t35.5 -24t42.5 -8t42 8t35 24q17 16 25 35.5t8 41.5v1v0z" />
    <glyph glyph-name="plusminus" unicode="&#xb1;" horiz-adv-x="549" 
d="M539 0h-529v55h529v-55v0v0zM10 408h237v237h55v-237h237v-55h-237v-237h-55v237h-237v55v0v0z" />
    <glyph glyph-name="twosuperior" unicode="&#xb2;" horiz-adv-x="500" 
 />
    <glyph glyph-name="threesuperior" unicode="&#xb3;" horiz-adv-x="500" 
 />
    <glyph glyph-name="acute" unicode="&#xb4;" horiz-adv-x="321" 
d="M3 627q-1 1 -1.5 2.5t-0.5 3.5q-1 1 -1 3v3v3.5v3.5v3v4q0 11 2 21t8 19t14.5 16t19.5 11l182 73q2 -1 3.5 -0.5t3.5 1.5q1 0 3 0.5t3 0.5q3 1 6.5 1.5t7.5 0.5q10 0 19.5 -3t18.5 -9t16 -14t11 -18q1 -2 1.5 -4t1.5 -4q0 -1 0.5 -2.5t1.5 -3.5v-4v-4v-2t1 -1v-2v-2
q0 -10 -3 -20t-9 -19t-14 -15.5t-18 -10.5l-182 -73q-4 -2 -7.5 -3.5t-6.5 -1.5q-1 0 -3 -0.5t-3 -0.5h-3.5h-3.5q-11 0 -21.5 3t-19.5 9q-10 6 -16.5 14.5t-10.5 19.5v1v0z" />
    <glyph glyph-name="mu" unicode="&#xb5;" horiz-adv-x="576" 
d="M61 500h86v-332q0 -19 2.5 -35t8.5 -30q5 -14 15.5 -24.5t25.5 -17.5q5 -3 10.5 -4.5t11.5 -3.5q5 -1 10.5 -1.5t10.5 -0.5h4.5h5.5q2 0 4.5 0.5t4.5 1.5q5 2 10 3.5t10 3.5q3 2 6 3.5l7 3.5t8 5l8 6q3 2 6 4.5t7 5.5l6 6l6 6q6 6 10.5 13.5t8.5 14.5v372h86v-383v-3v-1
v-2v-2v-2v-1q0 -1 0.5 -2t0.5 -2q0 -8 2 -16t5 -16q3 -7 7 -13t8 -11q4 -4 7.5 -6.5t7.5 -4.5t8 -3t8 -1q2 0 4.5 0.5t5.5 1.5t6 2.5t6 2.5q5 3 9 6.5t7 7.5q2 5 4 9.5t3 8.5q1 2 1.5 4t0.5 4t0.5 4t1.5 4q0 2 0.5 4t1.5 4v2t1 2l0.5 1t0.5 2l20 1q-1 -3 -1.5 -5.5
t-0.5 -4.5q-1 -3 -1.5 -5.5t-1.5 -4.5q-1 -5 -2.5 -10t-3.5 -10q-3 -9 -8 -18t-11 -17q-7 -9 -16.5 -16t-21.5 -12q-7 -4 -14 -7t-14 -4q-7 -2 -13.5 -2.5t-12.5 -0.5q-7 0 -14 1t-13 3t-11 4.5t-8 4.5h-0.5h-0.5l-1 1v0v0v0l-1 1v0q-1 0 -2.5 0.5t-3.5 1.5q-1 2 -2.5 3.5
t-3.5 2.5q-7 6 -11.5 13t-6.5 14q-3 7 -4.5 14.5t-3.5 14.5v2v2q-1 1 -1 2v2q-1 2 -1.5 4.5t-0.5 4.5q-4 -5 -9 -12t-12 -15t-19.5 -18.5t-29.5 -23.5q-8 -6 -18 -10.5t-21 -8.5q-12 -5 -24 -7t-25 -2h-1.5h-1.5h-1.5h-1.5q-10 1 -19.5 3t-17.5 6l-15 7.5t-13 7.5
q-3 2 -5 3.5t-5 3.5q-2 1 -3.5 3t-3.5 3q-4 3 -7 6t-5 4v-22q0 -11 1.5 -20.5t2.5 -17.5q2 -8 4 -15.5t5 -14.5q0 -2 0.5 -4.5t1.5 -4.5t1.5 -4t1.5 -5q1 -2 2 -4.5t2 -5.5q0 -2 1 -5l2 -6t1.5 -6t1.5 -6q0 -3 0.5 -6.5t1.5 -7.5t1.5 -7.5t0.5 -6.5v-3.5v-3.5v-3v-3
q0 -17 -3.5 -29t-10.5 -21t-14 -14.5t-15 -6.5h-1.5h-1.5h-1.5h-0.5h-1.5h-1.5h-1.5h-0.5q-8 1 -15.5 6.5t-14.5 14.5t-10 21.5t-3 29.5v6v6t0.5 6.5t1.5 7.5q1 6 2 11.5t2 10.5q1 2 1.5 4.5t1.5 4.5q0 2 0.5 4.5t1.5 4.5q0 1 0.5 3t1.5 3q0 2 0.5 3.5t1.5 3.5q1 3 1.5 6
t1.5 6q1 4 2 7.5t2 7.5q0 4 1 7.5t2 7.5q2 8 2.5 17.5t0.5 19.5v492v0v0z" />
    <glyph glyph-name="paragraph" unicode="&#xb6;" horiz-adv-x="500" 
 />
    <glyph glyph-name="middot" unicode="&#xb7;" 
 />
    <glyph glyph-name="cedilla" unicode="&#xb8;" horiz-adv-x="500" 
 />
    <glyph glyph-name="onesuperior" unicode="&#xb9;" horiz-adv-x="500" 
 />
    <glyph glyph-name="ordmasculine" unicode="&#xba;" horiz-adv-x="500" 
 />
    <glyph glyph-name="guillemotright" unicode="&#xbb;" horiz-adv-x="500" 
 />
    <glyph glyph-name="onequarter" unicode="&#xbc;" horiz-adv-x="500" 
 />
    <glyph glyph-name="onehalf" unicode="&#xbd;" horiz-adv-x="500" 
 />
    <glyph glyph-name="threequarters" unicode="&#xbe;" horiz-adv-x="500" 
 />
    <glyph glyph-name="questiondown" unicode="&#xbf;" horiz-adv-x="578" 
d="M269 236q-25 3 -44 12t-31 23t-18.5 33t-8.5 44l-1 16v0.5v1.5v1.5v1.5q0 21 7.5 39.5t23.5 34.5t35.5 24t43.5 8l111 -109v7q1 -2 2 -2.5t2 -0.5h2h2q0 -1 1 -1.5t2 -0.5h0.5h1.5q0 -1 0.5 -1h1.5q33 -11 58.5 -27.5t43.5 -39.5q17 -22 26 -48.5t9 -55.5
q0 -7 -0.5 -13.5t-1.5 -12.5q-1 -3 -1.5 -6t-0.5 -6q-1 -4 -1.5 -7t-1.5 -6q-8 -32 -25 -58.5t-43 -46.5q-25 -20 -62 -33t-85 -20h-3t-3 -1q-2 0 -3.5 -0.5t-3.5 -0.5h-3t-3 -1h-3.5h-3.5h-4t-3 -1h-3.5h-3.5h-6h-6q-16 0 -32 2t-31 5q-16 3 -31 7t-29 9q-20 9 -36.5 18
t-29.5 19q-13 9 -22.5 19.5t-16.5 20.5q-1 2 -2 3t-2 3q-1 1 -1.5 2.5t-1.5 2.5l-1.5 3l-1.5 3q-1 1 -1.5 2.5t-0.5 2.5q-3 5 -4.5 10.5t-2.5 11.5t-1.5 11.5t-0.5 10.5q0 14 3 26.5t10 23.5t16.5 19.5t21.5 13.5q2 1 4 1.5t4 1.5q1 0 3 0.5t4 1.5q4 1 8.5 1.5t8.5 0.5
q6 0 13 -1.5t14 -3.5q8 -2 16 -5.5t17 -8.5q2 -1 3.5 -1.5t2.5 -1.5q2 -1 3.5 -1.5t2.5 -1.5l9 -5l19 -13v-1v0v-1v0h0.5h1.5l1.5 -1.5t1.5 -0.5q1 -1 2.5 -1.5t2.5 -1.5l6 -3t10 -4q5 -2 9.5 -3.5t8.5 -2.5t7.5 -2t7.5 -1h1.5h1.5h1h2h0.5h1.5h1.5h1.5q8 0 15 1t11 2
q5 2 8.5 4.5t5.5 6.5q2 2 3 4.5t2 5.5q1 2 1.5 4.5t0.5 4.5q0 4 -1.5 7t-3.5 6t-5 5.5t-8 3.5h-1.5t-0.5 1h-1.5h-1.5h-1.5t-0.5 1h-1.5h-0.5l-18 5l-2 1v0v0zM275 494q-25 -1 -47 8t-40 27t-26.5 40t-8.5 47t9 46.5t27 39.5t39.5 27t46.5 9q12 0 23.5 -2.5t22.5 -7.5
q11 -4 21 -11t19 -15q9 -9 16 -19.5t11 -21.5l4 -12t3 -11q2 -6 2.5 -12t0.5 -12v-1.5v-1.5q-1 -1 -1 -1.5v-1.5v-1.5v-0.5v-1.5v-1.5q-1 -10 -3.5 -20t-7.5 -19q-4 -10 -10 -18.5t-14 -16.5q-9 -9 -19 -15.5t-21 -11.5q-11 -4 -23 -6.5t-24 -2.5v1v0z" />
    <glyph glyph-name="Agrave" unicode="&#xc0;" horiz-adv-x="500" 
 />
    <glyph glyph-name="Aacute" unicode="&#xc1;" horiz-adv-x="500" 
 />
    <glyph glyph-name="Acircumflex" unicode="&#xc2;" horiz-adv-x="500" 
 />
    <glyph glyph-name="Atilde" unicode="&#xc3;" horiz-adv-x="500" 
 />
    <glyph glyph-name="Adieresis" unicode="&#xc4;" horiz-adv-x="500" 
 />
    <glyph glyph-name="Aring" unicode="&#xc5;" horiz-adv-x="500" 
 />
    <glyph glyph-name="AE" unicode="&#xc6;" horiz-adv-x="882" 
d="M49 2q-16 6 -27.5 16t-19.5 23q-7 14 -11 29t-4 32q0 7 0.5 14t2.5 14q1 8 3.5 15.5t5.5 14.5l184 486q8 19 18 33t22 23q12 8 28.5 12.5t37.5 4.5l474 1q20 -1 37.5 -8.5t32.5 -22.5t22.5 -32.5t7.5 -38.5q-1 -21 -8.5 -38.5t-21.5 -31.5q-15 -15 -32.5 -22t-37.5 -7
l-155 1v-61h139q20 -1 37.5 -8.5t32.5 -21.5q15 -15 22.5 -32.5t8.5 -37.5q0 -21 -7.5 -39t-21.5 -33q-15 -15 -32.5 -22t-37.5 -7l-140 1v-59h159q21 -1 38.5 -8.5t32.5 -22.5q14 -15 21.5 -32.5t7.5 -37.5q0 -21 -7 -38.5t-22 -32.5t-32.5 -21.5t-37.5 -6.5h-271
q-13 0 -24.5 2t-22.5 6q-11 5 -21 12t-18 16l-30 65l-2 2l-157 8l-18 -53q-4 -14 -13.5 -25t-23.5 -21q-13 -10 -29 -14.5t-33 -5.5h-1.5h-1.5h-2h-2q-7 0 -13.5 0.5t-12.5 2.5l-6 2t-6 1q-3 1 -6 1.5t-6 1.5v1v0zM293 303h84v237l-84 -237v0v0z" />
    <glyph glyph-name="Ccedilla" unicode="&#xc7;" horiz-adv-x="500" 
 />
    <glyph glyph-name="Egrave" unicode="&#xc8;" horiz-adv-x="500" 
 />
    <glyph glyph-name="Eacute" unicode="&#xc9;" horiz-adv-x="500" 
 />
    <glyph glyph-name="Ecircumflex" unicode="&#xca;" horiz-adv-x="500" 
 />
    <glyph glyph-name="Edieresis" unicode="&#xcb;" horiz-adv-x="500" 
 />
    <glyph glyph-name="Igrave" unicode="&#xcc;" horiz-adv-x="500" 
 />
    <glyph glyph-name="Iacute" unicode="&#xcd;" horiz-adv-x="500" 
 />
    <glyph glyph-name="Icircumflex" unicode="&#xce;" horiz-adv-x="500" 
 />
    <glyph glyph-name="Idieresis" unicode="&#xcf;" horiz-adv-x="500" 
 />
    <glyph glyph-name="Eth" unicode="&#xd0;" horiz-adv-x="500" 
 />
    <glyph glyph-name="Ntilde" unicode="&#xd1;" horiz-adv-x="500" 
 />
    <glyph glyph-name="Ograve" unicode="&#xd2;" horiz-adv-x="500" 
 />
    <glyph glyph-name="Oacute" unicode="&#xd3;" horiz-adv-x="500" 
 />
    <glyph glyph-name="Ocircumflex" unicode="&#xd4;" horiz-adv-x="500" 
 />
    <glyph glyph-name="Otilde" unicode="&#xd5;" horiz-adv-x="500" 
 />
    <glyph glyph-name="Odieresis" unicode="&#xd6;" horiz-adv-x="500" 
 />
    <glyph glyph-name="multiply" unicode="&#xd7;" horiz-adv-x="500" 
 />
    <glyph glyph-name="Oslash" unicode="&#xd8;" horiz-adv-x="500" 
 />
    <glyph glyph-name="Ugrave" unicode="&#xd9;" horiz-adv-x="500" 
 />
    <glyph glyph-name="Uacute" unicode="&#xda;" horiz-adv-x="500" 
 />
    <glyph glyph-name="Ucircumflex" unicode="&#xdb;" horiz-adv-x="500" 
 />
    <glyph glyph-name="Udieresis" unicode="&#xdc;" horiz-adv-x="500" 
 />
    <glyph glyph-name="Yacute" unicode="&#xdd;" horiz-adv-x="500" 
 />
    <glyph glyph-name="Thorn" unicode="&#xde;" horiz-adv-x="500" 
 />
    <glyph glyph-name="germandbls" unicode="&#xdf;" horiz-adv-x="637" 
d="M29 102v393q0 61 19.5 111t59.5 90q40 39 91 58.5t114 19.5q19 -1 37 -3t34 -6q17 -4 32 -9t28 -12q29 -15 50 -34.5t36 -44.5t22.5 -50.5t7.5 -52.5q0 -16 -3 -32t-9 -32t-14.5 -30t-19.5 -28l-1.5 -1.5l-1.5 -1.5l-1.5 -1.5t-0.5 -1.5q-1 -1 -2 -1.5t-1 -1.5l-1.5 -1.5
l-1.5 -1.5q2 -1 3.5 -1.5t2.5 -1.5q2 -1 3.5 -1.5t2.5 -1.5l1.5 -1.5t1.5 -0.5h0.5h1.5q0 -1 0.5 -1h0.5q13 -7 24 -16t21 -20q10 -10 18 -22t15 -25q5 -10 8 -19.5t6 -20.5q1 -5 2 -10.5t2 -10.5q0 -6 0.5 -11.5t0.5 -10.5q0 -16 -3 -33t-8 -34q-6 -17 -14.5 -34.5
t-19.5 -34.5q-10 -15 -20.5 -28.5t-22.5 -25.5t-24.5 -22t-25.5 -18q-2 -1 -4.5 -2.5t-4.5 -3.5q-2 -1 -4.5 -2t-4.5 -2q-11 -6 -22 -10t-22 -5q-10 -2 -20.5 -3.5t-19.5 -1.5q-22 0 -40.5 5t-34.5 15q-16 11 -25.5 25t-13.5 32q-1 2 -1.5 4t-0.5 5q-1 2 -1 4v4q-1 5 -1 8.5
v7.5q0 15 3.5 28t10.5 23q8 11 17.5 19.5t22.5 15.5l6 4l28 11q1 -1 2 -0.5t2 1.5q1 0 1.5 0.5l1.5 1.5l0.5 0.5t1.5 0.5q12 7 20.5 14t13.5 14t7.5 14t2.5 14v2v2v1.5v1.5l-1 6l-1 4q-2 5 -6 10t-9 9t-12.5 7.5t-18.5 7.5l-10 3l-19 5q-4 0 -7.5 1.5t-7.5 3.5t-8.5 4.5
t-9.5 6.5q-8 6 -14 13.5t-11 16.5q-4 9 -6.5 19.5t-1.5 23.5v4.5v4.5v4.5t1 5.5q1 9 4 17.5t7 16.5q5 8 11 14.5t14 12.5q1 0 1.5 0.5l1.5 1.5l0.5 0.5t1.5 0.5q1 1 2.5 1.5t2.5 1.5v0l1 1h0.5h0.5q1 0 1.5 0.5l1.5 1.5l9 5l11 4q2 0 4.5 0.5t3.5 1.5q1 0 2 0.5t2 1.5l1 0.5
t2 1.5t2 1.5t2 1.5l2 2l2 2q2 2 3.5 5t2.5 6t1.5 6t0.5 6q0 2 -0.5 4.5t-1.5 5.5q-1 2 -2 4.5t-3 4.5q-3 5 -7.5 8t-10.5 6q-2 1 -4.5 1.5t-4.5 1.5h-2t-3 1h-2h-3h-1.5h-1.5h-1.5t-0.5 1h-2h-1h-1.5h-1.5q-14 -1 -24.5 -6t-17.5 -14q-7 -10 -10 -25t-3 -35v-402
q0 -12 -2 -22.5t-6 -21.5q-4 -10 -10 -18.5t-14 -16.5t-17 -14t-20 -9q-10 -4 -20.5 -6t-21.5 -2q-10 0 -20.5 2t-20.5 6q-10 2 -19.5 8t-17.5 14t-14 17t-11 19q-4 11 -6 21.5t-2 21.5v1v0z" />
    <glyph glyph-name="agrave" unicode="&#xe0;" horiz-adv-x="636" 
d="M233 545q3 -1 6 -0.5t7 1.5q3 0 6 0.5t6 0.5q6 1 12 1.5t12 0.5q19 0 36 -3t33 -9t29.5 -15t25.5 -20v-2l92 49q2 0 3.5 0.5t2.5 1.5q2 1 4 1.5t4 0.5h2t2 1h1h2h2t2 1h1h2q5 0 10.5 -1.5t10.5 -3.5t10 -5t9 -7q10 -10 17.5 -21.5t12.5 -24.5t8 -26.5t3 -27.5v-335
q0 -26 -7.5 -46t-22.5 -35q-15 -16 -32.5 -23t-37.5 -7h-1.5h-0.5h-1.5h-1.5q-1 1 -1.5 1h-0.5h-1.5h-1.5l-91 51v-5q-11 -12 -24.5 -21t-28.5 -15q-15 -4 -33 -7.5t-38 -3.5q-7 0 -13.5 0.5t-13.5 1.5q-4 0 -7.5 0.5t-6.5 1.5q-4 0 -7.5 0.5t-7.5 1.5q-23 3 -45.5 12
t-43.5 24t-39.5 34t-34.5 43q-10 17 -18.5 34.5t-13.5 36.5q-6 20 -8.5 40t-2.5 41v2v2v1v2v4v4q2 51 18.5 95t47.5 81t67.5 59.5t79.5 30.5v1v0zM241 265q0 -10 1 -18t4 -15q2 -7 6 -14t9 -13q5 -7 11.5 -12t13.5 -8q8 -4 15.5 -5.5t14.5 -1.5h0.5h1.5h2h2q8 1 16.5 4
t16.5 8t14.5 12t11.5 17q2 3 3.5 6.5t2.5 7.5q2 3 2.5 7t1.5 8v2t1 3v2v2v2t1 3v2v2v1.5v1.5v1.5v1.5q-1 1 -1 1.5v1.5v1.5v1.5q-2 13 -6 23.5t-10 19.5q-6 8 -13.5 14.5t-16.5 10.5q-2 1 -4 1.5t-4 1.5q-2 0 -3.5 0.5t-3.5 1.5h-2t-2 1h-2h-2h-2t-2 1h-2h-2
q-13 -1 -24.5 -6t-21.5 -14t-16.5 -21.5t-9.5 -29.5v-1.5v-0.5q-1 -1 -1 -1.5v-1.5v-2v-2v-1.5v-0.5q-1 -1 -1 -1.5v-1.5v-2v-2v1v0zM158 754q4 10 10.5 18t16.5 14q9 6 19.5 9t21.5 3h3.5h3.5q1 -1 3 -1h3q3 -1 6.5 -1.5t7.5 -2.5l182 -73q10 -5 18 -11.5t14 -15.5t9 -19
t3 -21q0 -4 -0.5 -7.5t-1.5 -6.5q0 -1 -0.5 -3t-1.5 -3q0 -2 -0.5 -3.5t-1.5 -3.5q-4 -10 -11 -18.5t-16 -14.5t-18.5 -9t-20.5 -2h-7.5t-6.5 1q-3 0 -6 1.5t-6 2.5l-182 72q-11 3 -19.5 9.5t-14.5 16.5q-6 9 -9 19.5t-3 21.5v3.5v3.5q0 1 0.5 3t0.5 3q0 3 1.5 6.5t2.5 7.5
v1v0z" />
    <glyph glyph-name="aacute" unicode="&#xe1;" horiz-adv-x="500" 
 />
    <glyph glyph-name="acircumflex" unicode="&#xe2;" horiz-adv-x="500" 
 />
    <glyph glyph-name="atilde" unicode="&#xe3;" horiz-adv-x="500" 
 />
    <glyph glyph-name="adieresis" unicode="&#xe4;" horiz-adv-x="636" 
d="M233 545q3 -1 6 -0.5t7 1.5q3 0 6 0.5t6 0.5q6 1 12 1.5t12 0.5q19 0 36 -3t33 -9t29.5 -15t25.5 -20v-2l92 49q2 0 3.5 0.5t2.5 1.5q2 1 4 1.5t4 0.5h2t2 1h1h2h2t2 1h1h2q5 0 10.5 -1.5t10.5 -3.5t10 -5t9 -7q10 -10 17.5 -21.5t12.5 -24.5t8 -26.5t3 -27.5v-335
q0 -26 -7.5 -46t-22.5 -35q-15 -16 -32.5 -23t-37.5 -7h-1.5h-0.5h-1.5h-1.5q-1 1 -1.5 1h-0.5h-1.5h-1.5l-91 51v-5q-11 -12 -24.5 -21t-28.5 -15q-15 -4 -33 -7.5t-38 -3.5q-7 0 -13.5 0.5t-13.5 1.5q-4 0 -7.5 0.5t-6.5 1.5q-4 0 -7.5 0.5t-7.5 1.5q-23 3 -45.5 12
t-43.5 24t-39.5 34t-34.5 43q-10 17 -18.5 34.5t-13.5 36.5q-6 20 -8.5 40t-2.5 41v2v2v1v2v4v4q2 51 18.5 95t47.5 81t67.5 59.5t79.5 30.5v1v0zM241 265q0 -10 1 -18t4 -15q2 -7 6 -14t9 -13q5 -7 11.5 -12t13.5 -8q8 -4 15.5 -5.5t14.5 -1.5h0.5h1.5h2h2q8 1 16.5 4
t16.5 8t14.5 12t11.5 17q2 3 3.5 6.5t2.5 7.5q2 3 2.5 7t1.5 8v2t1 3v2v2v2t1 3v2v2v1.5v1.5v1.5v1.5q-1 1 -1 1.5v1.5v1.5v1.5q-2 15 -7 27.5t-13 21.5t-18.5 15t-22.5 9h-2t-2 1h-2h-2h-2h-1h-2h-2q-13 0 -25 -4.5t-22 -13.5t-16.5 -22t-9.5 -30v-1.5v-0.5q-1 -1 -1 -1.5
v-1.5v-2v-2v-1.5v-0.5q-1 -1 -1 -1.5v-1.5v-2v-2v1v0zM163 598q-7 6 -12 13.5t-9 15.5t-6 17t-2 19t1.5 19.5t5.5 18.5t9 16.5t12 14.5q6 6 13 10.5t14 8.5q8 3 15.5 5t15.5 3h0.5t1.5 1h0.5h1.5h3.5h2.5q5 0 9.5 -0.5t9.5 -1.5q4 -1 9 -2.5t9 -3.5q9 -4 16.5 -9t14.5 -12
t12 -14.5t8 -16.5q2 -4 3 -8.5t2 -8.5q1 -5 1.5 -9t0.5 -9q0 -10 -2 -19t-6 -18t-9 -16.5t-12 -14.5t-15 -12t-17 -8q-4 -2 -8.5 -3.5t-8.5 -1.5q-5 -1 -9 -1.5t-9 -0.5q-9 0 -18 1.5t-17 5.5q-9 3 -16.5 8t-14.5 12v1v0zM439 571q-19 -2 -36 5t-31 20q-14 14 -21.5 31
t-8.5 36q-1 20 6 37t20 31q14 14 31 21.5t37 8.5q10 0 19.5 -2t18.5 -5q9 -4 16.5 -9t14.5 -12t12 -15t9 -17t5.5 -18t1.5 -18v-1.5v-0.5v-1.5v-1.5v-2v-2q-1 -8 -3.5 -15.5t-5.5 -15.5q-4 -7 -8.5 -14t-10.5 -13q-7 -7 -14.5 -12t-15.5 -9q-9 -4 -18 -5.5t-18 -1.5v1v0z
" />
    <glyph glyph-name="aring" unicode="&#xe5;" horiz-adv-x="636" 
d="M233 545q3 -1 6 -0.5t7 1.5q3 0 6 0.5t6 0.5q6 1 12 1.5t12 0.5q19 0 36 -3t33 -9t29.5 -15t25.5 -20v-2l92 49q2 0 3.5 0.5t2.5 1.5q2 1 4 1.5t4 0.5h2t2 1h1h2h2t2 1h1h2q5 0 10.5 -1.5t10.5 -3.5t10 -5t9 -7q10 -10 17.5 -21.5t12.5 -24.5t8 -26.5t3 -27.5v-335
q0 -26 -7.5 -46t-22.5 -35q-15 -16 -32.5 -23t-37.5 -7h-1.5h-0.5h-1.5h-1.5q-1 1 -1.5 1h-0.5h-1.5h-1.5l-91 51v-5q-11 -12 -24.5 -21t-28.5 -15q-15 -4 -33 -7.5t-38 -3.5q-7 0 -13.5 0.5t-13.5 1.5q-4 0 -7.5 0.5t-6.5 1.5q-4 0 -7.5 0.5t-7.5 1.5q-23 3 -45.5 12
t-43.5 24t-39.5 34t-34.5 43q-10 17 -18.5 34.5t-13.5 36.5q-6 20 -8.5 40t-2.5 41v2v2v1v2v4v4q2 51 18.5 95t47.5 81t67.5 59.5t79.5 30.5v1v0zM241 265q0 -8 1 -14l2 -12l3.5 -10.5t4.5 -9.5q5 -10 12 -18t16 -13t18 -7.5t19 -2.5q4 0 7.5 0.5t7.5 1.5q3 0 6.5 1.5
t7.5 3.5q8 3 14 8t12 12q4 5 7 9.5t6 10.5q2 5 3.5 11t2.5 12v2t1 3v2v2v2t1 3v2v2v1.5v1.5v1.5v1.5q-1 1 -1 1.5v1.5v1.5v1.5q-2 15 -7 27.5t-13 21.5t-18.5 15t-22.5 9h-2t-2 1h-2h-2h-2h-1h-2h-2q-13 0 -25 -4.5t-22 -13.5t-16.5 -22t-9.5 -30v-1.5v-0.5q-1 -1 -1 -1.5
v-1.5v-2v-2v-1.5v-0.5q-1 -1 -1 -1.5v-1.5v-2v-2v1v0zM343 565q-29 -2 -53 6.5t-42 25.5t-27 36t-9 41q0 21 9 40.5t27 35.5q17 17 40.5 25t52.5 8q13 0 25.5 -2t24.5 -7q12 -4 22.5 -10.5t20.5 -14.5q8 -7 14 -14.5t10 -16.5q2 -4 4 -8.5t3 -8.5q1 -5 2 -9t2 -9v-1.5v-0.5
v-1.5v-1.5v-2v-2q0 -10 -2 -20t-7 -20q-4 -10 -10.5 -18t-14.5 -16q-10 -9 -20.5 -15t-22.5 -11q-12 -4 -24 -7t-25 -3v1v0zM312 675q0 -7 2 -11.5t6 -9.5q5 -4 10 -6t11 -2h3t3 1q1 0 2.5 0.5t2.5 1.5q2 1 4.5 2.5t4.5 3.5t3.5 4t2.5 5q1 2 1 4.5v5.5q0 2 -0.5 4.5
t-1.5 5.5q-1 2 -2.5 4.5t-3.5 4.5t-4.5 3.5t-4.5 2.5q-3 1 -5.5 1.5t-4.5 0.5v0v0h-1v0v0v0v0v0h-1v0v0v0q-6 0 -10.5 -2t-8.5 -6t-6 -9t-2 -10v1v0z" />
    <glyph glyph-name="ae" unicode="&#xe6;" horiz-adv-x="984" 
d="M319 546q16 -5 29 -9.5t23 -9.5q11 -5 19 -11t15 -13v-3l34 39q3 3 7.5 6t11.5 5q6 2 15.5 3t22.5 1q6 0 12 -0.5t10 -1.5q5 -1 9 -2.5t8 -3.5l26 -21v4l20 6l20 6q11 3 21.5 5t20.5 3q5 1 10.5 1.5t9.5 0.5h4.5t5.5 1h4.5h5.5q27 0 52.5 -4.5t49.5 -13.5t45.5 -22
t40.5 -30q14 -12 26.5 -26t22.5 -29q11 -15 18.5 -30.5t13.5 -32.5q3 -10 6 -19t4 -17q2 -9 2.5 -16.5t0.5 -14.5q0 -19 -5.5 -33.5t-16.5 -24.5t-27 -14.5t-36 -4.5l-267 1l5 -6l6 -6q9 -11 19.5 -17.5t20.5 -10.5q11 -4 25 -6t30 -2h3.5h2.5h3.5h2.5h1.5h1.5h0.5h1.5h3.5
t2.5 1h2h2h3.5h2.5l17 4l18 3l26 4l19 4q2 -1 3.5 -1h2.5h2t2 1l1 0.5t2 0.5h3.5h2.5h2t2 1h1h2h2h2h1.5h1.5h0.5h1.5q8 0 14 -0.5t11 -1.5q3 -1 5.5 -1.5t4.5 -0.5q2 -1 4.5 -1.5t4.5 -1.5q11 -5 20 -12.5t16 -18.5q6 -10 9.5 -21.5t3.5 -23.5v-2.5v-3.5v-1.5v-1.5
q-1 -1 -1 -1.5v-0.5q-1 -6 -3 -12t-5 -11q-3 -6 -6 -11t-8 -10q-4 -4 -7.5 -7t-7.5 -6t-9 -6t-11 -6l-8 -4t-9 -4q-4 -2 -9.5 -4t-10.5 -4q-4 -1 -7.5 -2t-7.5 -2t-7.5 -2t-8.5 -2q-4 -1 -9.5 -2.5t-10.5 -1.5q-6 0 -12 -1l-12 -2q-13 -2 -25 -3.5t-24 -2.5t-22.5 -1.5
t-21.5 -0.5q-19 0 -37 2t-35 5q-16 3 -32.5 7.5t-31.5 11.5v5l-24 -21q-2 -1 -4 -1.5t-4 -1.5q-3 0 -5.5 -0.5t-5.5 -1.5q-6 -2 -12.5 -2.5t-13.5 -0.5h-4h-3q-2 1 -4 1h-4q-4 1 -8 1.5t-8 1.5q-3 1 -6 1.5t-6 2.5l-6 2t-5 3l-32 39v-5q-1 -2 -2.5 -3.5l-3.5 -3.5l-2.5 -2.5
l-3.5 -3.5l-1.5 -1.5l-1.5 -1.5l-1.5 -1.5t-1.5 -0.5q-10 -7 -21 -13t-25 -8q-13 -4 -28 -6t-32 -2h-6h-6q-4 1 -7 1h-6q-7 1 -13.5 1.5t-13.5 2.5q-40 7 -74 25t-62 48t-45.5 67.5t-24.5 82.5l-2 12t-1 12q-1 6 -1 12v12v8v8q0 3 0.5 7t0.5 8q1 8 2.5 16t3.5 16
q6 29 16.5 55.5t26.5 48.5q15 23 33.5 41.5t40.5 32.5q9 6 18 11t19 9q10 5 19.5 8t19.5 6q4 1 7.5 1.5t7.5 1.5q3 0 6.5 0.5t7.5 1.5q4 0 7.5 0.5t7.5 0.5q3 1 6.5 1h7.5h5.5h5.5q2 -1 4.5 -1h5.5q5 -1 10 -1.5t10 -1.5v1v0zM241 268v-5v-4v-2v-1q0 -1 0.5 -2t0.5 -2
q3 -16 9.5 -28t16.5 -20q10 -9 21.5 -13t24.5 -4h1.5h1.5h2h2h1h2h0.5t1.5 1h0.5h0.5q14 2 26 9t21 19t13.5 26.5t4.5 32.5v2v2v2v2v0.5v1.5q-1 0 -1 0.5v1.5v2v2q-1 6 -2.5 12t-4.5 12q-3 5 -6 10.5t-7 9.5q-4 5 -9.5 9t-11.5 7t-12 5t-12 3h-2h-2h-2h-2h-2h-2h-2h-2
q-7 -1 -14 -3.5t-13 -6.5q-7 -4 -12.5 -8.5t-10.5 -10.5q-4 -4 -7 -10t-5 -12q-3 -6 -4.5 -12.5t-2.5 -13.5v-1.5v-1.5v-1.5v-0.5v-1.5v-1.5v-1.5v-0.5v-1.5v-0.5v0v0v-1.5v-0.5v0v0v-1v0v1v0zM615 332h120q0 1 -0.5 2.5t-0.5 3.5q-1 1 -1.5 3t-0.5 3q0 2 -0.5 3.5t-1.5 3.5
q-1 1 -1.5 3t-1.5 3q-4 6 -8 11t-9 9q-4 4 -9.5 6.5t-10.5 3.5h-1.5h-1.5h-0.5t-0.5 1h-1v0h-2.5h-3.5h-2h-2q-8 0 -15 -2t-13 -6t-12 -10t-11 -14q-2 -3 -3.5 -6t-2.5 -6q-1 -1 -1.5 -3t-0.5 -3q-1 -2 -1 -3.5v-3.5v1v0z" />
    <glyph glyph-name="ccedilla" unicode="&#xe7;" horiz-adv-x="500" 
 />
    <glyph glyph-name="egrave" unicode="&#xe8;" horiz-adv-x="621" 
d="M604 305v-2.5v-1.5v-1.5v-0.5v-1.5v-1.5v-1.5v-0.5q0 -21 -5 -36t-16 -24q-10 -9 -28 -13.5t-42 -4.5l-260 1l1.5 -3t1.5 -1q1 -1 1.5 -2t1.5 -2q2 -1 3.5 -2.5t2.5 -3.5q0 -1 1 -1.5t2 -1.5l1.5 -1.5l1.5 -1.5q8 -7 18 -12t22 -9q11 -4 25.5 -5.5t31.5 -1.5h2h2h1.5h1.5
l0.5 0.5t1.5 0.5h2h2h1.5h1.5h0.5h1.5q7 0 15 1.5t18 2.5q9 2 20 4t24 6q9 2 16.5 4t13.5 3t11 1.5t9 0.5h1.5h1.5h0.5h1.5q18 0 32.5 -6t26.5 -18t18 -25.5t6 -29.5v-1.5v-0.5v-1.5v-1.5v-1.5v-0.5q-1 -1 -1 -1.5v-0.5v-1.5v-1.5q-1 -1 -1 -1.5v-1.5v-1.5v-0.5
q-1 -1 -1 -1.5v-0.5q-4 -13 -11 -25t-18 -21q-11 -10 -29 -19t-42 -17q-9 -3 -19 -5.5t-21 -4.5q-10 -2 -22 -3.5t-24 -2.5q-9 -1 -17.5 -1.5t-16.5 -1.5h-8t-8 -1h-8h-8q-76 1 -135.5 20t-103.5 59t-66 89.5t-21 107.5v0.5v1.5v0.5v1.5v0.5v1.5v0.5v1.5q2 56 23.5 104
t63.5 87t94.5 58.5t116.5 19.5q20 -1 39.5 -3.5t38.5 -7.5q19 -4 37 -11.5t34 -16.5q23 -13 42 -29t35 -36q16 -19 28 -39.5t20 -40.5q1 -4 2 -7.5t2 -6.5q1 -4 2 -7.5t2 -7.5q2 -7 2.5 -14.5t1.5 -14.5v1v0zM255 325h119v1v2v1.5v1.5q-1 1 -1 1.5v1.5q-2 11 -7 20t-13 15
t-17 9.5t-20 3.5h-1.5h-0.5h-1.5h-1.5h-1.5h-1.5q-1 -1 -1.5 -1h-1.5q-8 -2 -15.5 -6t-13.5 -10t-11 -13.5t-8 -18.5q0 -1 -0.5 -1.5l-0.5 -0.5q-1 -1 -1 -1.5v-1.5v-2v-2v1v0zM150 754q4 10 10.5 18t16.5 14q9 6 19.5 9t21.5 3h3.5h3.5q1 -1 3 -1h3q3 -1 6.5 -1.5t7.5 -2.5
l182 -73q10 -5 18 -11.5t14 -15.5t9 -19t3 -21q0 -4 -0.5 -7.5t-1.5 -6.5q0 -1 -0.5 -3t-1.5 -3q0 -2 -0.5 -3.5t-1.5 -3.5q-4 -10 -11 -18.5t-16 -14.5t-18.5 -9t-20.5 -2h-7.5t-6.5 1q-3 0 -6 1.5t-6 2.5l-182 72q-11 3 -19.5 9.5t-14.5 16.5q-6 9 -9 19.5t-3 21.5v3.5
v3.5q0 1 0.5 3t0.5 3q0 3 1.5 6.5t2.5 7.5v1v0z" />
    <glyph glyph-name="eacute" unicode="&#xe9;" horiz-adv-x="621" 
d="M604 305v-2.5v-1.5v-1.5v-0.5v-1.5v-1.5v-1.5v-0.5q0 -21 -5 -36t-16 -24q-10 -9 -28 -13.5t-42 -4.5l-260 1l1.5 -3t1.5 -1q1 -1 1.5 -2t1.5 -2q2 -1 3.5 -2.5t2.5 -3.5q0 -1 1 -1.5t2 -1.5l1.5 -1.5l1.5 -1.5q8 -7 18 -12t22 -9q11 -4 25.5 -5.5t31.5 -1.5h2h2h1.5h1.5
l0.5 0.5t1.5 0.5h2h2h1.5h1.5h0.5h1.5q7 0 15 1.5t18 2.5q9 2 20 4t24 6q9 2 16.5 4t13.5 3t11 1.5t9 0.5h1.5h1.5h0.5h1.5q18 0 32.5 -6t26.5 -18t18 -25.5t6 -29.5v-1.5v-0.5v-1.5v-1.5v-1.5v-0.5q-1 -1 -1 -1.5v-0.5v-1.5v-1.5q-1 -1 -1 -1.5v-1.5v-1.5v-0.5
q-1 -1 -1 -1.5v-0.5q-4 -13 -11 -25t-18 -21q-11 -10 -29 -19t-42 -17q-9 -3 -19 -5.5t-21 -4.5q-10 -2 -22 -3.5t-24 -2.5q-9 -1 -17.5 -1.5t-16.5 -1.5h-8t-8 -1h-8h-8q-76 1 -135.5 20t-103.5 59t-66 89.5t-21 107.5v0.5v1.5v0.5v1.5v0.5v1.5v0.5v1.5q2 56 23.5 104
t63.5 87t94.5 58.5t116.5 19.5q20 -1 39.5 -3.5t38.5 -7.5q19 -4 37 -11.5t34 -16.5q23 -13 42 -29t35 -36q16 -19 28 -39.5t20 -40.5q1 -4 2 -7.5t2 -6.5q1 -4 2 -7.5t2 -7.5q2 -7 2.5 -14.5t1.5 -14.5v1v0zM255 325h119v1v2v1.5v1.5q-1 1 -1 1.5v1.5q-2 11 -7 20t-13 15
t-17 9.5t-20 3.5h-1.5h-0.5h-1.5h-1.5h-1.5h-1.5q-1 -1 -1.5 -1h-1.5q-8 -2 -15.5 -6t-13.5 -10t-11 -13.5t-8 -18.5q0 -1 -0.5 -1.5l-0.5 -0.5q-1 -1 -1 -1.5v-1.5v-2v-2v1v0zM153 627q-1 1 -1.5 2.5t-1.5 3.5q0 1 -0.5 3t-0.5 3q-1 3 -1 6.5v7.5q0 11 3 21t9 19t14.5 16
t19.5 11l182 73q2 -1 3.5 -0.5t3.5 1.5q1 0 3 0.5t3 0.5q3 1 6.5 1.5t7.5 0.5q10 0 19.5 -3t18.5 -9t16 -14t11 -18q1 -2 1.5 -4t1.5 -4q0 -1 0.5 -2.5t1.5 -3.5v-4v-4v-2t1 -1v-2v-2q0 -10 -3 -20t-9 -19t-14 -15.5t-18 -10.5l-182 -73q-4 -2 -7.5 -3.5t-6.5 -1.5
q-1 0 -3 -0.5t-3 -0.5h-3.5h-3.5q-11 0 -21.5 3t-19.5 9q-10 6 -16.5 14.5t-10.5 19.5v1v0z" />
    <glyph glyph-name="ecircumflex" unicode="&#xea;" horiz-adv-x="500" 
 />
    <glyph glyph-name="edieresis" unicode="&#xeb;" horiz-adv-x="500" 
 />
    <glyph glyph-name="igrave" unicode="&#xec;" horiz-adv-x="500" 
 />
    <glyph glyph-name="iacute" unicode="&#xed;" horiz-adv-x="500" 
 />
    <glyph glyph-name="icircumflex" unicode="&#xee;" horiz-adv-x="500" 
 />
    <glyph glyph-name="idieresis" unicode="&#xef;" horiz-adv-x="500" 
 />
    <glyph glyph-name="eth" unicode="&#xf0;" horiz-adv-x="500" 
 />
    <glyph glyph-name="ntilde" unicode="&#xf1;" horiz-adv-x="500" 
 />
    <glyph glyph-name="ograve" unicode="&#xf2;" horiz-adv-x="500" 
 />
    <glyph glyph-name="oacute" unicode="&#xf3;" horiz-adv-x="500" 
 />
    <glyph glyph-name="ocircumflex" unicode="&#xf4;" horiz-adv-x="500" 
 />
    <glyph glyph-name="otilde" unicode="&#xf5;" horiz-adv-x="500" 
 />
    <glyph glyph-name="odieresis" unicode="&#xf6;" horiz-adv-x="632" 
d="M316 -11q-63 1 -115.5 21t-94.5 60q-43 41 -64.5 90t-21.5 107q-1 58 20 107.5t64 91.5q42 41 95 62t117 21q29 0 56 -4.5t52 -13.5q26 -9 48.5 -22.5t42.5 -30.5q23 -20 41 -43t30 -49t18.5 -53t7.5 -54v-1.5v-0.5v-1.5v-1.5v-1.5v-0.5v-1.5v-1.5q0 -36 -9.5 -70
t-27.5 -67t-45 -59t-62 -46q-16 -10 -34 -17t-38 -10q-19 -5 -39 -7.5t-41 -2.5v-1v0zM238 266q0 -22 5.5 -38.5t17.5 -28.5q12 -13 25.5 -19t29.5 -6h2h2h1h2q2 0 4 0.5t4 1.5q12 2 22.5 7.5t17.5 14.5q8 8 13 20t8 27v1.5v1.5v0.5v1.5v1.5t1 1.5v1.5v1.5v1.5t1 1.5v0.5
v1.5v3.5v2.5q0 7 -1 13.5t-3 13.5q-1 6 -3.5 12t-5.5 11q-6 10 -13 17.5t-15 11.5q-8 5 -17 7.5t-19 2.5h-2h-2h-1.5h-0.5q-1 -1 -1.5 -1h-0.5h-1.5h-1.5q-1 -1 -1.5 -1h-0.5h-2h-2q-7 -1 -14 -4t-13 -8q-6 -4 -11.5 -10.5t-10.5 -14.5q-4 -5 -6 -11t-4 -13q-1 -7 -2 -13.5
t-1 -14.5v1v0zM146 596q-7 6 -12 13.5t-9 15.5t-6 17t-2 19t1.5 19.5t5.5 18.5q3 9 8.5 17t12.5 15t14.5 12t16.5 9q9 3 18 5t19 2q5 0 9.5 -0.5t9.5 -1.5q4 -1 9 -2.5t9 -3.5q9 -4 16.5 -9t14.5 -12t12 -15t8 -17q2 -4 3 -8.5t2 -8.5q1 -5 1.5 -9t0.5 -9q0 -10 -2 -19
t-6 -18t-9 -16.5t-12 -14.5t-15 -12t-17 -8q-4 -2 -8.5 -3.5t-8.5 -1.5q-5 -1 -9 -1.5t-9 -0.5q-9 0 -18 1.5t-17 5.5q-9 3 -16.5 8t-14.5 12v1v0zM353 596q-7 6 -12 13.5t-9 16.5q-4 8 -6 17t-2 19t1.5 19t5.5 18q3 9 8 16.5t12 14.5t15 12t17 9t18 6t19 2q9 0 18 -2t18 -5
q9 -4 16.5 -9t14.5 -12t12 -15t9 -17q2 -4 3.5 -9t1.5 -9q1 -5 1.5 -9.5t0.5 -9.5q0 -9 -2 -18t-5 -18q-4 -9 -9 -16.5t-12 -14.5t-15 -12t-17 -8q-9 -4 -18 -5.5t-18 -1.5t-18 1.5t-17 5.5q-9 3 -16.5 8t-14.5 12v1v0z" />
    <glyph glyph-name="divide" unicode="&#xf7;" horiz-adv-x="549" 
d="M212 127q0 10 4 20t12 18t18 12.5t22 4.5q11 0 21 -4.5t18 -12.5t12.5 -18t4.5 -21q0 -12 -4.5 -22t-12.5 -18t-18 -12t-21 -4q-12 0 -22 4t-18 12t-12 18t-4 22v1v0zM10 236v55h526v-55h-526v0v0zM212 400q0 10 4 20t12 18t18 12.5t22 4.5q11 0 21 -4.5t18 -12.5
t12.5 -18t4.5 -21q0 -12 -4.5 -22t-12.5 -18t-18 -12t-21 -4q-12 0 -22 4t-18 12t-12 18t-4 22v1v0z" />
    <glyph glyph-name="oslash" unicode="&#xf8;" horiz-adv-x="641" 
d="M262 547q4 0 8 0.5t8 0.5q3 1 7 1.5t8 0.5q8 1 15.5 1h14.5q26 0 51 -4.5t48 -12.5q23 -9 44 -21.5t40 -29.5l73 72q2 1 3.5 1.5t3.5 1.5t4.5 1.5t4.5 0.5v0h1v0v0h0.5h1.5q4 -1 7 -2.5t6 -4.5q2 -3 3.5 -6.5t1.5 -7.5v-1.5v-0.5v0v0v-1v0q-1 -2 -1.5 -4t-1.5 -4
l-1.5 -1.5t-0.5 -1.5l-1.5 -1.5l-1.5 -1.5l-70 -67q2 -3 3.5 -5t3.5 -4q1 -2 3 -4t3 -4q2 -2 3.5 -4t2.5 -4q2 -3 3.5 -5t2.5 -4q12 -18 20.5 -36.5t14.5 -38.5q3 -10 5.5 -20t3.5 -19q2 -10 2.5 -20t0.5 -20q0 -43 -13 -82.5t-39 -76.5q-25 -37 -61 -63t-82 -41l-6 -2
t-5 -2q-3 0 -6 -0.5t-6 -0.5q-3 -1 -6 -1.5t-6 -1.5q-4 0 -7 -0.5t-6 -1.5q-7 -1 -14 -1.5t-14 -1.5t-14 -1.5t-14 -0.5q-26 1 -51 5t-49 11q-24 8 -45.5 19.5t-41.5 27.5l-71 -68h-1.5t-0.5 -1q-1 0 -1.5 -0.5t-1.5 -0.5t-1.5 -0.5l-0.5 -0.5q-1 -1 -1.5 -1h-1.5h-0.5
t-0.5 -1h-1.5h-0.5h-1.5h-0.5q-2 0 -4.5 0.5t-4.5 1.5t-3.5 2t-3.5 3l-2.5 2.5t-2.5 3.5q0 1 -0.5 1.5l-0.5 0.5v1.5v1.5t-0.5 2l-0.5 1q0 1 0.5 2t0.5 2q1 2 2.5 4.5t2.5 3.5l72 71q-4 3 -7.5 7t-6.5 8t-6 8.5t-5 8.5q-10 14 -17.5 28t-12.5 29q-6 15 -9.5 30t-5.5 30
l-2 10t-1 10v10v10q0 42 13 81.5t38 76.5q26 36 61.5 62t81.5 42q6 2 12 4.5t12 3.5q6 2 12 2.5t12 1.5v1v0zM267 193q1 -2 2 -2.5t2 -1.5t2 -1.5t2 -1.5q2 -1 4.5 -2.5t5.5 -2.5q2 -1 4.5 -2t5.5 -2q2 -1 4.5 -1.5t5.5 -0.5q2 -1 4.5 -1h5.5h1.5h1.5h2t2 1h1.5h1.5h0.5
t1.5 1h0.5h1.5q16 4 28 11.5t19 17.5q8 11 12 25.5t4 33.5v2v2v2v2q-1 1 -1 2v2v2v2v0.5v1.5v0.5v1.5q-1 0 -1 0.5v0.5v0v1q-1 0 -1 0.5v0.5v1.5v1.5l-1 8l-2 7l-119 -112v0v0zM361 341q-4 1 -7.5 3.5t-7.5 4.5t-8 3l-8 2h-2h-2h-1.5t-0.5 1h-1.5h-0.5h-1.5t-1.5 1h-1.5
h-0.5h-2h-2q-10 0 -18.5 -2.5t-16.5 -7.5q-8 -4 -15 -11.5t-12 -16.5l-2 -4l-2 -4q-1 -1 -2 -2.5t-2 -3.5q-1 -4 -2.5 -8.5t-2.5 -8.5t-1 -7.5v-7.5v-1.5v-0.5v0v0v-1.5v-0.5v0v0v-1v0v-2l4 -18l3 -16l117 110v0v0z" />
    <glyph glyph-name="ugrave" unicode="&#xf9;" horiz-adv-x="500" 
 />
    <glyph glyph-name="uacute" unicode="&#xfa;" horiz-adv-x="500" 
 />
    <glyph glyph-name="ucircumflex" unicode="&#xfb;" horiz-adv-x="500" 
 />
    <glyph glyph-name="udieresis" unicode="&#xfc;" horiz-adv-x="613" 
d="M255 -8q-58 7 -101 25t-70 49q-28 30 -41.5 74t-13.5 102v194q0 22 8.5 41.5t24.5 35.5q17 17 36.5 25t42.5 8t42.5 -8t35.5 -25q17 -16 25 -36.5t8 -43.5v-189q0 -8 1 -14.5t2 -11.5q2 -4 4 -8.5t6 -8.5q3 -4 6 -7t7 -5t8.5 -3.5t9.5 -2.5v0h1q0 -1 0.5 -1h0.5h1.5h1.5
h0.5h1.5h1.5h1.5h6t6 1q2 1 5 2l6 2q5 2 9.5 6t8.5 8t6.5 8.5t3.5 8.5q2 5 2.5 11.5t0.5 13.5v191q0 22 8.5 42.5t24.5 36.5q17 17 36.5 25t42.5 8t43 -8t36 -25q17 -16 25 -35.5t8 -42.5v-192q0 -59 -14 -103t-41 -74q-28 -31 -70.5 -49t-100.5 -24h-3t-3 -1h-3.5h-3.5h-3
t-3 -1h-3.5h-3.5h-4t-3 -1h-3.5h-3.5h-6h-6h-6.5h-6.5q-4 1 -7 1h-6h-6t-6 1q-4 0 -7 0.5t-6 0.5v-1v0zM201 566q-19 -1 -36 6t-31 20q-13 14 -20.5 30.5t-7.5 35.5q-1 20 6 37.5t21 31.5t31.5 21t37.5 7q10 0 19 -2t18 -6t16.5 -9t14.5 -12t12 -14.5t8 -16.5q2 -4 3 -8.5
t2 -8.5q1 -5 1.5 -9t0.5 -9q0 -10 -2 -19t-6 -18t-9 -16.5t-12 -14.5t-14.5 -12t-15.5 -8q-8 -4 -16.5 -5.5t-17.5 -1.5h-1.5h-0.5v0v0h-1v0v1v0zM413 566q-20 -2 -37 5t-31 20q-14 14 -21.5 31t-7.5 36q-1 20 6 37t21 31t31 21.5t37 7.5q5 0 9.5 -0.5t9.5 -1.5q4 -1 9 -2
t9 -3q9 -4 16.5 -9t14.5 -12t12 -15t9 -17q3 -9 5 -18t2 -18t-2 -18t-5 -17q-4 -9 -9 -16.5t-12 -14.5t-14.5 -12t-15.5 -9q-9 -4 -18 -5.5t-18 -1.5v1v0z" />
    <glyph glyph-name="yacute" unicode="&#xfd;" horiz-adv-x="500" 
 />
    <glyph glyph-name="thorn" unicode="&#xfe;" horiz-adv-x="500" 
 />
    <glyph glyph-name="ydieresis" unicode="&#xff;" horiz-adv-x="500" 
 />
    <glyph glyph-name="Abreve" unicode="&#x102;" 
 />
    <glyph glyph-name="abreve" unicode="&#x103;" 
 />
    <glyph glyph-name="Aogonek" unicode="&#x104;" 
 />
    <glyph glyph-name="aogonek" unicode="&#x105;" 
 />
    <glyph glyph-name="Cacute" unicode="&#x106;" 
 />
    <glyph glyph-name="cacute" unicode="&#x107;" 
 />
    <glyph glyph-name="Ccaron" unicode="&#x10c;" 
 />
    <glyph glyph-name="ccaron" unicode="&#x10d;" 
 />
    <glyph glyph-name="Dcaron" unicode="&#x10e;" 
 />
    <glyph glyph-name="dcaron" unicode="&#x10f;" 
 />
    <glyph glyph-name="Dslash" unicode="&#x110;" 
 />
    <glyph glyph-name="dslash" unicode="&#x111;" 
 />
    <glyph glyph-name="Eogonek" unicode="&#x118;" 
 />
    <glyph glyph-name="eogonek" unicode="&#x119;" 
 />
    <glyph glyph-name="Ecaron" unicode="&#x11a;" 
 />
    <glyph glyph-name="ecaron" unicode="&#x11b;" 
 />
    <glyph glyph-name="Gbreve" unicode="&#x11e;" 
 />
    <glyph glyph-name="gbreve" unicode="&#x11f;" 
 />
    <glyph glyph-name="Idot" unicode="&#x130;" 
 />
    <glyph glyph-name="dotlessi" unicode="&#x131;" horiz-adv-x="275" 
d="M137 -9q-23 1 -42.5 8.5t-36.5 23.5q-16 16 -24 35.5t-8 42.5v335q0 22 8.5 42t24.5 36q17 17 36.5 24.5t42.5 7.5q23 -1 43 -9t36 -25q16 -16 24 -35.5t8 -42.5v-331q0 -24 -8 -43.5t-25 -36.5q-16 -16 -36 -23.5t-43 -7.5v-1v0z" />
    <glyph glyph-name="Lacute" unicode="&#x139;" 
 />
    <glyph glyph-name="lacute" unicode="&#x13a;" 
 />
    <glyph glyph-name="Lcaron" unicode="&#x13d;" 
 />
    <glyph glyph-name="lcaron" unicode="&#x13e;" 
 />
    <glyph glyph-name="Ldot" unicode="&#x13f;" 
 />
    <glyph glyph-name="ldot" unicode="&#x140;" 
 />
    <glyph glyph-name="Lslash" unicode="&#x141;" horiz-adv-x="500" 
 />
    <glyph glyph-name="lslash" unicode="&#x142;" horiz-adv-x="500" 
 />
    <glyph glyph-name="Nacute" unicode="&#x143;" 
 />
    <glyph glyph-name="nacute" unicode="&#x144;" 
 />
    <glyph glyph-name="Ncaron" unicode="&#x147;" 
 />
    <glyph glyph-name="ncaron" unicode="&#x148;" 
 />
    <glyph glyph-name="Odblacute" unicode="&#x150;" 
 />
    <glyph glyph-name="odblacute" unicode="&#x151;" 
 />
    <glyph glyph-name="OE" unicode="&#x152;" horiz-adv-x="1084" 
d="M588 680l13 -7q0 11 4.5 19.5t12.5 14.5t20.5 9t29.5 3l281 1q20 -1 37.5 -8.5t32.5 -22.5t22 -33.5t7 -40.5q-1 -21 -8.5 -38.5t-22.5 -31.5q-15 -15 -32.5 -22t-37.5 -7l-158 1v-61h138q20 -1 37.5 -8.5t32.5 -21.5q14 -15 21.5 -32.5t7.5 -38.5v0v0v0v0v-1v0v0v0
q-1 -21 -8.5 -38.5t-21.5 -31.5q-14 -15 -31.5 -22t-37.5 -7l-137 1v-58h174q20 -1 37.5 -8.5t32.5 -22.5t22.5 -33t7.5 -38q0 -21 -7.5 -39t-22.5 -32t-32.5 -20.5t-37.5 -6.5v0v0v0v0h-1v0v0v0l-263 2q-19 0 -32.5 1t-21.5 3q-9 2 -15 4.5t-10 6.5l-20 28v-1
q-12 -11 -25.5 -18.5t-30.5 -13.5q-16 -6 -40 -11t-56 -10q-7 -1 -13.5 -1.5t-12.5 -1.5h-6t-6 -1h-7h-6h-3h-3h-3.5h-3.5h-2.5h-3.5q-1 1 -2.5 1h-3.5q-31 2 -61.5 9t-60.5 20t-57.5 31t-52.5 41q-30 27 -52.5 58t-37.5 66q-16 35 -23.5 71.5t-7.5 74.5q0 10 0.5 20t1.5 20
q2 11 3.5 21.5t3.5 20.5t5 19.5t6 19.5q3 9 7 18.5t8 19.5q20 43 49 78.5t66 63.5q38 28 80.5 46t90.5 25q5 1 9 1.5t9 0.5q4 1 8.5 1.5t8.5 0.5q8 1 16.5 1.5t16.5 0.5q12 0 24 -1t23 -3t22.5 -5t23.5 -6q7 -3 14.5 -6t14.5 -6q8 -3 15.5 -6.5t15.5 -7.5l26 -14v0v0z
M250 360q0 -37 9 -65.5t26 -50.5t41 -36t55 -19q2 0 3.5 -0.5t3.5 -0.5q1 -1 3 -1h3h6.5h7.5h6h6t6 0.5t6 1.5q23 5 42.5 15t35.5 26q16 17 26.5 39t16.5 50q1 5 1.5 10.5t1.5 11.5q1 5 1.5 10.5t0.5 11.5v4.5v4.5v2v2q-1 1 -1 2.5v2.5v2v2q-1 1 -1 2v2v2v3q-1 1 -1 2v2
q-5 28 -15.5 50.5t-26.5 40.5t-36 29.5t-43 16.5q-4 1 -8.5 1.5t-9.5 1.5h-4.5t-4.5 1h-4.5h-4.5q-31 0 -58 -12t-48 -36q-22 -24 -32.5 -57t-9.5 -75v1v0z" />
    <glyph glyph-name="oe" unicode="&#x153;" horiz-adv-x="976" 
d="M481 505l11 -6l9 5l8 5q16 8 33 15t36 12q18 5 38 7.5t42 3.5q29 0 54.5 -3t49.5 -11q24 -7 46 -18.5t41 -25.5q15 -12 28.5 -25t25.5 -28q11 -15 20.5 -31t16.5 -33q5 -13 8.5 -24t5.5 -22q2 -10 3.5 -19.5t1.5 -17.5q0 -19 -5.5 -33.5t-16.5 -24.5t-26 -14.5t-35 -4.5
l-271 1q5 -11 15 -19.5t25 -14.5q14 -7 33.5 -10t44.5 -3h2h2h1.5h1.5h0.5h1.5q8 0 16 1.5t17 2.5q9 2 19 3.5t22 4.5q11 2 20 4t16 3q8 2 15 2.5t13 0.5t11.5 -0.5t9.5 -2.5q2 -1 4.5 -2t5.5 -2q2 -1 4.5 -2t4.5 -2q11 -7 19.5 -14.5t14.5 -16.5q5 -9 8 -19t3 -21v-4t-1 -4
q0 -3 -0.5 -5t-0.5 -4l-2 -8t-3 -8q-4 -8 -9 -15.5t-13 -14.5q-7 -7 -19 -13.5t-28 -12.5q-10 -4 -25 -8.5t-33 -7.5q-19 -2 -41 -5t-48 -4h-6t-6 -1h-6h-6h-6t-5 -1h-5.5h-5.5q-31 1 -58.5 4t-50.5 8q-23 6 -45 15t-42 22l-1.5 -1.5t-1.5 -0.5q-1 -1 -1.5 -1h-0.5
l-1.5 -1.5t-1.5 -0.5l-1.5 -1.5l-0.5 -0.5q-18 -11 -36.5 -19.5t-38.5 -12.5q-19 -5 -41.5 -8t-47.5 -3q-40 0 -76 7.5t-68 23.5q-31 16 -57 39t-46 53q-10 15 -18 30t-14 31t-9 32t-5 32q-1 4 -1.5 8t-0.5 8v8v8q0 41 12 79.5t36 74.5t59 62.5t80 43.5q13 5 26.5 8.5
t26.5 5.5q14 2 28 3.5t28 1.5h3.5h3.5q1 -1 3 -1h3h3.5h3.5h3h3l16 -2t17 -2l16 -4l16 -4q16 -4 31.5 -10.5t30.5 -14.5l11 -5v0v0zM238 268q-1 -20 4.5 -36.5t17.5 -28.5q11 -12 24.5 -18t29.5 -5h1.5h1.5h2h2h1h2h0.5t1.5 1h0.5h0.5q7 1 13.5 3.5t12.5 6.5q6 5 12 10.5
t11 12.5q3 5 6 10.5t4 11.5q2 6 3 13.5t2 15.5v0v1v0v0v0.5v1.5v0v0v0.5v1.5q0 11 -2 21.5t-7 19.5q-4 9 -10 16t-14 13q-5 4 -10.5 7t-10.5 4q-6 2 -11.5 2.5t-10.5 0.5q-11 0 -21.5 -3.5t-19.5 -9.5q-10 -7 -17 -16.5t-12 -22.5q-1 -2 -1.5 -4t-1.5 -4q-1 -3 -1.5 -5
t-0.5 -4q-1 -4 -1.5 -8.5t-0.5 -9.5v1v0zM606 325h120v1v2v1.5v1.5q-1 0 -1 0.5v1.5q-2 11 -7 20t-13 16t-17 10t-19 3h-2.5h-2.5q-2 -1 -3 -1h-3q-3 0 -5.5 -0.5t-4.5 -1.5q-5 -2 -10 -5t-10 -7q-4 -4 -8 -8.5t-7 -9.5q-1 -3 -2.5 -6t-2.5 -6q0 -1 -0.5 -3t-0.5 -3
q-1 -2 -1 -3.5v-3.5v1v0z" />
    <glyph glyph-name="Racute" unicode="&#x154;" 
 />
    <glyph glyph-name="racute" unicode="&#x155;" 
 />
    <glyph glyph-name="Rcaron" unicode="&#x158;" 
 />
    <glyph glyph-name="rcaron" unicode="&#x159;" 
 />
    <glyph glyph-name="Sacute" unicode="&#x15a;" 
 />
    <glyph glyph-name="sacute" unicode="&#x15b;" 
 />
    <glyph glyph-name="Scedilla" unicode="&#x15e;" 
 />
    <glyph glyph-name="scedilla" unicode="&#x15f;" 
 />
    <glyph glyph-name="Scaron" unicode="&#x160;" horiz-adv-x="500" 
 />
    <glyph glyph-name="scaron" unicode="&#x161;" horiz-adv-x="500" 
 />
    <glyph glyph-name="Tcedilla" unicode="&#x162;" 
 />
    <glyph glyph-name="tcedilla" unicode="&#x163;" 
 />
    <glyph glyph-name="Tcaron" unicode="&#x164;" 
 />
    <glyph glyph-name="tcaron" unicode="&#x165;" 
 />
    <glyph glyph-name="Uring" unicode="&#x16e;" 
 />
    <glyph glyph-name="uring" unicode="&#x16f;" 
 />
    <glyph glyph-name="udblacute" unicode="&#x170;" 
 />
    <glyph glyph-name="Udblacute" unicode="&#x171;" 
 />
    <glyph glyph-name="Ydieresis" unicode="&#x178;" horiz-adv-x="500" 
 />
    <glyph glyph-name="Zacute" unicode="&#x179;" 
 />
    <glyph glyph-name="zacute" unicode="&#x17a;" 
 />
    <glyph glyph-name="Zdot" unicode="&#x17b;" 
 />
    <glyph glyph-name="zdot" unicode="&#x17c;" 
 />
    <glyph glyph-name="Zcaron" unicode="&#x17d;" horiz-adv-x="500" 
 />
    <glyph glyph-name="zcaron" unicode="&#x17e;" horiz-adv-x="500" 
 />
    <glyph glyph-name="florin" unicode="&#x192;" horiz-adv-x="453" 
d="M59 -38q2 3 3.5 5.5t2.5 4.5t1.5 3.5t0.5 2.5l36 369h-4q-10 0 -19 2.5t-18 6.5q-9 5 -16.5 10.5t-13.5 12.5q-5 6 -9 12.5t-7 13.5q-3 8 -4 15.5t-1 15.5q0 5 0.5 9t1.5 9q0 4 1.5 8.5t3.5 8.5q4 9 10 16.5t14 14.5t17 13t19 10q10 5 20.5 8.5t21.5 4.5l5 2l6 51
q5 44 19.5 78.5t38.5 58.5t50.5 36t56.5 12v0h1v0v0h0.5h1.5l48 -1q7 -1 13.5 -1.5t13.5 -1.5t13.5 -2.5t13.5 -3.5q17 -5 30.5 -14t23.5 -22t15 -26.5t5 -28.5q0 -8 -1.5 -16t-4.5 -16q-3 -7 -7.5 -14.5t-9.5 -14.5q-1 -1 -2 -2.5t-2 -2.5l-2 -2l-2 -2q-6 -7 -12.5 -11.5
t-13.5 -6.5q-7 -3 -15.5 -4.5t-19.5 -3.5l-4 1l-10 -2q-4 -2 -7 -3t-5 -3q-2 -1 -3.5 -4t-2.5 -7l-2 -3l-1 -2l-2 -17h5q0 -1 0.5 -1h1.5h0.5h1.5h0.5h1.5h0.5h1.5q17 0 31 -6t26 -18t18 -27t6 -32v-4v-4v-2v-1q-1 -1 -1 -2v-2q-4 -18 -13 -33t-23 -29q-14 -13 -32 -21
t-40 -11l-5 1l-43 -408q-4 -45 -19 -79.5t-39 -59.5q-25 -24 -52.5 -36t-59.5 -12l-44 -1q-14 1 -27 3.5t-24 5.5q-11 4 -20.5 9t-18.5 11q-10 7 -17.5 15t-12.5 18l-4 10t-3 10q-2 6 -2.5 11t-0.5 10v2.5v3.5v1.5v0.5q1 1 1 1.5v1.5q1 9 4.5 18t8.5 18t12 17t16 15
q5 4 10.5 7t9.5 5q5 2 12 3.5t15 2.5h11h3q1 1 2.5 2t2.5 1l4 2t4 3v0h1v1v0v0h1v1v0v0.5t1 0.5v1v0v0h1v0v0v-1v0z" />
    <glyph glyph-name="hungarumlaut" unicode="&#x2ba;" horiz-adv-x="500" 
 />
    <glyph glyph-name="tilde" unicode="&#x2c6;" horiz-adv-x="401" 
d="M-2 669q2 13 6.5 25t13.5 22q9 9 19.5 14t23.5 5l271 1q14 -1 26 -6t22 -15t15 -22t5 -26t-5 -26t-15 -23q-10 -10 -22.5 -15t-26.5 -5l-271 1q-12 -1 -23 3.5t-20 14.5t-13 22t-4 27v0v0v0v1v0v0v0v0v0v1v0v0l-2 1v0z" />
    <glyph glyph-name="caron" unicode="&#x2c7;" horiz-adv-x="435" 
d="M1 749q4 10 10.5 18.5t15.5 14.5t19.5 8.5t20.5 2.5h3.5h3.5q1 -1 3 -1h3q3 -1 6.5 -1.5t7.5 -2.5l123 -49l122 49q2 -1 3.5 -0.5t3.5 1.5q1 0 3 0.5t3 0.5q3 1 6.5 1.5t7.5 0.5t7.5 -0.5t7.5 -1.5q3 -1 6.5 -1.5t7.5 -2.5q10 -4 17.5 -11.5t13.5 -16.5t9 -18.5t3 -19.5
q0 -4 -0.5 -7.5t-1.5 -7.5t-1.5 -7.5t-2.5 -6.5q-3 -7 -7 -13t-9 -11t-11 -9t-13 -6l-137 -55q-5 -3 -9.5 -4.5t-8.5 -3.5q-4 -1 -7.5 -2t-6.5 -1h-1.5h-1.5h-1.5h-0.5h-4t-4 1q-3 0 -5 0.5t-4 1.5q-4 2 -9.5 3.5t-11.5 4.5l-141 58q-10 3 -18 9.5t-14 15.5q-5 9 -7 19
t-2 21v3.5v2.5v2v2q1 1 1 2v2t0.5 2t0.5 2v1v2v2v2l0.5 1t0.5 2v1v0z" />
    <glyph glyph-name="macron" unicode="&#x2c9;" horiz-adv-x="402" 
d="M-1 669q1 13 5.5 25t13.5 22q9 9 20 14t24 5l271 1q14 -1 26 -6t22 -15t15 -22t5 -26t-5 -26t-15 -23q-10 -10 -22.5 -15t-26.5 -5l-271 1q-12 -1 -23 3.5t-20 14.5t-13.5 22t-4.5 27v0v0v0v1v0v0v0v0v0v1v0v0l-1 1v0z" />
    <glyph glyph-name="breve" unicode="&#x2d8;" horiz-adv-x="440" 
d="M71 616q-10 5 -19 10.5t-16 10.5t-12 10.5t-9 10.5t-6.5 9.5t-4.5 9.5q-1 5 -2 11t-1 12v4.5v5.5v4.5t1 5.5q2 9 5 17t7 15q5 6 9.5 11t9.5 8t9.5 5t8.5 3q3 2 6.5 2.5t7.5 0.5q2 0 4.5 -0.5t5.5 -1.5t6 -1.5t7 -2.5l4 -2l6 -3q3 -2 11 -6.5t21 -11.5q8 -5 18 -9.5
t22 -7.5t25 -5t27 -2h0.5h1.5h1.5h1.5h0.5h1.5h1.5h1.5h7.5h7.5q3 0 7 1l8 2l18 4t19 6q9 4 19 9t20 12l2 2t3 2q1 0 2.5 1t2.5 2q2 1 3 2t3 2q1 1 2.5 2t2.5 2t2.5 1.5l4.5 1.5h3.5t4.5 1h4.5h5.5q13 -1 23.5 -6t19.5 -15t13.5 -22.5t4.5 -28.5v-2v-2q-1 -2 -1 -3v-2v-2.5
v-2.5q-1 -2 -1 -3v-2t-0.5 -2l-0.5 -1q-1 -1 -1 -2v-2v-2t-1 -1q0 -1 -0.5 -2t-0.5 -2v-0.5v-0.5q-1 -1 -1 -1.5v-0.5q-1 -1 -1 -1.5v-0.5q-7 -13 -19.5 -25.5t-30.5 -24.5t-42.5 -20.5t-56.5 -14.5q-3 -1 -6 -1.5t-6 -0.5q-1 0 -2.5 -0.5t-2.5 -0.5h-3h-3l-12 -2t-12 -1
h-11.5h-10.5q-22 0 -42 2.5t-39 6.5q-19 5 -36 11t-31 14v1v0z" />
    <glyph glyph-name="dotaccent" unicode="&#x2d9;" horiz-adv-x="219" 
d="M28 -153q-5 6 -9 12.5t-7 14.5q-3 7 -4 15t-1 16v6t1 6q0 3 1 6l2 6q0 4 1.5 7t2.5 6q2 3 3.5 6t2.5 6l46 77h138l-100 -179q-3 -5 -7.5 -8.5t-9.5 -6.5q-3 -2 -6 -3t-5 -2q-3 0 -6 -0.5t-6 -0.5q-5 0 -10 1t-10 3q-4 2 -8.5 5t-8.5 8v-1v0z" />
    <glyph glyph-name="ring" unicode="&#x2da;" horiz-adv-x="305" 
d="M154 579q-1 -1 -1.5 -1h-0.5h-1.5h-0.5q-28 0 -51 8.5t-40 24.5q-18 17 -26.5 36t-8.5 41q0 21 8.5 40t26.5 35q18 17 41.5 25.5t51.5 8.5q13 0 25.5 -2t24.5 -7q12 -4 23 -10.5t21 -14.5q8 -7 15 -16t11 -19q5 -10 7 -19.5t2 -20.5q0 -10 -2 -20.5t-7 -20.5
q-4 -10 -10.5 -18t-14.5 -16q-10 -8 -20.5 -14.5t-22.5 -11.5q-12 -4 -24.5 -6.5t-25.5 -2.5v1v0zM124 689v-1v0v-1v0v0v0v0v0v-1v0v0v0q0 -6 2 -10.5t6 -8.5t8.5 -5.5t10.5 -1.5v0v0v0h1v0v0v0v0v0h1v0v0q2 0 4.5 0.5t5.5 1.5q3 2 5.5 3.5t4.5 3.5t3 4l2 4t1.5 4.5t0.5 5.5
q0 2 -0.5 4.5t-1.5 5.5t-2.5 5.5t-3.5 4.5q-1 1 -2 1.5t-2 1.5q-2 0 -3 0.5t-2 1.5q-3 1 -5.5 1.5t-4.5 1.5q-6 0 -11 -2t-10 -6q-4 -4 -6 -9t-2 -10v1v0z" />
    <glyph glyph-name="ogonek" unicode="&#x2db;" horiz-adv-x="500" 
 />
    <glyph glyph-name="circumflex" unicode="&#x2dc;" horiz-adv-x="433" 
d="M-1 626q0 2 -0.5 5.5t-1.5 7.5v4t-1 4v3v4q0 11 2.5 20.5t7.5 18.5t13 15.5t18 10.5l141 58q6 1 11.5 3t9.5 3q2 1 4 1.5t5 0.5q2 1 4 1h4q4 0 8.5 -0.5t8.5 -2.5q5 -1 9.5 -3t10.5 -4l137 -55q7 -4 13 -7.5t11 -8.5t9 -11t7 -12q2 -4 2.5 -7.5t1.5 -7.5t1.5 -7.5
t0.5 -7.5q0 -10 -3 -19.5t-9 -18.5t-13.5 -15.5t-17.5 -11.5q-4 -1 -7.5 -2.5t-7.5 -2.5t-8 -1.5t-8 -0.5h-2.5h-3.5q-1 0 -2.5 0.5t-3.5 1.5q-2 0 -3.5 0.5t-3.5 1.5q-1 0 -2.5 0.5t-3.5 1.5l-122 50l-124 -51q-1 -2 -3 -2.5t-3 -0.5q-2 -1 -3.5 -1.5t-3.5 -0.5
q-1 0 -3 -0.5t-3 -0.5h-3.5h-3.5q-10 0 -20.5 3t-19.5 9t-15.5 14.5t-9.5 19.5l-1 1v0z" />
    <glyph glyph-name="Gamma" unicode="&#x393;" 
 />
    <glyph glyph-name="Theta" unicode="&#x398;" 
 />
    <glyph glyph-name="summation" unicode="&#x3a3;" horiz-adv-x="713" 
d="M617 745l6 -159h-20q-1 1 -2 3.5t-2 5.5q0 2 -0.5 3t-0.5 3q-1 1 -1 2.5v2.5q-6 20 -15.5 36.5t-21.5 29.5q-12 14 -39.5 20.5t-70.5 6.5l-263 1l273 -358l-294 -339h371q23 -1 41 2.5t30 10.5q12 8 23.5 21.5t21.5 33.5q2 5 4.5 10t4.5 10t4.5 11t5.5 13l23 1
q-4 -20 -8 -36t-7 -29t-6 -25t-5 -23q-1 -4 -2 -8.5t-2 -9.5t-1.5 -10t-1.5 -11q-1 -4 -1.5 -7.5t-0.5 -7.5q-1 -4 -1.5 -8.5t-1.5 -8.5t-1.5 -8.5t-0.5 -9.5q-1 -5 -1.5 -10t-1.5 -11q-3 1 -6 1.5t-6 0.5q-3 1 -6 1.5t-5 0.5q-7 1 -14 2.5t-14 2.5t-13.5 1.5t-12.5 0.5
l-503 -1q-4 1 -7.5 1h-7.5t-7.5 -0.5t-6.5 -1.5h-7.5h-6.5h-4t-3 -1h-4h-4l349 397l-347 454q2 -1 4.5 -1.5t5.5 -0.5q2 -1 4.5 -1h4.5h4.5h5.5q2 -1 4.5 -1h5.5h1.5h1.5q1 -1 1.5 -1h1.5h2h2h1h2q6 -1 12.5 -1.5t13.5 -0.5q6 -1 12.5 -1h13.5l497 1v0v0z" />
    <glyph glyph-name="Phi" unicode="&#x3a6;" 
 />
    <glyph glyph-name="Omega" unicode="&#x3a9;" horiz-adv-x="768" 
d="M313 152l16 -152h-295v162h15q5 -20 10 -32t12 -18q6 -6 17 -9t27 -3l158 1l-2 28q-29 7 -53 17t-44 22q-19 12 -37 29.5t-33 39.5q-6 8 -11 16.5t-10 17.5q-2 5 -4 9t-4 9q-1 4 -2.5 8.5t-3.5 8.5l-4 12t-3 12q-2 5 -3 11l-2 12q-1 11 -2 22.5t-1 22.5q0 19 2.5 37
t6.5 35q5 17 11 32.5t14 29.5q4 7 8 13.5t8 12.5t8 11.5t8 9.5q11 14 22.5 24t22.5 17t20.5 13t16.5 10q17 10 37.5 18t44.5 14t49 9t52 3q26 0 51.5 -3t49.5 -9t44.5 -14t37.5 -18q8 -4 17 -10t20 -13t22 -17t23 -24q4 -4 8 -9.5t8 -11.5t8 -12.5t8 -13.5q8 -14 14.5 -30
t10.5 -33q5 -17 7 -35t2 -37q0 -10 -0.5 -19.5t-2.5 -20.5q-1 -10 -3 -20t-5 -20t-7 -20t-9 -20q-4 -10 -10 -20t-13 -20q-16 -22 -33 -39.5t-37 -29.5q-19 -12 -43.5 -22t-53.5 -18l-2 -27h158q16 -1 27 2t17 9t12 18t10 31l15 1v-162h-295l16 152v-1l1 1h0.5h0.5h1t2 1
q8 3 16 6.5t17 7.5q9 5 18 12.5t19 17.5q5 5 10.5 12t11.5 16q5 8 10.5 18t10.5 22t9.5 27.5t7.5 33.5t5 37t2 39v4.5v5.5q-1 2 -1 4.5v5.5v4.5v5.5q-1 2 -1 4.5v5.5q-2 23 -7 44.5t-13 42.5t-20 39.5t-27 34.5q-13 13 -27.5 22t-30.5 15q-8 3 -16 5.5t-16 3.5q-9 2 -17 3
l-16 2h-2.5t-3.5 1h-2.5h-3.5h-5.5h-4.5h-2.5h-2.5h-3h-3h-2.5h-2.5q-2 -1 -3 -1h-3q-16 -1 -32.5 -4.5t-32.5 -9.5t-30.5 -15t-27.5 -22q-16 -16 -27.5 -34t-19.5 -39q-7 -21 -12.5 -42t-7.5 -43q-1 -6 -1.5 -11.5t-0.5 -10.5v-11.5v-10.5q0 -20 1.5 -39t5.5 -37
q3 -18 7.5 -33t9.5 -27t10 -22t11 -18q5 -9 10.5 -16t11.5 -12l9.5 -9.5t9.5 -8.5q4 -4 9 -7t9 -5q9 -4 17.5 -7.5t15.5 -6.5q1 -1 1.5 -1h1.5v0h1q0 -1 0.5 -1h0.5v1v0z" />
    <glyph glyph-name="alpha" unicode="&#x3b1;" 
 />
    <glyph glyph-name="delta" unicode="&#x3b4;" 
 />
    <glyph glyph-name="epsilon" unicode="&#x3b5;" 
 />
    <glyph glyph-name="pi" unicode="&#x3c0;" horiz-adv-x="549" 
d="M335 400h-113q-1 -19 -2.5 -35.5t-3.5 -32.5q-1 -16 -2.5 -30.5t-3.5 -28.5q-5 -42 -9.5 -77t-9.5 -63q-4 -28 -8 -49t-7 -36q-3 -14 -8 -25.5t-11 -19.5q-6 -7 -15 -12.5t-21 -8.5h-1.5h-1.5h-0.5t-0.5 -1h-1v0h-2h-1h-1.5h-1.5q-9 0 -17 3t-16 9q-7 5 -11.5 11.5
t-6.5 13.5q-1 2 -1.5 4.5t-0.5 3.5v4v4q0 6 1 12t4 10q3 5 6 9.5t6 8.5q0 1 0.5 1.5l1.5 1.5l0.5 0.5l1.5 1.5q0 1 0.5 1.5l1.5 1.5l0.5 0.5l1.5 1.5q1 2 2 3t2 3l2.5 2.5l2.5 2.5q2 2 3 3.5t3 2.5q1 2 2.5 3.5t2.5 3.5q2 3 4.5 6t5.5 7q2 3 4.5 6.5t4.5 7.5q5 8 7.5 16.5
t3.5 18.5l29 230h-47q-10 -1 -20.5 -3.5t-19.5 -7.5t-15.5 -10.5t-10.5 -11.5l-21 -30h-17q2 4 5.5 14t7.5 23q5 14 13 28.5t19 30.5q1 1 1.5 2t1.5 2q0 1 0.5 1.5l1.5 1.5l0.5 0.5l1.5 1.5q6 8 15 15t20 14t24 10.5t28 3.5l373 1v-86h-126q-4 -45 -7 -82t-4 -66
q-1 -30 -1 -52v-36v-2v-1v-2v-2v-2.5t1 -3.5q0 -9 2 -18t5 -17t7.5 -14t9.5 -11v-0.5t1 -0.5v-1v0h0.5h1.5q3 -3 7 -6t9 -5t10 -3t11 -1q4 0 8 1l8 2q5 2 9.5 4t8.5 6q4 3 7 6t5 6t4 6.5t3 7.5q2 4 2.5 7.5t1.5 7.5v3.5t1 3.5q0 1 0.5 3t0.5 3v2v2v0.5t1 1.5v0.5v1.5l21 1
q-1 -26 -4.5 -46t-11.5 -37q-7 -16 -15 -29t-16 -22q-1 -2 -3 -4t-3 -4q-2 -1 -3.5 -2.5t-3.5 -2.5q-3 -2 -6 -3.5t-6 -2.5q-4 -2 -9.5 -4.5t-11.5 -4.5t-12.5 -3t-13.5 -1q-5 0 -10 0.5t-10 2.5q-4 1 -8.5 3t-8.5 5l-2 2t-2 1l-3 1.5t-2 1.5q-3 2 -5 4.5t-4 5.5
q-4 5 -8.5 11t-8.5 13q-4 8 -7.5 15.5t-6.5 16.5q-3 8 -5 18t-3 22t-1.5 25t-0.5 26v1.5v1.5v2v2v19.5t1 18.5q0 9 0.5 18t1.5 17l17 162v0v0z" />
    <glyph glyph-name="sigma" unicode="&#x3c3;" 
 />
    <glyph glyph-name="tau" unicode="&#x3c4;" 
 />
    <glyph glyph-name="phi" unicode="&#x3c6;" 
 />
    <glyph glyph-name="glyph276" unicode="&#x2013;" horiz-adv-x="500" 
 />
    <glyph glyph-name="emdash" unicode="&#x2014;" horiz-adv-x="562" 
d="M569 252h-576v108h576v-108v0v0z" />
    <glyph glyph-name="underscoredbl" unicode="&#x2017;" 
 />
    <glyph glyph-name="quoteleft" unicode="&#x2018;" horiz-adv-x="334" 
d="M1 401l-0.5 1t-0.5 3v2v2q0 2 -0.5 4.5t-1.5 5.5v4v5v2t-1 3v2v2v6t1 6q0 2 0.5 5t0.5 6q0 2 0.5 4t0.5 4q1 3 2 7t2 7l87 199q7 13 17 24.5t23 20.5q14 8 28 12.5t30 4.5q5 0 10.5 -0.5t11.5 -2.5q3 -1 6 -1.5t6 -1.5q2 -1 5 -2l6 -2q15 -7 26.5 -17t19.5 -24
q8 -13 12.5 -28t4.5 -30q0 -6 -0.5 -11.5t-2.5 -10.5q-1 -6 -3 -11.5t-4 -10.5l-94 -194q-4 -11 -10.5 -19t-14.5 -16q-8 -7 -17 -12.5t-19 -9.5q-4 -2 -8.5 -3.5t-9.5 -2.5q-4 -1 -8.5 -1h-9.5q-16 0 -30 5t-28 14q-13 9 -22.5 21t-14.5 28v1v0z" />
    <glyph glyph-name="quoteright" unicode="&#x2019;" horiz-adv-x="334" 
d="M1 401l-0.5 1t-0.5 3v2v2q0 2 -0.5 4.5t-1.5 5.5v4v5v2t-1 3v2v2v6t1 6q0 2 0.5 5t0.5 6q0 2 0.5 4t0.5 4q1 3 2 7t2 7l87 199q7 13 17 24.5t23 20.5q14 8 28 12.5t30 4.5q5 0 10.5 -0.5t11.5 -2.5q3 -1 6 -1.5t6 -1.5q2 -1 5 -2l6 -2q15 -7 26.5 -17t19.5 -24
q8 -13 12.5 -28t4.5 -30q0 -6 -0.5 -11.5t-2.5 -10.5q-1 -6 -3 -11.5t-4 -10.5l-94 -194q-4 -11 -10.5 -19t-14.5 -16q-8 -7 -17 -12.5t-19 -9.5q-4 -2 -8.5 -3.5t-9.5 -2.5q-4 -1 -8.5 -1h-9.5q-16 0 -30 5t-28 14q-13 9 -22.5 21t-14.5 28v1v0z" />
    <glyph glyph-name="quotesinglbase" unicode="&#x201a;" horiz-adv-x="309" 
d="M-24 -116q1 3 0.5 5.5t-1.5 4.5q0 3 -0.5 5t-1.5 4v5.5v4.5v2t-1 2v3v2q0 6 0.5 12t1.5 11q1 6 3 11.5t4 10.5l85 197q7 14 17.5 25.5t23.5 20.5q14 8 28 12.5t30 4.5q5 0 10.5 -0.5t11.5 -2.5q6 -1 11.5 -3t10.5 -4q15 -7 26.5 -17.5t19.5 -24.5q8 -13 12.5 -28t4.5 -30
q0 -6 -0.5 -11.5t-2.5 -10.5q-1 -6 -3 -11.5t-4 -10.5l-94 -194q-4 -9 -10.5 -17t-14.5 -15q-8 -8 -17 -13t-19 -9q-2 -1 -4.5 -1.5t-4.5 -1.5q-3 -1 -5 -1.5t-4 -0.5h-2.5t-2.5 -1h-3h-2h-2t-2 -1h-3h-2q-16 0 -30 4.5t-27 13.5q-12 9 -20.5 21.5t-14.5 27.5l-2 -1v0z" />
    <glyph glyph-name="quotedblleft" unicode="&#x201c;" horiz-adv-x="500" 
 />
    <glyph glyph-name="quotedblright" unicode="&#x201d;" horiz-adv-x="500" 
 />
    <glyph glyph-name="quotedblbase" unicode="&#x201e;" horiz-adv-x="500" 
 />
    <glyph glyph-name="dagger" unicode="&#x2020;" horiz-adv-x="500" 
 />
    <glyph glyph-name="daggerdbl" unicode="&#x2021;" horiz-adv-x="500" 
 />
    <glyph glyph-name="glyph287" unicode="&#x2022;" horiz-adv-x="500" 
 />
    <glyph glyph-name="ellipsis" unicode="&#x2026;" horiz-adv-x="500" 
 />
    <glyph glyph-name="perthousand" unicode="&#x2030;" horiz-adv-x="500" 
 />
    <glyph glyph-name="guilsinglleft" unicode="&#x2039;" horiz-adv-x="341" 
d="M48 202q-3 3 -6 6.5t-5 7.5t-3.5 8t-3.5 8q-1 4 -2.5 7.5t-2.5 7.5t-1 8v8v3v3q0 1 0.5 2.5t0.5 2.5q0 3 0.5 6t1.5 6q2 5 4 10.5t5 11.5t7.5 12t8.5 12l103 133q7 8 14.5 15t16.5 12q8 5 16.5 8.5t17.5 4.5h1.5t1.5 1h1.5h1.5h3.5h2.5q4 0 7.5 -0.5t7.5 -0.5
q3 -1 6.5 -2t7.5 -3q8 -3 14.5 -7.5t13.5 -9.5q8 -7 13 -14.5t9 -15.5t5.5 -16.5t1.5 -17.5t-2 -18t-6 -18t-9.5 -17t-13.5 -16l-84 -83l83 -87q5 -5 8 -9.5t6 -9.5q3 -4 5.5 -8.5t4.5 -9.5q1 -2 1.5 -4.5t1.5 -4.5q0 -2 0.5 -4.5t1.5 -4.5v-2t1 -2v-2v-2v-2v-1v-2v-2
q0 -18 -6.5 -33t-19.5 -28t-28.5 -19.5t-33.5 -6.5h-1.5h-0.5h-1.5h-1.5h-2.5t-3.5 1q-9 2 -17.5 5t-16.5 7q-8 5 -15 10.5t-12 12.5l-108 143v0v0z" />
    <glyph glyph-name="guilsinglright" unicode="&#x203a;" horiz-adv-x="341" 
d="M52 47q-7 6 -12.5 13.5t-9.5 15.5t-5.5 16.5t-1.5 17.5v6t1 6v3t1 3q0 1 0.5 2.5t0.5 2.5q2 6 4.5 12t6.5 12q3 6 7.5 11.5t9.5 10.5l84 86l-83 87q-6 5 -11 11.5t-9 13.5t-6 14t-3 14q0 1 -0.5 2t-0.5 2v1v2v4v4q0 17 6.5 32t19.5 28t28.5 19.5t33.5 6.5h3.5h2.5h1.5
h1.5q1 -1 1.5 -1h1.5q9 -1 17.5 -4t15.5 -8q8 -4 14.5 -10t12.5 -13l108 -140q6 -9 10.5 -17t7.5 -16q2 -4 3 -8t2 -7q0 -4 0.5 -8t0.5 -8q0 -8 -2 -16.5t-5 -16.5q-2 -4 -4 -8.5t-5 -8.5q-3 -5 -6 -9t-6 -9l-103 -132q-7 -10 -15 -17t-16 -12q-9 -5 -17.5 -8t-16.5 -4
q-1 -1 -2.5 -1h-3.5h-2.5h-3.5q-7 0 -14.5 1t-15.5 4q-7 3 -14 7t-13 10v1v0z" />
    <glyph glyph-name="exclamdbl" unicode="&#x203c;" 
 />
    <glyph glyph-name="nsuperior" unicode="&#x207f;" 
 />
    <glyph glyph-name="franc" unicode="&#x20a3;" 
 />
    <glyph glyph-name="peseta" unicode="&#x20a7;" 
 />
    <glyph glyph-name="trademark" unicode="&#x2122;" horiz-adv-x="890" 
d="M21 673h317l3 -97l-18 -1v0.5v1.5v1.5v1.5q0 15 -4.5 27t-13.5 22q-9 9 -24 14t-35 6l-37 2v-312q0 -10 3 -15.5t10 -8.5t16 -4t21 -1v-17h-160v18q11 -1 20.5 0t16.5 4t10.5 8.5t3.5 14.5v313l-37 -1q-20 -2 -35 -7t-24 -14q-9 -10 -13.5 -22.5t-4.5 -27.5v-1.5v-0.5v0
v0v-1.5v-0.5v0v0v-1v0l-18 2l3 97v0v0zM370 673h114l132 -288l126 288h112v-18q-1 -1 -1.5 -1h-0.5h-1.5h-0.5h-1.5h-0.5h-1.5h-1.5h-2h-2q-7 0 -13.5 -1.5t-11.5 -3.5q-6 -2 -8.5 -7t-2.5 -13v-290q0 -10 3 -15.5t10 -8.5t16 -4t21 -1v-17h-160v18q11 -1 20.5 0t16.5 4
t10.5 8.5t3.5 14.5v278l-134 -323h-18l-144 307v-261q0 -10 3.5 -15.5t10.5 -8.5t16 -4t21 -1v-17h-129v18q11 -1 20.5 0t16.5 4t10.5 8.5t3.5 14.5v282q0 13 -3.5 20.5t-9.5 9.5t-14.5 3t-19.5 1h-1.5h-1.5h-1.5h-1.5v19v0v0z" />
    <glyph glyph-name="arrowleft" unicode="&#x2190;" 
 />
    <glyph glyph-name="arrowup" unicode="&#x2191;" 
 />
    <glyph glyph-name="arrowright" unicode="&#x2192;" 
 />
    <glyph glyph-name="arrowdown" unicode="&#x2193;" 
 />
    <glyph glyph-name="arrowboth" unicode="&#x2194;" 
 />
    <glyph glyph-name="arrowupdn" unicode="&#x2195;" 
 />
    <glyph glyph-name="arrowupdnbase" unicode="&#x21a8;" 
 />
    <glyph glyph-name="partialdiff" unicode="&#x2202;" horiz-adv-x="494" 
d="M104 667l-39 50q1 -1 2 -0.5t2 1.5l1 0.5t2 0.5q2 1 4 1.5t5 1.5q11 5 24 8.5t28 7.5q15 3 31.5 5t32.5 2h3.5h2.5q2 -1 3.5 -1h2.5h6h7q3 -1 6 -1.5t6 -0.5q3 -1 6 -1.5t6 -1.5q23 -6 45 -16t44 -25q21 -15 41 -38t38 -55q5 -7 8.5 -15.5t6.5 -16.5l6 -16l6 -16
q7 -25 11.5 -48t5.5 -44q2 -22 3 -36t1 -21q0 -10 -1.5 -26.5t-3.5 -39.5q-2 -22 -6 -46t-9 -50q-3 -13 -6.5 -26.5t-7.5 -26.5t-8.5 -24.5t-9.5 -22.5q-1 -3 -2.5 -6t-3.5 -6q-1 -3 -2.5 -6t-3.5 -6q-8 -17 -17 -32t-19 -27q-10 -13 -24 -24t-32 -21q-2 -1 -4.5 -1.5
t-4.5 -1.5t-4.5 -2t-4.5 -2t-4.5 -2t-4.5 -2q-3 0 -5.5 -1t-4.5 -2q-7 -2 -13.5 -3.5t-13.5 -2.5t-14 -1.5t-13 -0.5q-15 0 -28.5 2t-27.5 7q-13 4 -25 9t-23 12q-1 0 -2 0.5t-2 1.5q-1 0 -1.5 1t-0.5 2q-13 9 -26 22.5t-25 30.5t-18.5 38.5t-8.5 48.5q-1 2 -1 4.5v5.5v3v3
v2.5v2.5q0 20 2.5 37.5t8.5 33.5q6 17 12.5 30.5t13.5 25.5q2 4 4.5 7.5t5.5 7.5q2 3 4.5 6t4.5 6q13 16 27.5 28.5t30.5 22.5t35.5 15t42.5 5h1.5h1.5h1.5h1.5q10 -1 19 -1.5t16 -2.5q8 -1 15.5 -3t14.5 -5q9 -4 18 -9.5t19 -11.5q10 -7 22 -15.5t26 -19.5q2 12 4 23.5
t3 21.5q0 5 0.5 10.5t1.5 11.5q0 5 0.5 10.5t0.5 10.5v6.5v7.5v3.5t1 3.5v3v4v0v0v0.5v1.5v0v1v0v0v0v1v0v0q0 7 -0.5 14.5t-1.5 14.5q-1 4 -1.5 8t-0.5 8q-1 4 -1.5 8.5t-1.5 8.5l-2 8t-1 9l-2 8l-2 8l-4 16t-4 15q-1 5 -2.5 8.5t-3.5 7.5q-1 2 -1.5 3.5t-0.5 3.5
q-1 1 -1.5 3t-0.5 3q-1 3 -3.5 7.5t-5.5 9.5l-6 10t-7 10q-7 9 -17 17.5t-21 16.5t-24 12.5t-28 5.5h-4.5t-4.5 1h-4h-4h-4t-4 1h-3.5h-3.5q-7 0 -14 -0.5t-12 -1.5t-10 -2.5t-10 -3.5q-6 -2 -12.5 -4.5t-13.5 -5.5t-15 -6.5t-18 -8.5v1v0zM366 299q-3 1 -5.5 4t-4.5 6
q-3 3 -6 6.5t-6 7.5q-7 8 -15.5 14.5t-18.5 12.5t-23 9t-29 3q-14 -1 -27 -4.5t-25 -10.5t-23 -16.5t-21 -22.5q-15 -21 -25 -41.5t-15 -40.5q-5 -21 -7.5 -40.5t-2.5 -38.5v-13t1 -15q0 -4 0.5 -8.5t0.5 -8.5q1 -5 2 -9t2 -9q2 -9 6 -18t8 -17q5 -8 11 -15t15 -12
q5 -4 10.5 -6.5t11.5 -4.5q3 -1 6 -1.5t6 -0.5q2 -1 5 -1h6q5 0 9.5 0.5t8.5 1.5q5 2 10 3.5t10 3.5q14 6 25.5 14.5t21.5 20.5q9 11 18 25.5t16 32.5q9 22 16 44.5t12 46.5t9 48t7 49v1v0z" />
    <glyph glyph-name="Delta" unicode="&#x2206;" horiz-adv-x="612" 
d="M326 688l282 -688h-602l320 688v0v0zM290 517l-218 -468h412l-194 468v0v0z" />
    <glyph glyph-name="product" unicode="&#x220f;" horiz-adv-x="823" 
d="M706 629v-626q0 -26 6.5 -42.5t19.5 -23.5q14 -7 31.5 -10.5t39.5 -3.5v-24h-306v23q22 1 39.5 4.5t30.5 10.5t19.5 23.5t6.5 41.5v694h-358v-693q0 -26 6.5 -42.5t19.5 -23.5q14 -7 31.5 -10.5t39.5 -3.5v-24h-307v23q23 1 40.5 4.5t30.5 10.5t19.5 23.5t6.5 41.5v627
q0 21 -4.5 37t-12.5 26q-8 11 -17 18t-20 11q-6 2 -11.5 3t-10.5 2h-5.5t-5.5 1h-4h-4v24h773v-23q-2 -1 -4.5 -1h-4.5q-2 -1 -4.5 -1h-5.5q-5 -1 -10.5 -2t-11.5 -3q-10 -4 -19.5 -11t-17.5 -18q-8 -10 -12 -26t-4 -38v1v0z" />
    <glyph glyph-name="minus" unicode="&#x2212;" horiz-adv-x="500" 
 />
    <glyph glyph-name="fraction" unicode="&#x2215;" horiz-adv-x="500" 
 />
    <glyph glyph-name="periodcentered" unicode="&#x2219;" horiz-adv-x="307" 
d="M154 153q-25 -2 -47 7t-40 27t-27 40t-9 47t9 46t27 39t40 27t47 9q12 0 23.5 -2.5t22.5 -7.5q11 -4 21 -11t19 -15q9 -9 15.5 -19.5t10.5 -21.5q5 -11 7 -22.5t2 -22.5q0 -12 -2 -23.5t-7 -22.5q-4 -11 -11 -21t-15 -18q-9 -9 -19 -15.5t-21 -11.5q-11 -4 -22.5 -6.5
t-23.5 -2.5v1v0z" />
    <glyph glyph-name="radical" unicode="&#x221a;" horiz-adv-x="549" 
d="M26 417l-16 33l146 72l197 -403l127 798l35 -5l-150 -950l-243 502l-96 -47v0v0z" />
    <glyph glyph-name="infinity" unicode="&#x221e;" horiz-adv-x="713" 
d="M357 297q14 11 25.5 21.5t20.5 18.5t18 14.5t18 12.5q2 2 4 3t4 3q2 1 4.5 2.5t4.5 2.5q5 2 9.5 4.5t10.5 5.5q1 0 2 0.5t2 1.5q2 1 3.5 1.5t2.5 1.5q4 2 8 3t8 3q3 1 7 2l8 2t8 1.5t8 0.5q3 1 7 1h8q27 0 50.5 -9.5t43.5 -27.5t31.5 -40t14.5 -48v-1.5v-1.5v-2t1 -1v-2
v-2v-1.5v-1.5v-2v-2q-1 -2 -1 -3v-2v-4.5v-4.5q-4 -23 -14.5 -44t-28.5 -41q-18 -19 -41 -29t-50 -10h-1.5h-1.5h-2t-1 1h-2h-2h-1.5h-1.5q-21 2 -39.5 7t-35.5 13q-16 8 -30 17t-25 18q-10 8 -18 15.5t-15 14.5l-12 12l-9 9q-4 -4 -9.5 -9t-12.5 -12t-15 -14.5t-17 -15.5
q-12 -9 -25.5 -18t-30.5 -17q-16 -8 -34.5 -13t-39.5 -7h-1.5h-1.5h-2h-1q-1 -1 -2 -1h-2h-1.5h-1.5q-27 0 -49.5 10t-40.5 29t-29 40t-14 44q-1 2 -1.5 4.5t-0.5 5.5v4.5v5.5v1.5v1.5v1.5t1 1.5v1.5v1.5v1.5v1.5q2 26 13.5 48t31.5 41q20 18 44 27t52 9q8 0 15.5 -0.5
t14.5 -2.5q8 -1 15.5 -4t15.5 -6q1 0 1.5 -0.5t1.5 -0.5q0 -1 0.5 -1.5t1.5 -0.5t1.5 -0.5t1.5 -0.5q0 -1 0.5 -1h1.5q5 -3 10.5 -5.5t9.5 -4.5q2 -1 4 -2.5t5 -2.5q2 -2 4 -3t4 -3q8 -6 17 -12.5t18 -14.5t21 -18.5t26 -22.5v1v0zM324 264q-18 14 -32.5 25.5t-25.5 20.5
l-22.5 15t-21.5 12q-2 1 -4.5 1.5t-4.5 1.5l-4 2l-4 2q-5 2 -10.5 3t-10.5 2t-9.5 1.5t-9.5 0.5q-16 0 -29.5 -5t-24.5 -15q-10 -10 -17.5 -20.5t-12.5 -21.5l-2 -8l-2 -8t-1 -7.5v-6.5v0v0v0v0v-1v0v0v0q1 -19 8.5 -35t21.5 -28t30.5 -18t34.5 -6h4.5t5.5 1h3t3 1
q1 0 2.5 0.5t2.5 0.5q10 2 18.5 5t15.5 6q4 2 7.5 3.5t7.5 3.5q3 2 6.5 4t7.5 5q7 5 14.5 11.5t15.5 13.5q8 8 17.5 17t21.5 20v1v0zM390 264q11 -12 21 -21t18 -17q8 -7 15.5 -13.5t14.5 -11.5t14 -9t14 -7q8 -3 16.5 -6t18.5 -5q1 0 1.5 -0.5t1.5 -0.5q0 -1 0.5 -1h1.5
h3.5h2.5t1.5 -0.5t1.5 -0.5h0.5h1.5h3.5h2.5q18 0 34 6t30 18t21.5 28t8.5 35v0v0v0v1v0v0v0v0v0v1v0v0q0 3 -0.5 6.5t-1.5 7.5t-1.5 7.5t-1.5 7.5q-4 12 -12 22.5t-19 20.5q-10 10 -24 14.5t-31 4.5q-4 0 -8.5 -0.5t-9.5 -1.5q-4 -1 -9.5 -2t-10.5 -3q-2 -1 -4.5 -2
t-4.5 -2t-4 -1.5t-4 -1.5q-10 -5 -21.5 -12t-22.5 -15q-12 -9 -26.5 -20.5t-31.5 -26.5v1v0z" />
    <glyph glyph-name="orthogonal" unicode="&#x221f;" 
 />
    <glyph glyph-name="intersection" unicode="&#x2229;" 
 />
    <glyph glyph-name="integral" unicode="&#x222b;" horiz-adv-x="274" 
d="M190 488l-1 -216q-1 -44 -3 -81t-5 -67t-6.5 -54.5t-7.5 -44.5q-1 -7 -2.5 -13.5t-3.5 -11.5q-1 -5 -2.5 -10.5t-3.5 -9.5q-4 -14 -8 -24.5t-8 -16.5t-7 -11t-6 -9l-2.5 -2.5t-3.5 -2.5q-1 -1 -2 -1.5t-2 -1.5q-1 0 -2 -0.5t-2 -1.5q-4 -3 -10 -5.5t-12 -4.5t-12.5 -3
t-13.5 -2v0v0h-1v0h-1.5h-0.5h-2.5h-3.5q-1 1 -2.5 1h-3.5q-3 1 -6 1.5t-5 2.5q-4 1 -7 3.5t-6 5.5q-1 1 -2.5 3t-3.5 3q-1 2 -2 3.5t-2 3.5q-2 2 -3.5 4.5t-3.5 4.5l-2 4t-1 4q-1 2 -1.5 4.5t-0.5 4.5q-1 2 -1 4v4q0 6 1.5 11.5t5.5 10.5q3 4 8 8.5t12 7.5q2 1 4.5 2t4.5 2
t4.5 1h4.5t3.5 -0.5t3.5 -0.5q1 -1 3 -1.5t3 -1.5q2 -1 3.5 -2t3.5 -2q1 -1 3 -2.5t3 -2.5q2 -1 3.5 -2.5l2.5 -2.5l2 -2l2 -2l1 -1l2 -2l2 -2l2 -2q0 -1 1 -1.5t2 -0.5t2 -0.5t2 -0.5q0 -1 1 -1h2q6 1 11 8t8 21q3 12 5 27.5t2 31.5v2v2v2v2v3.5v2.5v3.5v2.5v9.5v9.5
q-1 4 -1 9v9q-1 9 -1.5 19.5t-0.5 20.5q-1 21 -1.5 45.5t-0.5 52.5q-1 28 -1 62.5v76.5v145q0 58 1 105.5t4 81.5q2 35 7.5 65t13.5 57q1 3 2.5 6t2.5 7q2 3 3.5 6.5t3.5 7.5q3 5 6.5 10.5t7.5 10.5l9.5 9.5t9.5 7.5q2 2 4 2.5t4 1.5t4 1.5t4 1.5h2t2 1h2h2h2t2 1h2h2
q5 0 10.5 -0.5t10.5 -2.5q3 -1 5.5 -2t4.5 -1q2 -1 4.5 -2t4.5 -2q0 -1 1 -1.5t2 -0.5l1.5 -1.5t1.5 -0.5q0 -1 0.5 -1.5t1.5 -0.5q0 -1 0.5 -1.5t1.5 -0.5q3 -3 6 -7.5t6 -9.5t4.5 -10.5t1.5 -11.5v-2v-2v-1.5v-0.5q-1 -1 -1 -1.5v-0.5q-1 -2 -1.5 -4t-1.5 -4
q-1 -1 -1.5 -2t-0.5 -2q-1 -1 -1.5 -2t-1.5 -2q-4 -4 -8.5 -7t-10.5 -6t-12 -4.5t-12 -1.5q-4 0 -7.5 1t-7.5 2q-4 2 -7 4t-6 5q-4 3 -7 5.5t-5 3.5q-3 2 -5.5 2.5t-4.5 0.5q-4 0 -7.5 -2t-5.5 -5q-2 -4 -3.5 -7.5t-1.5 -7.5v-1.5v-1.5v-1.5v-1.5q0 -9 1 -22t2 -30
q2 -17 3.5 -36.5t3.5 -41.5q1 -16 2 -32.5t2 -33.5q2 -17 2.5 -34.5t1.5 -34.5v-14.5v-15.5v-7.5t1 -6.5v-7.5v-7.5v1v0z" />
    <glyph glyph-name="approxequal" unicode="&#x2248;" horiz-adv-x="549" 
d="M490 243l37 -24q-10 -17 -22.5 -30.5t-27.5 -22.5q-15 -10 -30.5 -16t-31.5 -8q-4 -1 -7.5 -2t-7.5 -1h-7.5h-6.5h-9.5t-9.5 1q-4 1 -8.5 2t-9.5 2l-150 44l-12 2t-11 2q-6 1 -11 1.5t-10 0.5q-13 0 -24.5 -2.5t-20.5 -7.5t-16.5 -10.5t-13.5 -11.5q-4 -4 -7.5 -8
t-6.5 -8t-5 -7t-4 -5l-43 28q15 19 32 34t36 25q18 9 37.5 14t39.5 5h3.5h2.5q2 -1 3.5 -1h2.5h3.5h3.5q1 -1 3 -1h3q3 0 6 -0.5t6 -1.5q2 0 3.5 -0.5t3.5 -0.5q1 -1 3 -1.5t3 -0.5l151 -41q3 -2 6 -2.5t6 -1.5t6 -1t7 1q5 0 11 0.5t13 1.5q7 2 14.5 4t15.5 6q2 1 4.5 2.5
t5.5 2.5q2 2 5 3.5t6 3.5q4 3 8 6.5t8 7.5q5 4 8 8l6 8v1v0zM490 394l37 -24q-10 -17 -22.5 -30.5t-27.5 -22.5q-15 -10 -30.5 -16t-31.5 -8q-4 -1 -7.5 -2t-7.5 -1h-7.5h-6.5h-9.5t-9.5 1q-4 1 -8.5 2t-9.5 2l-150 44l-12 2t-11 2q-6 1 -11 1.5t-10 0.5q-13 0 -24.5 -2.5
t-20.5 -7.5t-16.5 -10.5t-13.5 -11.5q-4 -4 -7.5 -8t-6.5 -8t-5 -7t-4 -5l-43 28q15 19 32 34t36 25q18 9 37.5 14t39.5 5h3.5h2.5q2 -1 3.5 -1h2.5h3.5h3.5q1 -1 3 -1h3q3 0 6 -0.5t6 -1.5q2 0 3.5 -0.5t3.5 -0.5q1 -1 3 -1.5t3 -0.5l151 -41q3 -2 6 -2.5t6 -1.5t6 -1t7 1
q5 0 11 0.5t13 1.5q7 2 14.5 4t15.5 6q2 1 4.5 2.5t5.5 2.5q2 2 5 3.5t6 3.5q4 3 8 6.5t8 7.5q5 4 8 8l6 8v1v0z" />
    <glyph glyph-name="notequal" unicode="&#x2260;" horiz-adv-x="549" 
d="M402 549l49 -28l-76 -136h165v-55h-195l-78 -139h273v-55h-303l-90 -161l-49 28l74 133h-157v55h188l77 139h-265v55h296l91 164v0v0z" />
    <glyph glyph-name="equivalence" unicode="&#x2261;" 
 />
    <glyph glyph-name="lessequal" unicode="&#x2264;" horiz-adv-x="549" 
d="M29 0v55h497v-55h-497v0v0zM29 347v62l497 230v-62l-433 -199l433 -199v-62l-497 230v0v0z" />
    <glyph glyph-name="greaterequal" unicode="&#x2265;" horiz-adv-x="549" 
d="M526 55v-55h-497v55h497v0v0zM526 409v-62l-497 -230v62l433 199l-433 199v62l497 -230v0v0z" />
    <glyph glyph-name="house" unicode="&#x2302;" 
 />
    <glyph glyph-name="revlogicalnot" unicode="&#x2310;" 
 />
    <glyph glyph-name="integraltp" unicode="&#x2320;" 
 />
    <glyph glyph-name="integralbt" unicode="&#x2321;" 
 />
    <glyph glyph-name="2500" unicode="&#x2500;" 
 />
    <glyph glyph-name="2502" unicode="&#x2502;" 
 />
    <glyph glyph-name="250c" unicode="&#x250c;" 
 />
    <glyph glyph-name="2510" unicode="&#x2510;" 
 />
    <glyph glyph-name="2514" unicode="&#x2514;" 
 />
    <glyph glyph-name="2518" unicode="&#x2518;" 
 />
    <glyph glyph-name="251c" unicode="&#x251c;" 
 />
    <glyph glyph-name="2524" unicode="&#x2524;" 
 />
    <glyph glyph-name="252c" unicode="&#x252c;" 
 />
    <glyph glyph-name="2534" unicode="&#x2534;" 
 />
    <glyph glyph-name="253c" unicode="&#x253c;" 
 />
    <glyph glyph-name="2550" unicode="&#x2550;" 
 />
    <glyph glyph-name="2551" unicode="&#x2551;" 
 />
    <glyph glyph-name="2552" unicode="&#x2552;" 
 />
    <glyph glyph-name="2553" unicode="&#x2553;" 
 />
    <glyph glyph-name="2554" unicode="&#x2554;" 
 />
    <glyph glyph-name="2555" unicode="&#x2555;" 
 />
    <glyph glyph-name="2556" unicode="&#x2556;" 
 />
    <glyph glyph-name="2557" unicode="&#x2557;" 
 />
    <glyph glyph-name="2558" unicode="&#x2558;" 
 />
    <glyph glyph-name="2559" unicode="&#x2559;" 
 />
    <glyph glyph-name="255a" unicode="&#x255a;" 
 />
    <glyph glyph-name="255b" unicode="&#x255b;" 
 />
    <glyph glyph-name="255c" unicode="&#x255c;" 
 />
    <glyph glyph-name="255d" unicode="&#x255d;" 
 />
    <glyph glyph-name="255e" unicode="&#x255e;" 
 />
    <glyph glyph-name="255f" unicode="&#x255f;" 
 />
    <glyph glyph-name="2560" unicode="&#x2560;" 
 />
    <glyph glyph-name="2561" unicode="&#x2561;" 
 />
    <glyph glyph-name="2562" unicode="&#x2562;" 
 />
    <glyph glyph-name="2563" unicode="&#x2563;" 
 />
    <glyph glyph-name="2564" unicode="&#x2564;" 
 />
    <glyph glyph-name="2565" unicode="&#x2565;" 
 />
    <glyph glyph-name="2566" unicode="&#x2566;" 
 />
    <glyph glyph-name="2567" unicode="&#x2567;" 
 />
    <glyph glyph-name="2568" unicode="&#x2568;" 
 />
    <glyph glyph-name="2569" unicode="&#x2569;" 
 />
    <glyph glyph-name="256a" unicode="&#x256a;" 
 />
    <glyph glyph-name="256b" unicode="&#x256b;" 
 />
    <glyph glyph-name="256c" unicode="&#x256c;" 
 />
    <glyph glyph-name="upblock" unicode="&#x2580;" 
 />
    <glyph glyph-name="dnblock" unicode="&#x2584;" 
 />
    <glyph glyph-name="block" unicode="&#x2588;" 
 />
    <glyph glyph-name="lfblock" unicode="&#x258c;" 
 />
    <glyph glyph-name="rtblock" unicode="&#x2590;" 
 />
    <glyph glyph-name="ltshade" unicode="&#x2591;" 
 />
    <glyph glyph-name="shade" unicode="&#x2592;" 
 />
    <glyph glyph-name="dkshade" unicode="&#x2593;" 
 />
    <glyph glyph-name="filledbox" unicode="&#x25a0;" 
 />
    <glyph glyph-name="filledrect" unicode="&#x25ac;" 
 />
    <glyph glyph-name="triagup" unicode="&#x25b2;" 
 />
    <glyph glyph-name="triagrt" unicode="&#x25ba;" 
 />
    <glyph glyph-name="triagdn" unicode="&#x25bc;" 
 />
    <glyph glyph-name="triaglf" unicode="&#x25c4;" 
 />
    <glyph glyph-name="lozenge" unicode="&#x25ca;" horiz-adv-x="494" 
d="M272 0h-60l-194 377l194 368h60l194 -368l-194 -377v0v0zM406 377l-164 314l-164 -314l164 -323l164 323v0v0z" />
    <glyph glyph-name="circle" unicode="&#x25cb;" 
 />
    <glyph glyph-name="invbullet" unicode="&#x25d8;" 
 />
    <glyph glyph-name="invcircle" unicode="&#x25d9;" 
 />
    <glyph glyph-name="smileface" unicode="&#x263a;" 
 />
    <glyph glyph-name="invsmileface" unicode="&#x263b;" 
 />
    <glyph glyph-name="sun" unicode="&#x263c;" 
 />
    <glyph glyph-name="female" unicode="&#x2640;" 
 />
    <glyph glyph-name="male" unicode="&#x2642;" 
 />
    <glyph glyph-name="spade" unicode="&#x2660;" 
 />
    <glyph glyph-name="club" unicode="&#x2663;" 
 />
    <glyph glyph-name="heart" unicode="&#x2665;" 
 />
    <glyph glyph-name="diamond" unicode="&#x2666;" 
 />
    <glyph glyph-name="musicalnote" unicode="&#x266a;" 
 />
    <glyph glyph-name="musicalnotedbl" unicode="&#x266b;" 
 />
    <glyph glyph-name="apple" unicode="&#xf000;" horiz-adv-x="896" 
d="M230 298v-1v0v0h1h0.5h1.5q1 -1 1.5 -1h1.5q2 0 5.5 -0.5t8.5 -1.5v3.5v2.5v3.5v2.5q0 16 3 30t8 26t10 21.5t11 16.5l3.5 3.5l2.5 2.5l1.5 1.5l1.5 1.5q1 0 1.5 0.5l1.5 1.5q2 1 3.5 1.5t2.5 0.5h1.5t1.5 1h1.5h1.5h2t2 -1l1 -0.5t2 -0.5q1 -1 2 -1.5t2 -0.5
q0 -1 1 -1.5t2 -1.5q0 -1 0.5 -2t1.5 -1q0 -1 0.5 -2t0.5 -2t0.5 -2l0.5 -1q1 -1 1 -2v-2v-1.5v-0.5v0v0v-1v0q0 3 1.5 6t2.5 6q2 3 4 5.5t5 4.5q2 2 4 2.5t4 1.5t4.5 1.5t4.5 0.5q4 0 7.5 -1t6.5 -3t6 -5t5 -7q0 -1 0.5 -2t1.5 -1q0 -1 0.5 -2t0.5 -2v-2t1 -1v-2v-2v-1.5
v-0.5q-1 -1 -1 -1.5v-1.5v-1.5v-0.5q-1 -1 -1 -1.5v-0.5q1 1 2 1.5l3 1.5q1 0 2 0.5t2 1.5t2 1.5l3 1.5q1 0 2.5 0.5t2.5 1.5q5 2 11 4t12 3q6 2 12 2.5t13 0.5q13 0 28.5 -3t34.5 -8q18 -6 42 -14.5t52 -19.5v0v0v0v0q2 -1 5 -1.5t7 -1.5q5 -1 17 -3t31 -5q3 -1 6 -1.5
t6 -0.5q3 -1 5.5 -1.5t5.5 -1.5q2 -1 4.5 -1.5t5.5 -0.5q2 -1 4.5 -1.5t4.5 -0.5q1 -1 1.5 -1h1.5h1.5h1.5q5 0 11.5 2.5t13.5 6.5q8 5 15.5 12t14.5 17l4 6t5 6q2 3 4 6.5t4 7.5l4 8t5 9q2 4 4 9l4 10q0 1 1 2l2 2l3 3t6 5q2 1 2.5 2.5l1.5 4.5q1 2 1.5 6t0.5 10v2v2v3.5
v2.5v1.5v1.5v0.5v1.5q0 8 1 13t4 9q2 4 5 6.5t6 3.5v0l1 1h0.5h0.5h0.5h1.5v0v0h0.5h1.5v0h1v-1v0v0h1v0v0q2 -1 3.5 -1.5t2.5 -1.5t1.5 -2t1.5 -2v0l1 -38v-9.5t1 -10.5q0 -6 1.5 -13t2.5 -16v-2v-2q-1 -1 -1 -2.5v-3.5q-1 -4 -3 -13.5t-6 -24.5q-1 -3 -1.5 -6t-0.5 -8
v-11.5v-18.5q0 -1 -0.5 -3.5t-2.5 -6.5q-1 -4 -5.5 -13l-11.5 -23q-1 -1 -1.5 -3t-0.5 -4q-1 -3 -1.5 -5t-1.5 -5l-2.5 -15t-3.5 -22q-1 -4 -4 -10t-8 -12q-6 -6 -16 -14t-25 -19q-1 -1 -2.5 -2t-3.5 -2q-1 -1 -2.5 -2t-3.5 -2l-1.5 -1.5t-1.5 -0.5l-1.5 -1.5t-1.5 -0.5
q-7 -4 -12.5 -7.5t-8.5 -5.5t-4.5 -3.5t-2.5 -3.5l-20 -56l-1 -2l-19 -42q-2 -6 -4.5 -11t-5.5 -10q-1 -2 -3 -4.5t-3 -4.5q-2 -2 -3.5 -4t-3.5 -4l-2.5 -2.5t-3.5 -1.5h-2.5h-3.5h-2h-1h-2h-2t-2.5 1.5l-2.5 2.5l-3.5 3.5t-2.5 3.5t-2 4.5t-1 4.5q-1 -4 -2.5 -8t-4.5 -7
t-6.5 -4t-7.5 -1h-1.5h-1.5h-1.5t-1.5 1q-4 1 -7 3t-5 5t-3 6t-1 7v0v0v0v1v0v0v0v0v0v1v0v0q0 -3 -0.5 -6t-1.5 -5t-2.5 -4t-3.5 -4l-1.5 -1.5t-1.5 -0.5q-1 -1 -2 -1h-1q-1 -1 -2 -1h-2h-1.5h-1.5h-2h-2h-1.5t-1.5 1q-4 2 -7 4t-5 6t-3 9t-1 11v4.5t1 4.5q0 2 0.5 4.5
t1.5 5.5q1 5 2.5 9.5t4.5 8.5q3 5 6 8.5t7 7.5q-2 3 -4.5 5t-4.5 3q-2 2 -4.5 2.5t-4.5 0.5q-4 0 -7.5 -1.5t-7.5 -4.5t-8 -7t-9 -10l-23 -29l-4 -6l-1 -1l-17 -22q-1 -3 -2.5 -4.5t-2.5 -3.5q-2 -1 -3 -2t-3 -2q-3 -1 -5.5 -2t-4.5 -1q-1 0 -2.5 0.5t-2.5 0.5l-3 1.5
l-3 1.5q-3 2 -5.5 4t-4.5 5v0v0h-1v0v0v1q-1 0 -1 0.5v0.5h-0.5t-0.5 1h-1v0v0.5v1.5q0 -4 -1.5 -7t-4.5 -6t-6 -4t-7 -1v0v0h-1v0v0v0v0v0h-1v0v0v0q-4 0 -7.5 1.5t-6.5 4.5t-4 6.5t-1 7.5v0v1v0v0v0.5v1.5q-1 -3 -2 -5.5t-3 -4.5t-4.5 -4t-4.5 -4q-1 -1 -2.5 -1.5
t-3.5 -0.5q-1 -1 -2.5 -1h-3.5v0v0h-1v0v0v0v0v0h-1v0v0v0q-4 0 -7 1t-6 4t-4.5 7t-2.5 8v0.5v1.5v0.5v1.5q-1 0 -1 0.5v1.5v0.5v1.5q0 6 1.5 11.5t4.5 10.5q2 5 6.5 10.5t10.5 10.5q2 1 3.5 2t2.5 2l3.5 3.5t3.5 2.5q1 1 2 1.5t2 1.5h1.5t1.5 1l0.5 0.5t1.5 0.5q2 1 3 2
l2 2q1 2 1.5 3.5t0.5 3.5v0.5v1.5v0v1q-1 0 -1 0.5v0.5q-1 4 -3.5 7t-4.5 4q-2 2 -5 3t-7 1l-8 -2t-9 -3t-10.5 -5t-11.5 -7q-7 -4 -13.5 -8t-13.5 -6t-13.5 -3t-12.5 -1q-10 0 -20 2.5t-19 8.5q-9 5 -17 13.5t-14 18.5q-2 2 -3.5 5t-2.5 6l-2 6l-2 6q-2 -1 -4 -1.5t-4 -0.5
q-1 0 -2 -0.5l-1 -0.5q-1 -1 -2 -1h-2q-4 -1 -8 -1.5t-8 -0.5q-4 -1 -8 -1h-7q-12 0 -21.5 2.5t-17.5 6.5q-7 5 -13 11t-10 14q-1 2 -2 4.5t-2 5.5q-1 2 -1.5 4.5t-0.5 5.5q-1 1 -1 2.5v2.5v1.5v1.5v0.5v1.5v0.5v1.5v1t1 2v0.5v1.5v0.5v1.5h-1.5h-0.5v0v0h-1.5h-0.5v0v0h-1
v0q-7 0 -12 2.5t-10 8.5q-4 6 -6.5 14.5t-3.5 19.5v1.5v1.5v1.5v1.5q0 9 2.5 16.5t8.5 13.5q5 6 11 8.5t13 2.5v0v0h0.5h1.5v0h1v0v0v0h1v0v0l1 1l22 -10q5 -3 11 -4.5t13 -3.5q6 -1 13.5 -1.5t16.5 -0.5q8 0 16 0.5t18 1.5t21 2.5t23 4.5v1v0zM257 110l11 4q3 0 6 1l6 2
q2 0 3 0.5l3 1.5q1 0 2.5 0.5t2.5 1.5q9 5 15.5 9.5t10.5 10.5q3 6 6 16t6 23v3.5v2.5q0 2 0.5 4t1.5 4v2t1 3v2.5v2.5v3t1 2v3v2q0 5 -0.5 9t-1.5 8q-1 3 -2.5 6t-3.5 6t-5 5.5t-6 3.5q-3 2 -6.5 2.5t-7.5 0.5q-3 0 -5.5 -0.5t-4.5 -1.5t-4.5 -1.5t-4.5 -2.5q-3 -2 -6 -5
t-5 -7t-4 -9t-4 -12v-0.5v-0.5q-1 -1 -1 -1.5v-0.5v-2v-1v-2v-2v-1.5v-1.5v-1.5v-0.5v0v0v-1.5v-0.5v0v0v-1v0q1 -10 1.5 -17.5t1.5 -12.5v-5.5t1 -4.5v-4.5v-3.5v-1.5v-1.5v-1.5v-0.5q-1 -1 -1 -2v-1v-1.5v-0.5v-5l-2 -9l-2 -9l-3 -7v0v0zM108 242q1 1 1.5 3t1.5 3
q0 2 0.5 2.5l1.5 1.5l6 10v-1v1v0v0v0v1v0v0q0 1 -0.5 2t-0.5 2q-1 0 -1.5 1t-1.5 2q-1 2 -4 3t-6 1q-7 0 -12.5 -1.5t-10.5 -3.5q-4 -2 -8 -5t-6 -7v-0.5v-0.5l-1 -1v0v-1v0q-1 -1 -1 -1.5v-0.5v-1.5v-0.5v-3.5t1 -3.5q1 -1 2 -2.5t2 -2.5t2 -1.5t2 -1.5q2 -1 3.5 -1.5
t2.5 -0.5v0v0h0.5h1.5v0h1v0v0v0h1v0v0h4.5t3.5 1q1 0 2 0.5t2 1.5l1 0.5t2 1.5l-1 -7l-1 -8v-6.5v-4.5v-5.5v-4.5v-2.5v-2.5v-1.5v-0.5v-1.5v-1.5q2 -1 3.5 -1h2.5h1.5h1.5h0.5h1.5h4.5t5.5 1q2 0 4.5 0.5t4.5 1.5q8 3 15 8.5t11 12.5q5 7 7 14.5t2 16.5v3.5v2.5v1.5v1.5
q-1 1 -1 1.5v1.5q-2 -1 -4.5 -2t-4.5 -2q-3 -1 -5 -2t-4 -1q-3 -1 -5.5 -2t-4.5 -2t-4.5 -1.5t-4.5 -0.5l-9 -1l-8 -2v0v0zM303 378q-7 -1 -12.5 -3.5t-10.5 -7.5q-4 -5 -8 -13.5t-6 -19.5q-1 -2 -1.5 -4t-0.5 -4v-2v-1q0 -1 0.5 -2t0.5 -2v-1.5v-1.5v-2v-1v-2v-2v-0.5
t1 -0.5v-1.5v-0.5q1 -4 3 -7t5 -5q3 -3 6 -4t7 -1v0h1v0v0h0.5t1.5 1v0v0h0.5h1.5q2 0 4.5 1.5t4.5 2.5q2 2 4.5 3.5t3.5 3.5q2 -5 4.5 -9t6.5 -7t8.5 -4t8.5 0h2h2h1.5h1.5l0.5 0.5t1.5 0.5h0.5h1.5v0l1 1v0v0q7 2 13 7.5t12 13.5t10 17.5t5 19.5v1.5v1.5v0l1 1v0.5v1.5
v0.5v1.5v1.5v1.5v0.5v1.5v1.5v1.5q-1 0 -1 0.5v1.5v1.5v1.5l-8 3v-2.5v-1.5v-0.5t1 -0.5v-1v0v-0.5t1 -0.5v-1.5v-0.5v-1.5v-0.5v-2v-2q-1 -1 -1 -1.5v-1.5t-0.5 -2.5t-1.5 -3.5t-1.5 -3.5t-2.5 -3.5l-2.5 -2.5t-3.5 -2.5q-1 0 -1.5 -0.5l-0.5 -0.5q-1 -1 -1.5 -1h-1.5h-2
h-2q-3 0 -5.5 1t-4.5 2q-3 2 -4.5 3.5t-2.5 4.5q-1 1 -1 2v2v1.5v1.5v0.5v1.5v3.5v2.5v1.5t1 1.5l0.5 0.5t0.5 1.5q1 2 2.5 4.5t2.5 3.5q2 2 3.5 2.5t3.5 1.5q-1 0 -1.5 0.5l-0.5 0.5q-1 1 -1.5 1h-1.5t-2 0.5t-2 1.5h-1.5h-1.5h-0.5t-0.5 1h-1v0h-1.5h-1.5h-1.5h-0.5
q-3 0 -5.5 -0.5t-4.5 -1.5t-4.5 -1.5t-4.5 -1.5v-1.5v-0.5v0v0v-1.5v-0.5v0v0v-1v0v-1.5v-1.5v-0.5v-0.5l-1 -1v0v-0.5v-0.5q-1 -1 -1 -1.5v-0.5v-1.5v-0.5q-1 -3 -3.5 -4.5t-4.5 -3.5q-3 -1 -5.5 -2.5t-4.5 -2.5q-1 2 -2.5 4t-2.5 4t-1 4.5v4.5v3.5t1 2.5q1 2 2 3.5t2 2.5
v0.5t1 0.5v1v0l0.5 0.5l1.5 1.5v0l1 1v0v0v0l1 1v0v0v1v0z" />
    <glyph glyph-name="fi" unicode="&#xf001;" horiz-adv-x="500" 
 />
    <glyph glyph-name="fl" unicode="&#xf002;" horiz-adv-x="500" 
 />
    <glyph glyph-name="degree" horiz-adv-x="305" 
d="M154 579q-1 -1 -1.5 -1h-0.5h-1.5h-0.5q-28 0 -51 8.5t-40 24.5q-18 17 -26.5 36t-8.5 41q0 21 8.5 40t26.5 35q18 17 41.5 25.5t51.5 8.5q13 0 25.5 -2t24.5 -7q12 -4 23 -10.5t21 -14.5q8 -7 15 -16t11 -19q5 -10 7 -19.5t2 -20.5q0 -10 -2 -20.5t-7 -20.5
q-4 -10 -10.5 -18t-14.5 -16q-10 -8 -20.5 -14.5t-22.5 -11.5q-12 -4 -24.5 -6.5t-25.5 -2.5v1v0zM124 689v-1v0v-1v0v0v0v0v0v-1v0v0v0q0 -6 2 -10.5t6 -8.5t8.5 -5.5t10.5 -1.5v0v0v0h1v0v0v0v0v0h1v0v0q2 0 4.5 0.5t5.5 1.5q3 2 5.5 3.5t4.5 3.5t3 4l2 4t1.5 4.5t0.5 5.5
q0 2 -0.5 4.5t-1.5 5.5t-2.5 5.5t-3.5 4.5q-1 1 -2 1.5t-2 1.5q-2 0 -3 0.5t-2 1.5q-3 1 -5.5 1.5t-4.5 1.5q-6 0 -11 -2t-10 -6q-4 -4 -6 -9t-2 -10v1v0z" />
    <glyph glyph-name="bullet" horiz-adv-x="500" 
 />
    <glyph glyph-name="endash" horiz-adv-x="500" 
 />
    </font>
</defs>
</svg>
